<svg width="222" height="68" viewBox="0 0 222 68" fill="none" xmlns="http://www.w3.org/2000/svg">
<g filter="url(#filter0_d_24_2589)">
<path fill-rule="evenodd" clip-rule="evenodd" d="M135.965 0.350098C136.527 0.350098 137.089 0.361167 137.645 0.372127C138.191 0.382875 138.731 0.393518 139.261 0.393518C139.903 0.393518 140.203 0.610621 140.246 1.17509C140.246 1.34877 140.203 1.56587 140.16 1.73956L138.362 7.86186C138.148 8.64343 137.934 8.77369 137.121 8.77369H124.449H123.892C123.657 9.55526 123.432 10.3368 123.207 11.1184L123.207 11.1185L123.207 11.1185L123.207 11.1186L123.207 11.1186L123.207 11.1187L123.207 11.1188L123.207 11.1188C122.982 11.9003 122.758 12.6817 122.522 13.4631C121.281 17.6536 120.05 21.844 118.819 26.0345C117.588 30.2242 116.358 34.4139 115.116 38.6036C114.945 39.2115 114.688 39.4286 114.003 39.4286H107.881C106.982 39.4286 106.725 38.951 106.982 37.9958C107.731 35.479 108.469 32.9623 109.207 30.4456L109.208 30.4406L109.21 30.4356C109.948 27.9188 110.686 25.4021 111.435 22.8854C112.098 20.6057 112.772 18.337 113.447 16.0682L113.447 16.0679C114.121 13.7993 114.795 11.5307 115.459 9.25132C115.502 9.12115 115.544 8.94762 115.587 8.77407L115.587 8.77369C115.544 8.77369 115.512 8.76284 115.48 8.75198C115.448 8.74113 115.416 8.73027 115.373 8.73027H107.624H107.624C105.998 8.73027 104.414 8.73027 102.787 8.68685C102.145 8.68685 101.802 8.20923 101.974 7.60134L103.9 1.08825C104.028 0.567201 104.371 0.393518 104.885 0.393518C105.233 0.393518 105.581 0.38231 105.923 0.371283C106.255 0.360605 106.581 0.350098 106.897 0.350098H107.753C107.839 0.350098 107.935 0.360953 108.031 0.371808C108.127 0.382663 108.224 0.393518 108.309 0.393518H108.468C108.386 0.39256 108.294 0.38222 108.202 0.37188C108.106 0.361025 108.009 0.350169 107.924 0.350169H135.225L135.237 0.350098H135.965ZM55.4388 39.4282H68.1962C72.3488 39.4282 76.4586 39.4282 80.6112 39.3413H80.6112C81.1677 39.3413 81.7243 39.3413 82.2808 39.2545C86.6902 38.5598 90.3719 36.6058 93.0689 32.9151C95.2522 29.9625 96.4937 26.6191 96.1512 22.8415C95.9372 20.8007 95.081 19.1073 93.497 17.8047C91.699 16.3284 89.6013 15.6771 87.3324 15.6771H72.306C71.9635 15.6771 71.621 15.6771 71.2786 15.6337C70.3796 15.5469 69.823 14.939 69.7374 14.0706C69.4805 11.2916 71.8351 8.72982 74.6178 8.72982H96.7078H97.2215C97.6068 8.6864 97.8636 8.51272 97.9921 8.07851C98.3131 6.993 98.6342 5.89663 98.9553 4.80026L98.9553 4.80019C99.2764 3.70384 99.5974 2.60749 99.9185 1.522C100.09 0.827272 99.8329 0.479907 99.1479 0.393066H98.6342H76.9723C75.3027 0.393066 73.6759 0.65359 72.092 1.21806C65.7561 3.56277 62.0744 8.16535 61.2182 14.939C60.7045 18.8902 62.8878 22.6244 67.0832 23.6665C68.1534 23.927 69.2665 24.1007 70.3796 24.1007C74.1361 24.1658 77.8927 24.1577 81.6492 24.1496C82.9015 24.1468 84.1537 24.1441 85.4059 24.1441C86.9471 24.1441 87.7176 24.9257 87.632 26.3152C87.5036 28.573 85.7056 31.1783 82.6232 31.1348C76.361 31.0697 70.0746 31.0779 63.8003 31.086C61.7106 31.0887 59.6222 31.0914 57.5365 31.0914H57.1512C56.6803 31.0914 56.3807 31.3085 56.2522 31.7862C55.9526 32.85 55.6422 33.9029 55.3318 34.9559L55.3316 34.9567L55.3313 34.9576L55.3311 34.9585L55.3308 34.9593L55.3306 34.9602L55.3303 34.9611C55.0204 36.0123 54.7106 37.0635 54.4114 38.1256C54.4 38.1835 54.3855 38.2415 54.3712 38.2986C54.332 38.4555 54.2944 38.6061 54.3258 38.7335C54.4114 39.2545 54.7111 39.4282 55.4388 39.4282ZM198.467 8.7306H191.147C189.392 8.7306 188.535 9.38191 188.022 11.0753C187.379 13.2898 186.737 15.4608 186.052 17.6752C185.495 19.5789 184.929 21.4826 184.363 23.3898L184.362 23.3922L184.361 23.3958C183.623 25.8803 182.883 28.3707 182.157 30.8751C181.429 33.3935 180.701 35.9119 179.973 38.4737C179.759 39.2553 179.502 39.429 178.732 39.429H172.91C171.882 39.429 171.54 38.9948 171.839 38.0395L171.841 38.035C174.537 28.7879 177.234 19.5408 180.016 10.3372C181.643 4.99643 185.367 1.87015 190.719 0.69779C191.575 0.524108 192.431 0.437267 193.287 0.437267C196.569 0.40832 199.851 0.417969 203.134 0.427618C204.775 0.432442 206.416 0.437267 208.057 0.437267C209.469 0.437267 210.839 0.610949 212.166 1.08858C215.163 2.17409 216.961 4.3017 217.689 7.38456C218.117 9.29507 218.117 11.249 217.603 13.1161C217.524 13.4052 217.445 13.6958 217.365 13.9874L217.365 13.9875C216.849 15.8855 216.322 17.8226 215.506 19.6292C213.066 25.1002 208.742 28.4001 203.005 29.7896C201.764 30.0935 200.479 30.1804 199.195 30.1804C196.598 30.2093 194.001 30.1997 191.404 30.19C190.105 30.1852 188.806 30.1804 187.508 30.1804C186.438 30.1804 186.138 29.7896 186.438 28.7475C186.737 27.7273 187.037 26.6962 187.337 25.6652L187.337 25.6646L187.341 25.6492L187.341 25.6489L187.341 25.6486L187.341 25.6483C187.64 24.6225 187.938 23.5968 188.236 22.5818C188.407 22.0173 188.621 21.8002 189.22 21.8002C190.612 21.8002 191.992 21.8111 193.373 21.8219C194.754 21.8328 196.134 21.8436 197.525 21.8436C197.868 21.8436 198.211 21.8471 198.553 21.8506H198.553H198.553H198.554C199.922 21.8645 201.285 21.8783 202.62 21.6699C205.403 21.2357 207.286 19.5423 208.228 16.8068C208.613 15.6345 208.999 14.4187 209.213 13.2029C209.341 12.4214 209.298 11.5529 209.17 10.7714C208.956 9.68585 207.971 8.90428 206.858 8.77402C206.344 8.7306 205.831 8.68718 205.36 8.68718C203.091 8.7306 200.779 8.7306 198.467 8.7306ZM40.1559 8.72107C39.3282 8.7259 38.5006 8.73072 37.6729 8.73072H30.1811C27.741 8.73072 25.6861 10.2504 25.0011 12.6386C24.3162 15.005 23.6205 17.3605 22.9249 19.716C22.2292 22.0716 21.5335 24.4272 20.8485 26.7937C20.292 28.7259 19.7248 30.6473 19.1575 32.5686C18.5903 34.49 18.0231 36.4114 17.4665 38.3436C17.2525 39.0817 17.5094 39.3857 18.1943 39.3857H24.4018C24.8727 39.3857 25.0867 39.1686 25.2152 38.7344C25.6861 36.9975 26.1998 35.2607 26.7135 33.5239C28.3403 28.0529 29.9671 22.5819 31.5511 17.1109C31.6795 16.7635 31.8079 16.6767 32.1504 16.6767H42.7673C43.1098 16.6767 43.4523 16.6767 43.7947 16.7201C45.2503 16.8938 46.2777 17.8925 46.5774 19.3253C46.7486 20.2372 46.5774 21.0622 46.3205 21.9306C45.5286 24.666 44.7259 27.3906 43.9232 30.1151L43.9231 30.1155C43.1205 32.8401 42.3178 35.5647 41.5258 38.3001C41.2689 39.0817 41.483 39.3422 42.2964 39.3422H48.2898C48.9319 39.3422 49.1032 39.212 49.2744 38.6041C49.551 37.6096 49.8423 36.6151 50.131 35.6295L50.1313 35.6285L50.1331 35.6224L50.1331 35.6224L50.1331 35.6223C50.3353 34.932 50.5363 34.246 50.73 33.5673C51.2431 31.8325 51.7562 30.087 52.2693 28.3414L52.2709 28.336L52.2711 28.3351C52.7849 26.5874 53.2986 24.8398 53.8123 23.1029L53.8434 22.9924L53.8434 22.9924C54.3466 21.2072 54.8389 19.4604 54.7969 17.5885C54.7541 15.3307 54.112 13.2899 52.4852 11.6399C50.4303 9.59914 47.9045 8.77414 45.1218 8.73072C43.4666 8.70178 41.8113 8.71143 40.156 8.72107H40.1559ZM19.0076 0.393066H21.9615C22.9889 0.393066 23.2886 0.783852 22.9889 1.78253C21.4052 7.18774 19.8214 12.5821 18.2376 17.9765L18.237 17.9786C16.653 23.3735 15.0691 28.7685 13.4851 34.1743L12.2008 38.6032C12.0296 39.2545 11.7727 39.4282 11.1306 39.4282H4.9659C4.15251 39.4282 3.85284 38.994 4.06689 38.2124C4.77323 35.8244 5.47958 33.4254 6.18592 31.0265C6.89231 28.6275 7.5987 26.2284 8.30509 23.8402C10.0484 17.7225 11.82 11.6335 13.5969 5.52651L13.597 5.5262C14.0019 4.1347 14.4071 2.74226 14.8122 1.34832C15.0691 0.523328 15.2403 0.393066 16.0537 0.393066H19.0076ZM142.772 5.85515C142.486 6.80075 142.201 7.74636 141.916 8.73057C142.172 8.73057 142.386 8.73057 142.515 8.68714H173.681H176.249C176.72 8.68714 177.02 8.55688 177.148 8.07926C177.833 5.86481 178.475 3.69378 179.117 1.47932C179.289 0.871436 178.989 0.480651 178.39 0.39381H177.962C174.68 0.39381 171.397 0.388985 168.115 0.384161C161.551 0.374512 154.987 0.364863 148.423 0.39381C147.781 0.39381 147.053 0.524071 146.453 0.784595C144.827 1.47932 143.714 2.6951 143.2 4.43193C143.057 4.90955 142.914 5.38235 142.772 5.85515ZM134.456 22.5584L134.457 22.5555L134.457 22.5552C134.717 21.6334 134.97 20.7304 135.28 19.8461C135.494 19.1514 135.836 18.5001 136.264 17.8922C137.292 16.4593 138.747 15.7212 140.503 15.7212H170.17C171.155 15.7212 171.454 16.112 171.155 17.0672C170.856 18.0828 170.558 19.0877 170.26 20.0925L170.256 20.1067C169.956 21.1162 169.656 22.1258 169.357 23.1461C169.143 23.9277 168.971 24.0579 168.158 24.0579H134.552C134.424 24.0145 134.252 24.0145 134.038 24.0145C134.185 23.524 134.321 23.0387 134.456 22.5584ZM127.533 37.7565C127.365 38.3376 127.195 38.9231 127.018 39.516H127.703H147.652H161.266C161.993 39.516 162.165 39.3423 162.379 38.6476C162.678 37.6055 162.978 36.5742 163.278 35.543C163.577 34.5118 163.877 33.4805 164.177 32.4384C164.434 31.6134 164.177 31.2226 163.278 31.1792H162.892H133.739C131.085 31.1792 129.03 32.7424 128.259 35.3042C128.008 36.1187 127.772 36.9332 127.533 37.7565Z" fill="#3E4D86"/>
<path d="M5.53394 50.3448H6.48294V57.8848L12.3069 50.3448H13.1779V59.4448H12.2289V51.9178L6.40494 59.4448H5.53394V50.3448Z" fill="#3D4E81"/>
<path d="M20.8508 54.6868C21.4488 54.8342 21.9168 55.1028 22.2548 55.4928C22.6014 55.8828 22.7748 56.3508 22.7748 56.8968C22.7748 57.4255 22.6101 57.8892 22.2808 58.2878C21.9514 58.6865 21.5138 58.9942 20.9678 59.2108C20.4218 59.4188 19.8281 59.5228 19.1868 59.5228C18.5801 59.5228 17.9821 59.4275 17.3928 59.2368C16.8121 59.0375 16.2878 58.7428 15.8198 58.3528L16.1708 57.6638C16.5694 58.0018 17.0244 58.2618 17.5358 58.4438C18.0471 58.6172 18.5628 58.7038 19.0828 58.7038C19.5768 58.7038 20.0318 58.6258 20.4478 58.4698C20.8638 58.3138 21.1931 58.0928 21.4358 57.8068C21.6871 57.5122 21.8128 57.1655 21.8128 56.7668C21.8128 56.2382 21.6048 55.8308 21.1888 55.5448C20.7728 55.2588 20.1878 55.1158 19.4338 55.1158H17.4838V54.3358H19.3818C20.0231 54.3358 20.5214 54.2015 20.8768 53.9328C21.2408 53.6555 21.4228 53.2742 21.4228 52.7888C21.4228 52.2515 21.1931 51.8312 20.7338 51.5278C20.2744 51.2158 19.6981 51.0598 19.0048 51.0598C18.5714 51.0598 18.1338 51.1248 17.6918 51.2548C17.2498 51.3762 16.8294 51.5625 16.4308 51.8138L16.1058 51.0208C17.0071 50.4835 17.9821 50.2148 19.0308 50.2148C19.6461 50.2148 20.2094 50.3145 20.7208 50.5138C21.2321 50.7132 21.6351 50.9992 21.9298 51.3718C22.2331 51.7445 22.3848 52.1822 22.3848 52.6848C22.3848 53.1702 22.2504 53.5905 21.9818 53.9458C21.7131 54.2925 21.3361 54.5395 20.8508 54.6868Z" fill="#3D4E81"/>
<path d="M31.5984 51.1768H26.7494L26.7624 59.4448H25.8134V50.3448H31.5984V51.1768Z" fill="#3D4E81"/>
<path d="M36.6624 59.5228C35.7611 59.5228 34.9421 59.3235 34.2054 58.9248C33.4774 58.5175 32.9054 57.9628 32.4894 57.2608C32.0821 56.5588 31.8784 55.7702 31.8784 54.8948C31.8784 54.0195 32.0821 53.2308 32.4894 52.5288C32.9054 51.8268 33.4774 51.2765 34.2054 50.8778C34.9421 50.4705 35.7611 50.2668 36.6624 50.2668C37.5638 50.2668 38.3741 50.4662 39.0934 50.8648C39.8214 51.2635 40.3934 51.8182 40.8094 52.5288C41.2254 53.2308 41.4334 54.0195 41.4334 54.8948C41.4334 55.7702 41.2254 56.5632 40.8094 57.2738C40.3934 57.9758 39.8214 58.5262 39.0934 58.9248C38.3741 59.3235 37.5638 59.5228 36.6624 59.5228ZM36.6624 58.6648C37.3818 58.6648 38.0318 58.5045 38.6124 58.1838C39.1931 57.8545 39.6481 57.4038 39.9774 56.8318C40.3068 56.2512 40.4714 55.6055 40.4714 54.8948C40.4714 54.1842 40.3068 53.5428 39.9774 52.9708C39.6481 52.3902 39.1931 51.9395 38.6124 51.6188C38.0318 51.2895 37.3818 51.1248 36.6624 51.1248C35.9431 51.1248 35.2888 51.2895 34.6994 51.6188C34.1188 51.9395 33.6594 52.3902 33.3214 52.9708C32.9921 53.5428 32.8274 54.1842 32.8274 54.8948C32.8274 55.6055 32.9921 56.2512 33.3214 56.8318C33.6594 57.4038 34.1188 57.8545 34.6994 58.1838C35.2888 58.5045 35.9431 58.6648 36.6624 58.6648Z" fill="#3D4E81"/>
<path d="M50.2061 51.1768H47.0081V59.4448H46.0591V51.1768H42.8611V50.3448H50.2061V51.1768Z" fill="#3D4E81"/>
<path d="M56.4087 59.5228C55.5074 59.5228 54.6884 59.3235 53.9517 58.9248C53.2237 58.5175 52.6517 57.9628 52.2357 57.2608C51.8284 56.5588 51.6247 55.7702 51.6247 54.8948C51.6247 54.0195 51.8284 53.2308 52.2357 52.5288C52.6517 51.8268 53.2237 51.2765 53.9517 50.8778C54.6884 50.4705 55.5074 50.2668 56.4087 50.2668C57.3101 50.2668 58.1204 50.4662 58.8397 50.8648C59.5677 51.2635 60.1397 51.8182 60.5557 52.5288C60.9717 53.2308 61.1797 54.0195 61.1797 54.8948C61.1797 55.7702 60.9717 56.5632 60.5557 57.2738C60.1397 57.9758 59.5677 58.5262 58.8397 58.9248C58.1204 59.3235 57.3101 59.5228 56.4087 59.5228ZM56.4087 58.6648C57.1281 58.6648 57.7781 58.5045 58.3587 58.1838C58.9394 57.8545 59.3944 57.4038 59.7237 56.8318C60.0531 56.2512 60.2177 55.6055 60.2177 54.8948C60.2177 54.1842 60.0531 53.5428 59.7237 52.9708C59.3944 52.3902 58.9394 51.9395 58.3587 51.6188C57.7781 51.2895 57.1281 51.1248 56.4087 51.1248C55.6894 51.1248 55.0351 51.2895 54.4457 51.6188C53.8651 51.9395 53.4057 52.3902 53.0677 52.9708C52.7384 53.5428 52.5737 54.1842 52.5737 54.8948C52.5737 55.6055 52.7384 56.2512 53.0677 56.8318C53.4057 57.4038 53.8651 57.8545 54.4457 58.1838C55.0351 58.5045 55.6894 58.6648 56.4087 58.6648Z" fill="#3D4E81"/>
<path d="M69.5203 54.7518C70.153 54.8818 70.634 55.1375 70.9633 55.5188C71.2927 55.8915 71.4573 56.3812 71.4573 56.9878C71.4573 57.7765 71.1757 58.3832 70.6123 58.8078C70.0577 59.2325 69.2387 59.4448 68.1553 59.4448H64.1253V50.3448H67.9083C68.879 50.3448 69.6373 50.5442 70.1833 50.9428C70.7293 51.3415 71.0023 51.9178 71.0023 52.6718C71.0023 53.1832 70.8723 53.6165 70.6123 53.9718C70.3523 54.3185 69.9883 54.5785 69.5203 54.7518ZM65.0743 54.4658H67.8563C68.5583 54.4658 69.0957 54.3228 69.4683 54.0368C69.8497 53.7508 70.0403 53.3348 70.0403 52.7888C70.0403 52.2428 69.8497 51.8268 69.4683 51.5408C69.0957 51.2548 68.5583 51.1118 67.8563 51.1118H65.0743V54.4658ZM68.1553 58.6778C69.724 58.6778 70.5083 58.0928 70.5083 56.9228C70.5083 55.7788 69.724 55.2068 68.1553 55.2068H65.0743V58.6778H68.1553Z" fill="#3D4E81"/>
<path d="M81.6497 50.3448V59.4448H80.7007V51.1768H76.3066L76.2027 54.2188C76.1593 55.4755 76.0553 56.4895 75.8906 57.2608C75.7346 58.0235 75.492 58.5955 75.1627 58.9768C74.8333 59.3495 74.3956 59.5358 73.8496 59.5358C73.6156 59.5358 73.373 59.5055 73.1217 59.4448L73.1996 58.5868C73.347 58.6215 73.49 58.6388 73.6286 58.6388C74.01 58.6388 74.3176 58.4872 74.5517 58.1838C74.7943 57.8805 74.9763 57.4125 75.0976 56.7798C75.219 56.1385 75.3013 55.2935 75.3447 54.2448L75.4746 50.3448H81.6497Z" fill="#3D4E81"/>
<path d="M91.8047 58.6128V59.4448H85.3697V50.3448H91.6097V51.1768H86.3317V54.4138H91.0377V55.2328H86.3317V58.6128H91.8047Z" fill="#3D4E81"/>
<path d="M102.194 50.3448V59.4448H101.245V55.2458H95.551V59.4448H94.589V50.3448H95.551V54.4008H101.245V50.3448H102.194Z" fill="#3D4E81"/>
<path d="M105.916 50.3448H106.865V57.8848L112.689 50.3448H113.56V59.4448H112.611V51.9178L106.787 59.4448H105.916V50.3448Z" fill="#3D4E81"/>
<path d="M123.716 58.6128V59.4448H117.281V50.3448H123.521V51.1768H118.243V54.4138H122.949V55.2328H118.243V58.6128H123.716Z" fill="#3D4E81"/>
<path d="M138.209 50.3448V59.4448H137.26V51.1768H131.501V59.4448H130.552V50.3448H138.209Z" fill="#3D4E81"/>
<path d="M145.336 50.3448C146.497 50.3448 147.407 50.6222 148.066 51.1768C148.725 51.7315 149.054 52.4942 149.054 53.4648C149.054 54.4355 148.725 55.1982 148.066 55.7528C147.407 56.2988 146.497 56.5718 145.336 56.5718H142.892V59.4448H141.93V50.3448H145.336ZM145.31 55.7268C146.211 55.7268 146.9 55.5318 147.377 55.1418C147.854 54.7432 148.092 54.1842 148.092 53.4648C148.092 52.7282 147.854 52.1648 147.377 51.7748C146.9 51.3762 146.211 51.1768 145.31 51.1768H142.892V55.7268H145.31Z" fill="#3D4E81"/>
<path d="M155.8 59.5228C154.899 59.5228 154.08 59.3235 153.343 58.9248C152.615 58.5175 152.043 57.9628 151.627 57.2608C151.22 56.5588 151.016 55.7702 151.016 54.8948C151.016 54.0195 151.22 53.2308 151.627 52.5288C152.043 51.8268 152.615 51.2765 153.343 50.8778C154.08 50.4705 154.899 50.2668 155.8 50.2668C156.702 50.2668 157.512 50.4662 158.231 50.8648C158.959 51.2635 159.531 51.8182 159.947 52.5288C160.363 53.2308 160.571 54.0195 160.571 54.8948C160.571 55.7702 160.363 56.5632 159.947 57.2738C159.531 57.9758 158.959 58.5262 158.231 58.9248C157.512 59.3235 156.702 59.5228 155.8 59.5228ZM155.8 58.6648C156.52 58.6648 157.17 58.5045 157.75 58.1838C158.331 57.8545 158.786 57.4038 159.115 56.8318C159.445 56.2512 159.609 55.6055 159.609 54.8948C159.609 54.1842 159.445 53.5428 159.115 52.9708C158.786 52.3902 158.331 51.9395 157.75 51.6188C157.17 51.2895 156.52 51.1248 155.8 51.1248C155.081 51.1248 154.427 51.2895 153.837 51.6188C153.257 51.9395 152.797 52.3902 152.459 52.9708C152.13 53.5428 151.965 54.1842 151.965 54.8948C151.965 55.6055 152.13 56.2512 152.459 56.8318C152.797 57.4038 153.257 57.8545 153.837 58.1838C154.427 58.5045 155.081 58.6648 155.8 58.6648Z" fill="#3D4E81"/>
<path d="M169.344 51.1768H166.146V59.4448H165.197V51.1768H161.999V50.3448H169.344V51.1768Z" fill="#3D4E81"/>
<path d="M178.118 58.6128V59.4448H171.683V50.3448H177.923V51.1768H172.645V54.4138H177.351V55.2328H172.645V58.6128H178.118Z" fill="#3D4E81"/>
<path d="M184.854 54.6868C185.452 54.8342 185.92 55.1028 186.258 55.4928C186.605 55.8828 186.778 56.3508 186.778 56.8968C186.778 57.4255 186.613 57.8892 186.284 58.2878C185.955 58.6865 185.517 58.9942 184.971 59.2108C184.425 59.4188 183.831 59.5228 183.19 59.5228C182.583 59.5228 181.985 59.4275 181.396 59.2368C180.815 59.0375 180.291 58.7428 179.823 58.3528L180.174 57.6638C180.573 58.0018 181.028 58.2618 181.539 58.4438C182.05 58.6172 182.566 58.7038 183.086 58.7038C183.58 58.7038 184.035 58.6258 184.451 58.4698C184.867 58.3138 185.196 58.0928 185.439 57.8068C185.69 57.5122 185.816 57.1655 185.816 56.7668C185.816 56.2382 185.608 55.8308 185.192 55.5448C184.776 55.2588 184.191 55.1158 183.437 55.1158H181.487V54.3358H183.385C184.026 54.3358 184.525 54.2015 184.88 53.9328C185.244 53.6555 185.426 53.2742 185.426 52.7888C185.426 52.2515 185.196 51.8312 184.737 51.5278C184.278 51.2158 183.701 51.0598 183.008 51.0598C182.575 51.0598 182.137 51.1248 181.695 51.2548C181.253 51.3762 180.833 51.5625 180.434 51.8138L180.109 51.0208C181.01 50.4835 181.985 50.2148 183.034 50.2148C183.649 50.2148 184.213 50.3145 184.724 50.5138C185.235 50.7132 185.638 50.9992 185.933 51.3718C186.236 51.7445 186.388 52.1822 186.388 52.6848C186.388 53.1702 186.254 53.5905 185.985 53.9458C185.716 54.2925 185.339 54.5395 184.854 54.6868Z" fill="#3D4E81"/>
<path d="M193.808 59.5228C192.906 59.5228 192.087 59.3235 191.351 58.9248C190.623 58.5175 190.051 57.9628 189.635 57.2608C189.227 56.5588 189.024 55.7702 189.024 54.8948C189.024 54.0195 189.227 53.2308 189.635 52.5288C190.051 51.8268 190.623 51.2765 191.351 50.8778C192.087 50.4705 192.906 50.2668 193.808 50.2668C194.709 50.2668 195.519 50.4662 196.239 50.8648C196.967 51.2635 197.539 51.8182 197.955 52.5288C198.371 53.2308 198.579 54.0195 198.579 54.8948C198.579 55.7702 198.371 56.5632 197.955 57.2738C197.539 57.9758 196.967 58.5262 196.239 58.9248C195.519 59.3235 194.709 59.5228 193.808 59.5228ZM193.808 58.6648C194.527 58.6648 195.177 58.5045 195.758 58.1838C196.338 57.8545 196.793 57.4038 197.123 56.8318C197.452 56.2512 197.617 55.6055 197.617 54.8948C197.617 54.1842 197.452 53.5428 197.123 52.9708C196.793 52.3902 196.338 51.9395 195.758 51.6188C195.177 51.2895 194.527 51.1248 193.808 51.1248C193.088 51.1248 192.434 51.2895 191.845 51.6188C191.264 51.9395 190.805 52.3902 190.467 52.9708C190.137 53.5428 189.973 54.1842 189.973 54.8948C189.973 55.6055 190.137 56.2512 190.467 56.8318C190.805 57.4038 191.264 57.8545 191.845 58.1838C192.434 58.5045 193.088 58.6648 193.808 58.6648Z" fill="#3D4E81"/>
<path d="M206.919 54.7518C207.552 54.8818 208.033 55.1375 208.362 55.5188C208.691 55.8915 208.856 56.3812 208.856 56.9878C208.856 57.7765 208.575 58.3832 208.011 58.8078C207.456 59.2325 206.637 59.4448 205.554 59.4448H201.524V50.3448H205.307C206.278 50.3448 207.036 50.5442 207.582 50.9428C208.128 51.3415 208.401 51.9178 208.401 52.6718C208.401 53.1832 208.271 53.6165 208.011 53.9718C207.751 54.3185 207.387 54.5785 206.919 54.7518ZM202.473 54.4658H205.255C205.957 54.4658 206.495 54.3228 206.867 54.0368C207.249 53.7508 207.439 53.3348 207.439 52.7888C207.439 52.2428 207.249 51.8268 206.867 51.5408C206.495 51.2548 205.957 51.1118 205.255 51.1118H202.473V54.4658ZM205.554 58.6778C207.123 58.6778 207.907 58.0928 207.907 56.9228C207.907 55.7788 207.123 55.2068 205.554 55.2068H202.473V58.6778H205.554Z" fill="#3D4E81"/>
</g>
<defs>
<filter id="filter0_d_24_2589" x="0" y="0" width="222" height="69.4448" filterUnits="userSpaceOnUse" color-interpolation-filters="sRGB">
<feFlood flood-opacity="0" result="BackgroundImageFix"/>
<feColorMatrix in="SourceAlpha" type="matrix" values="0 0 0 0 0 0 0 0 0 0 0 0 0 0 0 0 0 0 127 0" result="hardAlpha"/>
<feOffset dy="4"/>
<feGaussianBlur stdDeviation="2"/>
<feComposite in2="hardAlpha" operator="out"/>
<feColorMatrix type="matrix" values="0 0 0 0 0 0 0 0 0 0 0 0 0 0 0 0 0 0 0.25 0"/>
<feBlend mode="normal" in2="BackgroundImageFix" result="effect1_dropShadow_24_2589"/>
<feBlend mode="normal" in="SourceGraphic" in2="effect1_dropShadow_24_2589" result="shape"/>
</filter>
</defs>
</svg>
