<svg width="101" height="19" viewBox="0 0 101 19" fill="none" xmlns="http://www.w3.org/2000/svg">
<path fill-rule="evenodd" clip-rule="evenodd" d="M62.282 0C62.5473 0 62.8125 0.00522419 63.0751 0.0103972C63.3327 0.0154697 63.5877 0.020493 63.8378 0.020493C64.1409 0.020493 64.2823 0.122957 64.3025 0.389365C64.3025 0.471336 64.2823 0.573801 64.2621 0.655772L63.4135 3.54527C63.3125 3.91414 63.2114 3.97562 62.8275 3.97562H56.8469H56.5843C56.4732 4.34449 56.3671 4.71336 56.261 5.08224C56.1549 5.45111 56.0489 5.81998 55.9377 6.18885C55.3518 8.16641 54.7709 10.144 54.19 12.1215L54.1888 12.1257C53.6083 14.1019 53.0278 16.078 52.4423 18.0542C52.3615 18.3411 52.2403 18.4436 51.917 18.4436H49.0277C48.6034 18.4436 48.4822 18.2182 48.6034 17.7673C48.9569 16.5789 49.3054 15.3905 49.6539 14.2021L49.654 14.2019C50.0025 13.0132 50.3511 11.8245 50.7047 10.6358C51.0179 9.55993 51.3361 8.48917 51.6543 7.41842C51.9725 6.34767 52.2908 5.27692 52.6039 4.20104C52.6241 4.13956 52.6444 4.05759 52.6646 3.97562C52.6444 3.97562 52.6292 3.9705 52.614 3.96537C52.5989 3.96025 52.5837 3.95513 52.5635 3.95513H48.9065C48.1387 3.95513 47.3911 3.95513 46.6233 3.93463C46.3203 3.93463 46.1586 3.70921 46.2394 3.42231L47.1487 0.348379C47.2093 0.102464 47.3709 0.020493 47.6134 0.020493C47.7776 0.020493 47.9419 0.0152031 48.1035 0.00999856C48.2599 0.00495928 48.4139 0 48.563 0L48.9671 0C49.0075 0 49.053 0.00512324 49.0984 0.0102465L49.0984 0.0102479C49.1439 0.0153707 49.1893 0.020493 49.2298 0.020493H49.3101C49.2698 0.0204584 49.2245 0.0153534 49.1792 0.010248L49.1792 0.0102466L49.1792 0.0102451C49.1337 0.00512232 49.0883 0 49.0479 0L61.9385 0L62.0193 0L62.282 0ZM24.2769 18.4436H30.2979C32.2578 18.4436 34.1975 18.4436 36.1573 18.4026C36.42 18.4026 36.6826 18.4026 36.9453 18.3616C39.0264 18.0338 40.764 17.1116 42.0369 15.3697C43.0673 13.9762 43.6533 12.3982 43.4916 10.6153C43.3906 9.65216 42.9865 8.85294 42.2389 8.23816C41.3903 7.5414 40.4003 7.234 39.3295 7.234H32.2376C32.076 7.234 31.9143 7.234 31.7527 7.21351C31.3284 7.17253 31.0657 6.88562 31.0253 6.47577C30.9041 5.16422 32.0153 3.95514 33.3287 3.95514H43.7543H43.9968C44.1786 3.93465 44.2998 3.85268 44.3604 3.64775C44.5119 3.13559 44.6634 2.61831 44.8149 2.10102L44.815 2.10059C44.9666 1.58313 45.1181 1.06566 45.2697 0.553323C45.3505 0.225437 45.2292 0.0614936 44.906 0.0205078H44.6635H34.4399C33.6519 0.0205078 32.8841 0.143465 32.1366 0.409873C29.1463 1.51649 27.4087 3.68873 27.0046 6.88562C26.7621 8.75048 27.7925 10.5129 29.7726 11.0047C30.2777 11.1277 30.8031 11.2096 31.3284 11.2096C33.1013 11.2404 34.8743 11.2365 36.6473 11.2327C37.2383 11.2314 37.8293 11.2301 38.4202 11.2301C39.1476 11.2301 39.5113 11.599 39.4709 12.2548C39.4103 13.3204 38.5617 14.55 37.1069 14.5295C34.1514 14.4987 31.1844 14.5026 28.2232 14.5064C27.2369 14.5077 26.2513 14.509 25.267 14.509H25.0851C24.8629 14.509 24.7214 14.6114 24.6608 14.8369C24.5194 15.3387 24.373 15.8355 24.2266 16.3322L24.2264 16.3328C24.0799 16.8298 23.9335 17.3267 23.792 17.8288C23.7866 17.8562 23.7798 17.8835 23.7731 17.9105C23.7546 17.9845 23.7368 18.0556 23.7516 18.1157C23.792 18.3616 23.9334 18.4436 24.2769 18.4436ZM91.7816 3.95548H88.3266C87.4982 3.95548 87.0941 4.26287 86.8517 5.06209C86.5486 6.10723 86.2455 7.13187 85.9222 8.17701C85.6589 9.07643 85.3916 9.97584 85.1239 10.8769L85.1238 10.8773C84.7755 12.0497 84.4263 13.225 84.0836 14.4068C83.7401 15.5954 83.3967 16.784 83.0532 17.9931C82.9522 18.362 82.8309 18.4439 82.4672 18.4439H79.7194C79.2345 18.4439 79.0729 18.239 79.2143 17.7882L79.2143 17.7881L79.2144 17.7878L79.2145 17.7875L79.2145 17.7873L79.2146 17.7871L79.2147 17.7868C80.4874 13.4223 81.7602 9.05776 83.0734 4.71371C83.8412 2.19309 85.599 0.7176 88.1246 0.164292C88.5287 0.0823203 88.9328 0.0413345 89.3368 0.0413345C90.8859 0.0276726 92.4349 0.0322266 93.9839 0.0367805C94.7584 0.0390575 95.533 0.0413345 96.3075 0.0413345C96.9742 0.0413345 97.6208 0.123306 98.2471 0.348728C99.6615 0.86105 100.51 1.8652 100.854 3.3202C101.056 4.22188 101.056 5.14406 100.813 6.02526C100.776 6.15983 100.739 6.29511 100.702 6.43082L100.701 6.43388L100.701 6.43638C100.457 7.33218 100.208 8.24648 99.8231 9.09919C98.6714 11.6813 96.6308 13.2388 93.9233 13.8945C93.3374 14.038 92.7312 14.079 92.1251 14.079C90.8993 14.0926 89.6736 14.0881 88.4478 14.0835L88.4471 14.0835C87.8344 14.0812 87.2218 14.079 86.6092 14.079C86.1041 14.079 85.9627 13.8945 86.1041 13.4027C86.2455 12.9211 86.387 12.4344 86.5284 11.9477C86.6698 11.461 86.8113 10.9743 86.9527 10.4927C87.0335 10.2263 87.1345 10.1238 87.4174 10.1238C88.0741 10.1238 88.7257 10.129 89.3773 10.1341C90.0289 10.1392 90.6805 10.1443 91.3371 10.1443C91.4988 10.1443 91.6604 10.146 91.8219 10.1476H91.822H91.8221H91.8222H91.8223H91.8224C92.4681 10.1542 93.1112 10.1607 93.7415 10.0624C95.0548 9.85743 95.9438 9.0582 96.3883 7.76715C96.5701 7.21384 96.752 6.64004 96.853 6.06624C96.9136 5.69737 96.8934 5.28751 96.8328 4.91864C96.7318 4.40632 96.2671 4.03745 95.7417 3.97597C95.4993 3.95548 95.2568 3.93498 95.0346 3.93498C93.9637 3.95548 92.8727 3.95548 91.7816 3.95548ZM17.0645 3.95035C16.6739 3.95263 16.2832 3.95491 15.8926 3.95491H12.3568C11.2051 3.95491 10.2353 4.67216 9.912 5.79927C9.58873 6.91611 9.26041 8.02783 8.93209 9.13956C8.60376 10.2513 8.27542 11.3631 7.95214 12.4799C7.68948 13.3919 7.42177 14.2987 7.15406 15.2055C6.88635 16.1123 6.61863 17.0191 6.35597 17.9311C6.25495 18.2794 6.37617 18.4229 6.69945 18.4229H9.62914C9.85139 18.4229 9.95241 18.3204 10.013 18.1155C10.2353 17.2958 10.4777 16.4761 10.7202 15.6563L10.7203 15.6559L10.7204 15.6558L10.7204 15.6557L10.7204 15.6555L10.7205 15.6554C11.4881 13.0736 12.2558 10.4918 13.0033 7.91004C13.0639 7.74609 13.1246 7.70511 13.2862 7.70511H18.297C18.4586 7.70511 18.6202 7.70511 18.7819 7.7256C19.4688 7.80757 19.9538 8.27891 20.0952 8.95517C20.176 9.38552 20.0952 9.77489 19.974 10.1847C19.6002 11.4758 19.2213 12.7617 18.8425 14.0477C18.4637 15.3336 18.0848 16.6195 17.711 17.9106C17.5898 18.2794 17.6908 18.4024 18.0747 18.4024H20.9034C21.2064 18.4024 21.2873 18.3409 21.3681 18.054C21.4986 17.5847 21.6361 17.1154 21.7723 16.6502C21.8681 16.3232 21.9633 15.9983 22.055 15.6768C22.2975 14.8573 22.5399 14.0326 22.7823 13.2079L22.7826 13.207C23.025 12.3823 23.2674 11.5576 23.5098 10.7381L23.5245 10.6859C23.7619 9.84335 23.9943 9.01891 23.9745 8.13546C23.9543 7.06983 23.6512 6.10666 22.8834 5.32793C21.9136 4.36477 20.7215 3.9754 19.4082 3.95491C18.627 3.94125 17.8457 3.9458 17.0645 3.95035ZM7.08303 0.0204773H8.47715C8.96207 0.0204773 9.1035 0.204913 8.96207 0.676249C8.21459 3.22729 7.4671 5.77321 6.71962 8.31913L6.71931 8.32019C5.97175 10.8664 5.22418 13.4126 4.47661 15.9639L3.87047 18.0542C3.78965 18.3616 3.66842 18.4436 3.36535 18.4436H0.45587C0.0719794 18.4436 -0.0694538 18.2386 0.0315699 17.8698C0.364777 16.7432 0.697983 15.6116 1.03119 14.48L1.03135 14.4794L1.03149 14.4789L1.03167 14.4783C1.36506 13.346 1.69845 12.2138 2.03184 11.0866C2.85459 8.19933 3.69074 5.32561 4.52938 2.44335L4.52952 2.44283L4.53016 2.44066C4.72101 1.78474 4.91198 1.12838 5.10296 0.471321C5.22419 0.0819559 5.30501 0.0204773 5.6889 0.0204773H7.08303ZM65.4951 2.59759C65.3604 3.04397 65.2256 3.49035 65.0909 3.95495C65.2121 3.95495 65.3132 3.95495 65.3738 3.93445H80.0828H81.2951C81.5173 3.93445 81.6588 3.87297 81.7194 3.64755C82.0427 2.60242 82.3457 1.57777 82.6488 0.532635C82.7296 0.245734 82.5882 0.0612983 82.3053 0.0203125H82.1033C80.5543 0.0203125 79.0052 0.0180355 77.4562 0.0157585C74.3581 0.0112046 71.2601 0.0066506 68.162 0.0203125C67.859 0.0203125 67.5155 0.0817911 67.2326 0.204748C66.4648 0.532635 65.9395 1.10644 65.697 1.92615C65.6297 2.15148 65.5624 2.37454 65.4951 2.59759ZM61.373 11.1685C61.4423 10.9366 61.5069 10.7071 61.5707 10.48C61.6931 10.0449 61.813 9.61864 61.959 9.20122C62.06 8.87333 62.2216 8.56594 62.4237 8.27904C62.9086 7.60277 63.5956 7.25439 64.424 7.25439H78.4258C78.8905 7.25439 79.032 7.43883 78.8905 7.88967C78.7491 8.37126 78.6077 8.84773 78.4662 9.32419C78.3248 9.80065 78.1834 10.2771 78.0419 10.7587C77.9409 11.1276 77.8601 11.189 77.4762 11.189H61.6155C61.5549 11.1685 61.4741 11.1685 61.373 11.1685ZM58.3029 17.6546C58.2234 17.9289 58.1432 18.2051 58.0597 18.4849H58.3829H67.7983H74.2234C74.5669 18.4849 74.6477 18.403 74.7488 18.0751C74.8902 17.5832 75.0316 17.0965 75.1731 16.6098C75.3145 16.1231 75.4559 15.6364 75.5974 15.1446C75.7186 14.7552 75.5974 14.5708 75.1731 14.5503H74.9912H61.2318C59.9791 14.5503 59.0093 15.288 58.6456 16.4971C58.5271 16.8816 58.4156 17.2661 58.3029 17.6546Z" fill="#3E4D86"/>
</svg>
