<svg width="196" height="56" viewBox="0 0 196 56" fill="none" xmlns="http://www.w3.org/2000/svg">
<path fill-rule="evenodd" clip-rule="evenodd" d="M120.457 0C120.97 0 121.483 0.0101038 121.991 0.0201086C122.489 0.0299191 122.982 0.0396343 123.466 0.0396343C124.052 0.0396343 124.326 0.237805 124.365 0.75305C124.365 0.911586 124.326 1.10976 124.287 1.26829L122.645 6.85671C122.45 7.57013 122.255 7.68903 121.512 7.68903H109.945H109.437C109.222 8.40245 109.017 9.11586 108.812 9.82927C108.607 10.5427 108.402 11.2561 108.187 11.9695C107.054 15.7939 105.93 19.6182 104.807 23.4426C103.683 27.2676 102.56 31.0927 101.427 34.9177C101.27 35.4726 101.036 35.6708 100.411 35.6708H94.8225C94.0019 35.6708 93.7675 35.2348 94.0019 34.3628C94.6858 32.0641 95.3598 29.7653 96.0339 27.4665C96.708 25.1677 97.3821 22.8689 98.0659 20.5701C98.6716 18.4895 99.287 16.4188 99.9024 14.348C100.518 12.277 101.133 10.206 101.739 8.12501C101.778 8.00611 101.817 7.84757 101.856 7.68903C101.817 7.68903 101.788 7.67912 101.759 7.66922C101.729 7.65931 101.7 7.6494 101.661 7.6494H94.5881H94.588C93.1031 7.6494 91.6573 7.6494 90.1724 7.60976C89.5862 7.60976 89.2736 7.17379 89.4299 6.61891L91.1884 0.673781C91.3056 0.198171 91.6182 0.0396343 92.0872 0.0396343C92.4048 0.0396343 92.7225 0.0294034 93.035 0.0193376C93.3376 0.00959144 93.6354 0 93.9238 0L94.7053 0C94.7835 0 94.8714 0.00990858 94.9593 0.0198172C95.0472 0.0297258 95.1351 0.0396343 95.2133 0.0396343H95.3687C95.2908 0.039567 95.2031 0.0296922 95.1155 0.0198173C95.0276 0.00990867 94.9397 0 94.8615 0L119.793 0L119.949 0L120.457 0ZM46.9534 35.6709H58.5983C62.3887 35.6709 66.1401 35.6709 69.9306 35.5916C70.4386 35.5916 70.9466 35.5916 71.4546 35.5123C75.4795 34.8782 78.8401 33.0947 81.302 29.7258C83.2949 27.0306 84.4281 23.9788 84.1155 20.5306C83.9201 18.6678 83.1386 17.1221 81.6927 15.9331C80.0515 14.5855 78.1367 13.991 76.0657 13.991H62.3497C62.037 13.991 61.7244 13.991 61.4118 13.9513C60.5912 13.8721 60.0832 13.3172 60.005 12.5245C59.7706 9.98793 61.9198 7.64951 64.4598 7.64951H84.6235H85.0924C85.4441 7.60987 85.6786 7.45134 85.7958 7.055C86.0881 6.0669 86.3803 5.06896 86.6726 4.07098L86.6726 4.07089L86.6726 4.0708L86.6727 4.07071L86.6727 4.07062L86.6748 4.0636L86.675 4.06259L86.6751 4.06238L86.6752 4.06216C86.9682 3.06155 87.2612 2.06094 87.5543 1.07023C87.7106 0.436084 87.4761 0.11901 86.8509 0.0397417H86.382H66.609C65.0851 0.0397417 63.6001 0.277547 62.1543 0.792791C56.3709 2.93304 53.0103 7.13426 52.2287 13.3172C51.7598 16.9239 53.7527 20.3325 57.5823 21.2837C58.5592 21.5215 59.5752 21.68 60.5912 21.68C64.0202 21.7395 67.4492 21.732 70.8782 21.7246C72.0212 21.7221 73.1642 21.7196 74.3072 21.7196C75.714 21.7196 76.4174 22.4331 76.3392 23.7014C76.222 25.7623 74.5807 28.1404 71.7672 28.1008C66.0515 28.0413 60.3138 28.0487 54.5871 28.0562H54.5869H54.5866H54.5864H54.5861H54.5859H54.5856C52.6782 28.0586 50.7719 28.0611 48.8681 28.0611H48.5164C48.0866 28.0611 47.813 28.2593 47.6958 28.6953C47.4223 29.6663 47.139 30.6274 46.8557 31.5886C46.5724 32.5497 46.2891 33.5108 46.0155 34.4819C46.0051 34.5347 45.9919 34.5876 45.9788 34.6398L45.9788 34.6398C45.9431 34.783 45.9087 34.9205 45.9374 35.0367C46.0155 35.5123 46.2891 35.6709 46.9534 35.6709ZM177.509 7.6496H170.827C169.225 7.6496 168.443 8.24412 167.974 9.78985C167.388 11.8112 166.802 13.7929 166.177 15.8142C165.668 17.5508 165.152 19.2874 164.635 21.0272L164.635 21.0303L164.634 21.0329L164.633 21.0367L164.631 21.0418C163.958 23.3076 163.283 25.579 162.621 27.863C161.956 30.1618 161.292 32.4606 160.628 34.799C160.432 35.5124 160.198 35.671 159.495 35.671H154.18C153.242 35.671 152.93 35.2746 153.203 34.4027L153.203 34.4024C155.665 25.9604 158.127 17.5184 160.667 9.11607C162.152 4.24106 165.552 1.3874 170.436 0.317279C171.218 0.158742 171.999 0.0794741 172.781 0.0794741C175.777 0.0530513 178.773 0.0618589 181.768 0.0706665C183.266 0.0750703 184.764 0.0794741 186.262 0.0794741C187.552 0.0794741 188.802 0.238011 190.014 0.673987C192.749 1.66484 194.39 3.60692 195.055 6.42094C195.445 8.16485 195.445 9.94839 194.976 11.6527C194.904 11.9165 194.831 12.1817 194.759 12.4478C194.288 14.1803 193.807 15.9486 193.062 17.5978C190.834 22.5917 186.888 25.6039 181.651 26.8722C180.518 27.1496 179.346 27.2289 178.173 27.2289C175.803 27.2553 173.432 27.2465 171.061 27.2377C169.876 27.2333 168.691 27.2289 167.505 27.2289C166.528 27.2289 166.255 26.8722 166.528 25.921C166.802 24.9896 167.076 24.0483 167.349 23.1069C167.623 22.1656 167.896 21.2243 168.17 20.2929C168.326 19.7777 168.521 19.5795 169.068 19.5795C170.338 19.5795 171.599 19.5894 172.859 19.5993C174.119 19.6092 175.379 19.6191 176.649 19.6191C176.962 19.6191 177.275 19.6223 177.587 19.6255H177.587H177.587H177.587H177.588H177.588C178.837 19.6382 180.081 19.6508 181.3 19.4606C183.84 19.0642 185.559 17.5185 186.419 15.0216C186.77 13.9514 187.122 12.8417 187.317 11.7319C187.435 11.0185 187.396 10.2258 187.278 9.51241C187.083 8.52156 186.184 7.80814 185.168 7.68924C184.699 7.6496 184.23 7.60997 183.8 7.60997C181.729 7.6496 179.619 7.6496 177.509 7.6496ZM33.0031 7.64061C32.2476 7.64501 31.4921 7.64941 30.7366 7.64941H23.8982C21.6708 7.64941 19.7951 9.03661 19.1699 11.2165C18.5448 13.3761 17.9099 15.5259 17.275 17.6756L17.275 17.6758L17.2749 17.6759L17.2749 17.6761L17.2746 17.6769C16.6396 19.827 16.0046 21.9772 15.3794 24.1372C14.8714 25.9009 14.3536 27.6548 13.8359 29.4086C13.3181 31.1624 12.8003 32.9162 12.2923 34.6799C12.0969 35.3537 12.3314 35.6311 12.9566 35.6311H18.6228C19.0526 35.6311 19.248 35.433 19.3652 35.0366C19.7951 33.4513 20.264 31.8659 20.7329 30.2805C22.2179 25.2866 23.7028 20.2927 25.1486 15.2988C25.2659 14.9817 25.3831 14.9025 25.6957 14.9025H35.3868C35.6994 14.9025 36.012 14.9025 36.3246 14.9421C37.6532 15.1006 38.5911 16.0122 38.8646 17.3202C39.0209 18.1525 38.8646 18.9055 38.6302 19.6982C37.9074 22.1944 37.175 24.6807 36.4425 27.167L36.4418 27.1693C35.7092 29.6563 34.9765 32.1433 34.2535 34.6403C34.0191 35.3537 34.2145 35.5915 34.9569 35.5915H40.4277C41.0138 35.5915 41.1702 35.4726 41.3265 34.9177C41.5789 34.01 41.8448 33.1023 42.1083 32.2026C42.2936 31.5702 42.4777 30.9418 42.6551 30.3202C43.1239 28.7351 43.5927 27.1401 44.0616 25.5451L44.0619 25.5442C44.5308 23.949 44.9997 22.3537 45.4686 20.7683L45.497 20.6674C45.9563 19.0379 46.4057 17.4434 46.3674 15.7348C46.3283 13.6738 45.7421 11.811 44.2572 10.3049C42.3815 8.4421 40.076 7.68905 37.536 7.64941C36.025 7.62299 34.5141 7.6318 33.0031 7.64061ZM13.6989 0.0397417H16.3952C17.3331 0.0397417 17.6066 0.396449 17.3331 1.30804C15.8872 6.24249 14.4414 11.167 12.9955 16.0916C11.5497 21.0161 10.1038 25.9407 8.65798 30.8751L7.48567 34.9178C7.32936 35.5123 7.0949 35.6709 6.50875 35.6709H0.881673C0.139212 35.6709 -0.134327 35.2745 0.0610577 34.5611C0.705831 32.3812 1.3506 30.1914 1.99538 28.0016C2.64014 25.8119 3.28491 23.6221 3.92967 21.4422C5.52092 15.858 7.13809 10.3 8.76006 4.72554C9.12966 3.45529 9.49951 2.18417 9.86936 0.911694C10.1038 0.158644 10.2601 0.0397417 11.0026 0.0397417H13.6989ZM126.67 5.02484C126.41 5.88798 126.149 6.75112 125.889 7.6495C126.123 7.6495 126.319 7.6495 126.436 7.60986H154.884H157.228C157.658 7.60986 157.932 7.49096 158.049 7.05498C158.674 5.03364 159.26 3.05193 159.847 1.03059C160.003 0.475709 159.729 0.119001 159.182 0.0397323H158.791C155.796 0.0397323 152.8 0.0353285 149.804 0.0309247C143.812 0.0221171 137.82 0.0133095 131.828 0.0397323C131.242 0.0397323 130.578 0.158635 130.031 0.39644C128.546 1.03059 127.53 2.14034 127.061 3.72571C126.931 4.16164 126.801 4.59317 126.67 5.0247L126.67 5.02484ZM118.699 21.6007C118.833 21.1521 118.958 20.7082 119.081 20.2689C119.318 19.4274 119.549 18.6031 119.832 17.7958C120.027 17.1617 120.34 16.5672 120.731 16.0123C121.668 14.7043 122.997 14.0306 124.599 14.0306H151.68C152.578 14.0306 152.852 14.3873 152.578 15.2592C152.305 16.19 152.032 17.1109 151.758 18.0318C151.484 18.9539 151.211 19.876 150.937 20.808C150.742 21.5214 150.585 21.6403 149.843 21.6403H119.168C119.05 21.6007 118.894 21.6007 118.699 21.6007ZM112.761 34.1439C112.607 34.6743 112.452 35.2088 112.29 35.75H112.915H131.125H143.552C144.216 35.75 144.372 35.5915 144.568 34.9574C144.841 34.0061 145.115 33.0648 145.388 32.1234C145.662 31.1821 145.935 30.2409 146.209 29.2897C146.443 28.5366 146.209 28.1799 145.388 28.1403H145.036H118.425C116.002 28.1403 114.127 29.5671 113.423 31.9055C113.194 32.649 112.979 33.3924 112.761 34.1439Z" fill="url(#paint0_linear_24_3019)"/>
<path d="M1.58569 45.2375H2.22752V52.9646L8.23049 45.2375H8.79681V54.0469H8.15498V46.3324L2.15201 54.0469H1.58569V45.2375ZM15.7461 49.4408C16.3418 49.5751 16.8074 49.831 17.143 50.2085C17.487 50.586 17.659 51.0433 17.659 51.5802C17.659 52.092 17.5038 52.5409 17.1934 52.9268C16.8829 53.3128 16.4718 53.6064 15.96 53.8078C15.4483 54.0091 14.8945 54.1098 14.2988 54.1098C13.7199 54.1098 13.1494 54.0091 12.5873 53.8078C12.0336 53.6064 11.5386 53.3086 11.1023 52.9142L11.3666 52.4612C11.7525 52.8219 12.193 53.0946 12.688 53.2792C13.1914 53.4554 13.7032 53.5435 14.2233 53.5435C14.7183 53.5435 15.1798 53.4638 15.6077 53.3044C16.0356 53.1366 16.3753 52.9017 16.627 52.5996C16.8787 52.2892 17.0046 51.9242 17.0046 51.5047C17.0046 50.9426 16.7864 50.5105 16.3502 50.2085C15.9139 49.8981 15.3014 49.7429 14.5128 49.7429H12.7006V49.1891H14.4876C15.1588 49.1891 15.6832 49.0465 16.0607 48.7612C16.4383 48.4676 16.627 48.0649 16.627 47.5531C16.627 46.9826 16.3879 46.5337 15.9097 46.2065C15.4399 45.8709 14.8526 45.7031 14.1478 45.7031C13.7199 45.7031 13.2879 45.766 12.8516 45.8919C12.4237 46.0177 12.0126 46.2107 11.6183 46.4708L11.3792 45.9296C11.8154 45.6612 12.2685 45.4598 12.7383 45.3256C13.2165 45.1913 13.6906 45.1242 14.1604 45.1242C14.7309 45.1242 15.2511 45.2207 15.7209 45.4137C16.1992 45.5982 16.5767 45.8709 16.8536 46.2317C17.1388 46.5841 17.2815 46.9994 17.2815 47.4776C17.2815 47.9558 17.143 48.3669 16.8662 48.7109C16.5977 49.0549 16.2243 49.2982 15.7461 49.4408ZM25.8625 45.8164H21.0551V54.0469H20.4133V45.2375H25.8625V45.8164ZM30.3273 54.1098C29.4632 54.1098 28.6829 53.9168 27.9865 53.5309C27.2902 53.1366 26.7406 52.5996 26.3379 51.92C25.9436 51.2405 25.7464 50.4812 25.7464 49.6422C25.7464 48.8032 25.9436 48.0439 26.3379 47.3643C26.7406 46.6847 27.2902 46.152 27.9865 45.766C28.6829 45.3717 29.4632 45.1746 30.3273 45.1746C31.1915 45.1746 31.9717 45.3675 32.6681 45.7535C33.3645 46.1394 33.9098 46.6722 34.3041 47.3517C34.7068 48.0313 34.9082 48.7948 34.9082 49.6422C34.9082 50.4896 34.7068 51.253 34.3041 51.9326C33.9098 52.6122 33.3645 53.145 32.6681 53.5309C31.9717 53.9168 31.1915 54.1098 30.3273 54.1098ZM30.3273 53.5183C31.0656 53.5183 31.7326 53.3505 32.3283 53.0149C32.924 52.6793 33.3938 52.2179 33.7378 51.6306C34.0818 51.0349 34.2538 50.3721 34.2538 49.6422C34.2538 48.9123 34.0818 48.2537 33.7378 47.6664C33.3938 47.0707 32.924 46.605 32.3283 46.2694C31.7326 45.9338 31.0656 45.766 30.3273 45.766C29.589 45.766 28.9178 45.9338 28.3137 46.2694C27.7181 46.605 27.2482 47.0707 26.9042 47.6664C26.5603 48.2537 26.3883 48.9123 26.3883 49.6422C26.3883 50.3721 26.5603 51.0349 26.9042 51.6306C27.2482 52.2179 27.7181 52.6793 28.3137 53.0149C28.9178 53.3505 29.589 53.5183 30.3273 53.5183ZM42.9345 45.8164H39.7631V54.0469H39.1213V45.8164H35.9499V45.2375H42.9345V45.8164ZM48.5527 54.1098C47.6886 54.1098 46.9083 53.9168 46.2119 53.5309C45.5156 53.1366 44.966 52.5996 44.5633 51.92C44.169 51.2405 43.9718 50.4812 43.9718 49.6422C43.9718 48.8032 44.169 48.0439 44.5633 47.3643C44.966 46.6847 45.5156 46.152 46.2119 45.766C46.9083 45.3717 47.6886 45.1746 48.5527 45.1746C49.4169 45.1746 50.1971 45.3675 50.8935 45.7535C51.5899 46.1394 52.1352 46.6722 52.5295 47.3517C52.9323 48.0313 53.1336 48.7948 53.1336 49.6422C53.1336 50.4896 52.9323 51.253 52.5295 51.9326C52.1352 52.6122 51.5899 53.145 50.8935 53.5309C50.1971 53.9168 49.4169 54.1098 48.5527 54.1098ZM48.5527 53.5183C49.291 53.5183 49.958 53.3505 50.5537 53.0149C51.1494 52.6793 51.6192 52.2179 51.9632 51.6306C52.3072 51.0349 52.4792 50.3721 52.4792 49.6422C52.4792 48.9123 52.3072 48.2537 51.9632 47.6664C51.6192 47.0707 51.1494 46.605 50.5537 46.2694C49.958 45.9338 49.291 45.766 48.5527 45.766C47.8144 45.766 47.1432 45.9338 46.5392 46.2694C45.9435 46.605 45.4736 47.0707 45.1296 47.6664C44.7857 48.2537 44.6137 48.9123 44.6137 49.6422C44.6137 50.3721 44.7857 51.0349 45.1296 51.6306C45.4736 52.2179 45.9435 52.6793 46.5392 53.0149C47.1432 53.3505 47.8144 53.5183 48.5527 53.5183ZM60.7165 49.5163C61.3709 49.6254 61.8617 49.8645 62.1889 50.2337C62.5245 50.6028 62.6923 51.0936 62.6923 51.7061C62.6923 52.4612 62.428 53.0401 61.8994 53.4428C61.3709 53.8455 60.5864 54.0469 59.5461 54.0469H55.758V45.2375H59.307C60.2299 45.2375 60.9472 45.4305 61.459 45.8164C61.9792 46.2023 62.2392 46.7561 62.2392 47.4776C62.2392 47.9894 62.105 48.4173 61.8365 48.7612C61.568 49.1052 61.1947 49.3569 60.7165 49.5163ZM56.3999 49.315H59.2944C60.0327 49.315 60.599 49.164 60.9933 48.8619C61.3877 48.5599 61.5848 48.1236 61.5848 47.5531C61.5848 46.9742 61.3877 46.5337 60.9933 46.2317C60.599 45.9296 60.0327 45.7786 59.2944 45.7786H56.3999V49.315ZM59.5587 53.5057C61.2199 53.5057 62.0505 52.8933 62.0505 51.6683C62.0505 51.0391 61.8407 50.5777 61.4212 50.284C61.0017 49.9904 60.3809 49.8435 59.5587 49.8435H56.3999V53.5057H59.5587ZM72.1058 45.2375V54.0469H71.4639V45.8164H66.9082L66.795 49.0507C66.7446 50.2588 66.6397 51.2321 66.4803 51.9704C66.3293 52.7003 66.1028 53.2414 65.8007 53.5938C65.4987 53.9462 65.1002 54.1224 64.6052 54.1224C64.3787 54.1224 64.1689 54.0972 63.9759 54.0469L64.0515 53.4554C64.1941 53.4889 64.3325 53.5057 64.4668 53.5057C64.8527 53.5057 65.1631 53.3589 65.398 53.0653C65.6413 52.7632 65.8259 52.2892 65.9518 51.6432C66.0776 50.9971 66.1615 50.1372 66.2035 49.0633L66.3293 45.2375H72.1058ZM81.6105 53.468V54.0469H75.532V45.2375H81.4217V45.8164H76.1738V49.2898H80.868V49.8561H76.1738V53.468H81.6105ZM91.179 45.2375V54.0469H90.5371V49.8561H84.6474V54.0469H84.0056V45.2375H84.6474V49.2898H90.5371V45.2375H91.179ZM94.6054 45.2375H95.2472V52.9646L101.25 45.2375H101.817V54.0469H101.175V46.3324L95.1717 54.0469H94.6054V45.2375ZM111.321 53.468V54.0469H105.242V45.2375H111.132V45.8164H105.884V49.2898H110.578V49.8561H105.884V53.468H111.321ZM124.448 45.2375V54.0469H123.807V45.8164H117.841V54.0469H117.2V45.2375H124.448ZM131.032 45.2375C132.139 45.2375 133.008 45.5018 133.637 46.0303C134.266 46.5505 134.581 47.2762 134.581 48.2075C134.581 49.1304 134.266 49.8561 133.637 50.3847C133.008 50.9049 132.139 51.1649 131.032 51.1649H128.515V54.0469H127.873V45.2375H131.032ZM131.032 50.586C131.972 50.586 132.689 50.3805 133.184 49.9694C133.679 49.5583 133.926 48.971 133.926 48.2075C133.926 47.444 133.679 46.8567 133.184 46.4456C132.689 46.0261 131.972 45.8164 131.032 45.8164H128.515V50.586H131.032ZM140.786 54.1098C139.922 54.1098 139.141 53.9168 138.445 53.5309C137.749 53.1366 137.199 52.5996 136.796 51.92C136.402 51.2405 136.205 50.4812 136.205 49.6422C136.205 48.8032 136.402 48.0439 136.796 47.3643C137.199 46.6847 137.749 46.152 138.445 45.766C139.141 45.3717 139.922 45.1746 140.786 45.1746C141.65 45.1746 142.43 45.3675 143.127 45.7535C143.823 46.1394 144.368 46.6722 144.763 47.3517C145.165 48.0313 145.367 48.7948 145.367 49.6422C145.367 50.4896 145.165 51.253 144.763 51.9326C144.368 52.6122 143.823 53.145 143.127 53.5309C142.43 53.9168 141.65 54.1098 140.786 54.1098ZM140.786 53.5183C141.524 53.5183 142.191 53.3505 142.787 53.0149C143.383 52.6793 143.852 52.2179 144.196 51.6306C144.54 51.0349 144.712 50.3721 144.712 49.6422C144.712 48.9123 144.54 48.2537 144.196 47.6664C143.852 47.0707 143.383 46.605 142.787 46.2694C142.191 45.9338 141.524 45.766 140.786 45.766C140.048 45.766 139.376 45.9338 138.772 46.2694C138.177 46.605 137.707 47.0707 137.363 47.6664C137.019 48.2537 136.847 48.9123 136.847 49.6422C136.847 50.3721 137.019 51.0349 137.363 51.6306C137.707 52.2179 138.177 52.6793 138.772 53.0149C139.376 53.3505 140.048 53.5183 140.786 53.5183ZM153.393 45.8164H150.222V54.0469H149.58V45.8164H146.408V45.2375H153.393V45.8164ZM161.437 53.468V54.0469H155.359V45.2375H161.248V45.8164H156.001V49.2898H160.695V49.8561H156.001V53.468H161.437ZM167.356 49.4408C167.952 49.5751 168.417 49.831 168.753 50.2085C169.097 50.586 169.269 51.0433 169.269 51.5802C169.269 52.092 169.114 52.5409 168.803 52.9268C168.493 53.3128 168.082 53.6064 167.57 53.8078C167.058 54.0091 166.505 54.1098 165.909 54.1098C165.33 54.1098 164.759 54.0091 164.197 53.8078C163.644 53.6064 163.149 53.3086 162.712 52.9142L162.977 52.4612C163.363 52.8219 163.803 53.0946 164.298 53.2792C164.801 53.4554 165.313 53.5435 165.833 53.5435C166.328 53.5435 166.79 53.4638 167.218 53.3044C167.646 53.1366 167.985 52.9017 168.237 52.5996C168.489 52.2892 168.615 51.9242 168.615 51.5047C168.615 50.9426 168.396 50.5105 167.96 50.2085C167.524 49.8981 166.911 49.7429 166.123 49.7429H164.311V49.1891H166.098C166.769 49.1891 167.293 49.0465 167.671 48.7612C168.048 48.4676 168.237 48.0649 168.237 47.5531C168.237 46.9826 167.998 46.5337 167.52 46.2065C167.05 45.8709 166.463 45.7031 165.758 45.7031C165.33 45.7031 164.898 45.766 164.462 45.8919C164.034 46.0177 163.623 46.2107 163.228 46.4708L162.989 45.9296C163.425 45.6612 163.879 45.4598 164.348 45.3256C164.827 45.1913 165.301 45.1242 165.77 45.1242C166.341 45.1242 166.861 45.2207 167.331 45.4137C167.809 45.5982 168.187 45.8709 168.464 46.2317C168.749 46.5841 168.891 46.9994 168.891 47.4776C168.891 47.9558 168.753 48.3669 168.476 48.7109C168.208 49.0549 167.834 49.2982 167.356 49.4408ZM175.799 54.1098C174.935 54.1098 174.154 53.9168 173.458 53.5309C172.762 53.1366 172.212 52.5996 171.809 51.92C171.415 51.2405 171.218 50.4812 171.218 49.6422C171.218 48.8032 171.415 48.0439 171.809 47.3643C172.212 46.6847 172.762 46.152 173.458 45.766C174.154 45.3717 174.935 45.1746 175.799 45.1746C176.663 45.1746 177.443 45.3675 178.14 45.7535C178.836 46.1394 179.381 46.6722 179.776 47.3517C180.178 48.0313 180.38 48.7948 180.38 49.6422C180.38 50.4896 180.178 51.253 179.776 51.9326C179.381 52.6122 178.836 53.145 178.14 53.5309C177.443 53.9168 176.663 54.1098 175.799 54.1098ZM175.799 53.5183C176.537 53.5183 177.204 53.3505 177.8 53.0149C178.395 52.6793 178.865 52.2179 179.209 51.6306C179.553 51.0349 179.725 50.3721 179.725 49.6422C179.725 48.9123 179.553 48.2537 179.209 47.6664C178.865 47.0707 178.395 46.605 177.8 46.2694C177.204 45.9338 176.537 45.766 175.799 45.766C175.06 45.766 174.389 45.9338 173.785 46.2694C173.19 46.605 172.72 47.0707 172.376 47.6664C172.032 48.2537 171.86 48.9123 171.86 49.6422C171.86 50.3721 172.032 51.0349 172.376 51.6306C172.72 52.2179 173.19 52.6793 173.785 53.0149C174.389 53.3505 175.06 53.5183 175.799 53.5183ZM187.963 49.5163C188.617 49.6254 189.108 49.8645 189.435 50.2337C189.771 50.6028 189.938 51.0936 189.938 51.7061C189.938 52.4612 189.674 53.0401 189.146 53.4428C188.617 53.8455 187.832 54.0469 186.792 54.0469H183.004V45.2375H186.553C187.476 45.2375 188.193 45.4305 188.705 45.8164C189.225 46.2023 189.485 46.7561 189.485 47.4776C189.485 47.9894 189.351 48.4173 189.083 48.7612C188.814 49.1052 188.441 49.3569 187.963 49.5163ZM183.646 49.315H186.54C187.279 49.315 187.845 49.164 188.239 48.8619C188.634 48.5599 188.831 48.1236 188.831 47.5531C188.831 46.9742 188.634 46.5337 188.239 46.2317C187.845 45.9296 187.279 45.7786 186.54 45.7786H183.646V49.315ZM186.805 53.5057C188.466 53.5057 189.297 52.8933 189.297 51.6683C189.297 51.0391 189.087 50.5777 188.667 50.284C188.248 49.9904 187.627 49.8435 186.805 49.8435H183.646V53.5057H186.805Z" fill="white"/>
<defs>
<linearGradient id="paint0_linear_24_3019" x1="99.0742" y1="0.0511245" x2="116.713" y2="34.6409" gradientUnits="userSpaceOnUse">
<stop offset="0.242929" stop-color="white"/>
<stop offset="1" stop-color="white"/>
</linearGradient>
</defs>
</svg>
