<svg width="214" height="62" viewBox="0 0 214 62" fill="none" xmlns="http://www.w3.org/2000/svg">
<path fill-rule="evenodd" clip-rule="evenodd" d="M131.965 0.350098C132.527 0.350098 133.089 0.361167 133.645 0.372127C134.191 0.382875 134.731 0.393518 135.261 0.393518C135.903 0.393518 136.203 0.610621 136.246 1.17509C136.246 1.34877 136.203 1.56587 136.16 1.73956L134.362 7.86186C134.148 8.64343 133.934 8.77369 133.121 8.77369H120.449H119.892C119.657 9.55526 119.432 10.3368 119.207 11.1184L119.207 11.1185L119.207 11.1185L119.207 11.1186L119.207 11.1186L119.207 11.1187L119.207 11.1188L119.207 11.1188C118.982 11.9003 118.758 12.6817 118.522 13.4631C117.281 17.6536 116.05 21.844 114.819 26.0345C113.588 30.2242 112.358 34.4139 111.116 38.6036C110.945 39.2115 110.688 39.4286 110.003 39.4286H103.881C102.982 39.4286 102.725 38.951 102.982 37.9958C103.731 35.479 104.469 32.9623 105.207 30.4456L105.208 30.4406L105.21 30.4356C105.948 27.9188 106.686 25.4021 107.435 22.8854C108.098 20.6057 108.772 18.337 109.447 16.0682L109.447 16.0679C110.121 13.7993 110.795 11.5307 111.459 9.25132C111.502 9.12115 111.544 8.94762 111.587 8.77407L111.587 8.77369C111.544 8.77369 111.512 8.76284 111.48 8.75198C111.448 8.74113 111.416 8.73027 111.373 8.73027H103.624H103.624C101.998 8.73027 100.414 8.73027 98.7869 8.68685C98.1448 8.68685 97.8023 8.20923 97.9735 7.60134L99.9 1.08825C100.028 0.567201 100.371 0.393518 100.885 0.393518C101.233 0.393518 101.581 0.38231 101.923 0.371283C102.255 0.360605 102.581 0.350098 102.897 0.350098H103.753C103.839 0.350098 103.935 0.360953 104.031 0.371808C104.127 0.382663 104.224 0.393518 104.309 0.393518H104.468C104.386 0.39256 104.294 0.38222 104.202 0.37188C104.106 0.361025 104.009 0.350169 103.924 0.350169H131.225L131.237 0.350098H131.965ZM51.4388 39.4282H64.1962C68.3488 39.4282 72.4586 39.4282 76.6112 39.3413H76.6112C77.1677 39.3413 77.7243 39.3413 78.2808 39.2545C82.6902 38.5598 86.3719 36.6058 89.0689 32.9151C91.2522 29.9625 92.4937 26.6191 92.1512 22.8415C91.9372 20.8007 91.081 19.1073 89.497 17.8047C87.699 16.3284 85.6013 15.6771 83.3324 15.6771H68.306C67.9635 15.6771 67.621 15.6771 67.2786 15.6337C66.3796 15.5469 65.823 14.939 65.7374 14.0706C65.4805 11.2916 67.8351 8.72982 70.6178 8.72982H92.7078H93.2215C93.6068 8.6864 93.8636 8.51272 93.9921 8.07851C94.3131 6.993 94.6342 5.89663 94.9553 4.80026L94.9553 4.80019C95.2764 3.70384 95.5974 2.60749 95.9185 1.522C96.0898 0.827272 95.8329 0.479907 95.1479 0.393066H94.6342H72.9723C71.3027 0.393066 69.6759 0.65359 68.092 1.21806C61.7561 3.56277 58.0744 8.16535 57.2182 14.939C56.7045 18.8902 58.8878 22.6244 63.0832 23.6665C64.1534 23.927 65.2665 24.1007 66.3796 24.1007C70.1361 24.1658 73.8927 24.1577 77.6492 24.1496C78.9015 24.1468 80.1537 24.1441 81.4059 24.1441C82.9471 24.1441 83.7176 24.9257 83.632 26.3152C83.5036 28.573 81.7056 31.1783 78.6232 31.1348C72.361 31.0697 66.0746 31.0779 59.8003 31.086C57.7106 31.0887 55.6222 31.0914 53.5365 31.0914H53.1512C52.6803 31.0914 52.3807 31.3085 52.2522 31.7862C51.9526 32.85 51.6422 33.9029 51.3318 34.9559L51.3316 34.9567L51.3313 34.9576L51.3311 34.9585L51.3308 34.9593L51.3306 34.9602L51.3303 34.9611C51.0204 36.0123 50.7106 37.0635 50.4114 38.1256C50.4 38.1835 50.3855 38.2415 50.3712 38.2986C50.332 38.4555 50.2944 38.6061 50.3258 38.7335C50.4114 39.2545 50.7111 39.4282 51.4388 39.4282ZM194.467 8.7306H187.147C185.392 8.7306 184.535 9.38191 184.022 11.0753C183.379 13.2898 182.737 15.4608 182.052 17.6752C181.495 19.5789 180.929 21.4826 180.363 23.3898L180.362 23.3922L180.361 23.3958C179.623 25.8803 178.883 28.3707 178.157 30.8751C177.429 33.3935 176.701 35.9119 175.973 38.4737C175.759 39.2553 175.502 39.429 174.732 39.429H168.91C167.882 39.429 167.54 38.9948 167.839 38.0395L167.841 38.035C170.537 28.7879 173.234 19.5408 176.016 10.3372C177.643 4.99643 181.367 1.87015 186.719 0.69779C187.575 0.524108 188.431 0.437267 189.287 0.437267C192.569 0.40832 195.851 0.417969 199.134 0.427618C200.775 0.432442 202.416 0.437267 204.057 0.437267C205.469 0.437267 206.839 0.610949 208.166 1.08858C211.163 2.17409 212.961 4.3017 213.689 7.38456C214.117 9.29507 214.117 11.249 213.603 13.1161C213.524 13.4052 213.445 13.6958 213.365 13.9874L213.365 13.9875C212.849 15.8855 212.322 17.8226 211.506 19.6292C209.066 25.1002 204.742 28.4001 199.005 29.7896C197.764 30.0935 196.479 30.1804 195.195 30.1804C192.598 30.2093 190.001 30.1997 187.404 30.19C186.105 30.1852 184.806 30.1804 183.508 30.1804C182.438 30.1804 182.138 29.7896 182.438 28.7475C182.737 27.7273 183.037 26.6962 183.337 25.6652L183.337 25.6646L183.341 25.6492L183.341 25.6489L183.341 25.6486L183.341 25.6483C183.64 24.6225 183.938 23.5968 184.236 22.5818C184.407 22.0173 184.621 21.8002 185.22 21.8002C186.612 21.8002 187.992 21.8111 189.373 21.8219C190.754 21.8328 192.134 21.8436 193.525 21.8436C193.868 21.8436 194.211 21.8471 194.553 21.8506H194.553H194.553H194.554C195.922 21.8645 197.285 21.8783 198.62 21.6699C201.403 21.2357 203.286 19.5423 204.228 16.8068C204.613 15.6345 204.999 14.4187 205.213 13.2029C205.341 12.4214 205.298 11.5529 205.17 10.7714C204.956 9.68585 203.971 8.90428 202.858 8.77402C202.344 8.7306 201.831 8.68718 201.36 8.68718C199.091 8.7306 196.779 8.7306 194.467 8.7306ZM36.1559 8.72107C35.3282 8.7259 34.5006 8.73072 33.6729 8.73072H26.1811C23.741 8.73072 21.6861 10.2504 21.0011 12.6386C20.3162 15.005 19.6205 17.3605 18.9249 19.716C18.2292 22.0716 17.5335 24.4272 16.8485 26.7937C16.292 28.7259 15.7248 30.6473 15.1575 32.5686C14.5903 34.49 14.0231 36.4114 13.4665 38.3436C13.2525 39.0817 13.5094 39.3857 14.1943 39.3857H20.4018C20.8727 39.3857 21.0867 39.1686 21.2152 38.7344C21.6861 36.9975 22.1998 35.2607 22.7135 33.5239C24.3403 28.0529 25.9671 22.5819 27.5511 17.1109C27.6795 16.7635 27.8079 16.6767 28.1504 16.6767H38.7673C39.1098 16.6767 39.4523 16.6767 39.7947 16.7201C41.2503 16.8938 42.2777 17.8925 42.5774 19.3253C42.7486 20.2372 42.5774 21.0622 42.3205 21.9306C41.5286 24.666 40.7259 27.3906 39.9232 30.1151L39.9231 30.1155C39.1205 32.8401 38.3178 35.5647 37.5258 38.3001C37.2689 39.0817 37.483 39.3422 38.2964 39.3422H44.2898C44.9319 39.3422 45.1032 39.212 45.2744 38.6041C45.551 37.6096 45.8423 36.6151 46.131 35.6295L46.1313 35.6285L46.1331 35.6224L46.1331 35.6224L46.1331 35.6223C46.3353 34.932 46.5363 34.246 46.73 33.5673C47.2431 31.8325 47.7562 30.087 48.2693 28.3414L48.2709 28.336L48.2711 28.3351C48.7849 26.5874 49.2986 24.8398 49.8123 23.1029L49.8434 22.9924L49.8434 22.9924C50.3466 21.2072 50.8389 19.4604 50.7969 17.5885C50.7541 15.3307 50.112 13.2899 48.4852 11.6399C46.4303 9.59914 43.9045 8.77414 41.1218 8.73072C39.4666 8.70178 37.8113 8.71143 36.156 8.72107H36.1559ZM15.0076 0.393066H17.9615C18.9889 0.393066 19.2886 0.783852 18.9889 1.78253C17.4052 7.18774 15.8214 12.5821 14.2376 17.9765L14.237 17.9786C12.653 23.3735 11.0691 28.7685 9.48511 34.1743L8.2008 38.6032C8.02956 39.2545 7.7727 39.4282 7.13055 39.4282H0.965902C0.152511 39.4282 -0.14716 38.994 0.0668907 38.2124C0.773234 35.8244 1.47958 33.4254 2.18592 31.0265C2.89231 28.6275 3.5987 26.2284 4.30509 23.8402C6.04836 17.7225 7.82002 11.6335 9.59695 5.52651L9.59704 5.5262C10.0019 4.1347 10.4071 2.74226 10.8122 1.34832C11.0691 0.523328 11.2403 0.393066 12.0537 0.393066H15.0076ZM138.772 5.85515C138.486 6.80075 138.201 7.74636 137.916 8.73057C138.172 8.73057 138.386 8.73057 138.515 8.68714H169.681H172.249C172.72 8.68714 173.02 8.55688 173.148 8.07926C173.833 5.86481 174.475 3.69378 175.117 1.47932C175.289 0.871436 174.989 0.480651 174.39 0.39381H173.962C170.68 0.39381 167.397 0.388985 164.115 0.384161C157.551 0.374512 150.987 0.364863 144.423 0.39381C143.781 0.39381 143.053 0.524071 142.453 0.784595C140.827 1.47932 139.714 2.6951 139.2 4.43193C139.057 4.90955 138.914 5.38235 138.772 5.85515ZM130.456 22.5584L130.457 22.5555L130.457 22.5552C130.717 21.6334 130.97 20.7304 131.28 19.8461C131.494 19.1514 131.836 18.5001 132.264 17.8922C133.292 16.4593 134.747 15.7212 136.503 15.7212H166.17C167.155 15.7212 167.454 16.112 167.155 17.0672C166.856 18.0828 166.558 19.0877 166.26 20.0925L166.256 20.1067C165.956 21.1162 165.656 22.1258 165.357 23.1461C165.143 23.9277 164.971 24.0579 164.158 24.0579H130.552C130.424 24.0145 130.252 24.0145 130.038 24.0145C130.185 23.524 130.321 23.0387 130.456 22.5584ZM123.533 37.7565C123.365 38.3376 123.195 38.9231 123.018 39.516H123.703H143.652H157.266C157.993 39.516 158.165 39.3423 158.379 38.6476C158.678 37.6055 158.978 36.5742 159.278 35.543C159.577 34.5118 159.877 33.4805 160.177 32.4384C160.434 31.6134 160.177 31.2226 159.278 31.1792H158.892H129.739C127.085 31.1792 125.03 32.7424 124.259 35.3042C124.008 36.1187 123.772 36.9332 123.533 37.7565Z" fill="#3E4D86"/>
<path d="M1.53394 50.3448H2.48294V57.8848L8.30694 50.3448H9.17794V59.4448H8.22894V51.9178L2.40494 59.4448H1.53394V50.3448Z" fill="#3D4E81"/>
<path d="M16.8508 54.6868C17.4488 54.8342 17.9168 55.1028 18.2548 55.4928C18.6014 55.8828 18.7748 56.3508 18.7748 56.8968C18.7748 57.4255 18.6101 57.8892 18.2808 58.2878C17.9514 58.6865 17.5138 58.9942 16.9678 59.2108C16.4218 59.4188 15.8281 59.5228 15.1868 59.5228C14.5801 59.5228 13.9821 59.4275 13.3928 59.2368C12.8121 59.0375 12.2878 58.7428 11.8198 58.3528L12.1708 57.6638C12.5694 58.0018 13.0244 58.2618 13.5358 58.4438C14.0471 58.6172 14.5628 58.7038 15.0828 58.7038C15.5768 58.7038 16.0318 58.6258 16.4478 58.4698C16.8638 58.3138 17.1931 58.0928 17.4358 57.8068C17.6871 57.5122 17.8128 57.1655 17.8128 56.7668C17.8128 56.2382 17.6048 55.8308 17.1888 55.5448C16.7728 55.2588 16.1878 55.1158 15.4338 55.1158H13.4838V54.3358H15.3818C16.0231 54.3358 16.5214 54.2015 16.8768 53.9328C17.2408 53.6555 17.4228 53.2742 17.4228 52.7888C17.4228 52.2515 17.1931 51.8312 16.7338 51.5278C16.2744 51.2158 15.6981 51.0598 15.0048 51.0598C14.5714 51.0598 14.1338 51.1248 13.6918 51.2548C13.2498 51.3762 12.8294 51.5625 12.4308 51.8138L12.1058 51.0208C13.0071 50.4835 13.9821 50.2148 15.0308 50.2148C15.6461 50.2148 16.2094 50.3145 16.7208 50.5138C17.2321 50.7132 17.6351 50.9992 17.9298 51.3718C18.2331 51.7445 18.3848 52.1822 18.3848 52.6848C18.3848 53.1702 18.2504 53.5905 17.9818 53.9458C17.7131 54.2925 17.3361 54.5395 16.8508 54.6868Z" fill="#3D4E81"/>
<path d="M27.5984 51.1768H22.7494L22.7624 59.4448H21.8134V50.3448H27.5984V51.1768Z" fill="#3D4E81"/>
<path d="M32.6624 59.5228C31.7611 59.5228 30.9421 59.3235 30.2054 58.9248C29.4774 58.5175 28.9054 57.9628 28.4894 57.2608C28.0821 56.5588 27.8784 55.7702 27.8784 54.8948C27.8784 54.0195 28.0821 53.2308 28.4894 52.5288C28.9054 51.8268 29.4774 51.2765 30.2054 50.8778C30.9421 50.4705 31.7611 50.2668 32.6624 50.2668C33.5638 50.2668 34.3741 50.4662 35.0934 50.8648C35.8214 51.2635 36.3934 51.8182 36.8094 52.5288C37.2254 53.2308 37.4334 54.0195 37.4334 54.8948C37.4334 55.7702 37.2254 56.5632 36.8094 57.2738C36.3934 57.9758 35.8214 58.5262 35.0934 58.9248C34.3741 59.3235 33.5638 59.5228 32.6624 59.5228ZM32.6624 58.6648C33.3818 58.6648 34.0318 58.5045 34.6124 58.1838C35.1931 57.8545 35.6481 57.4038 35.9774 56.8318C36.3068 56.2512 36.4714 55.6055 36.4714 54.8948C36.4714 54.1842 36.3068 53.5428 35.9774 52.9708C35.6481 52.3902 35.1931 51.9395 34.6124 51.6188C34.0318 51.2895 33.3818 51.1248 32.6624 51.1248C31.9431 51.1248 31.2888 51.2895 30.6994 51.6188C30.1188 51.9395 29.6594 52.3902 29.3214 52.9708C28.9921 53.5428 28.8274 54.1842 28.8274 54.8948C28.8274 55.6055 28.9921 56.2512 29.3214 56.8318C29.6594 57.4038 30.1188 57.8545 30.6994 58.1838C31.2888 58.5045 31.9431 58.6648 32.6624 58.6648Z" fill="#3D4E81"/>
<path d="M46.2061 51.1768H43.0081V59.4448H42.0591V51.1768H38.8611V50.3448H46.2061V51.1768Z" fill="#3D4E81"/>
<path d="M52.4087 59.5228C51.5074 59.5228 50.6884 59.3235 49.9517 58.9248C49.2237 58.5175 48.6517 57.9628 48.2357 57.2608C47.8284 56.5588 47.6247 55.7702 47.6247 54.8948C47.6247 54.0195 47.8284 53.2308 48.2357 52.5288C48.6517 51.8268 49.2237 51.2765 49.9517 50.8778C50.6884 50.4705 51.5074 50.2668 52.4087 50.2668C53.3101 50.2668 54.1204 50.4662 54.8397 50.8648C55.5677 51.2635 56.1397 51.8182 56.5557 52.5288C56.9717 53.2308 57.1797 54.0195 57.1797 54.8948C57.1797 55.7702 56.9717 56.5632 56.5557 57.2738C56.1397 57.9758 55.5677 58.5262 54.8397 58.9248C54.1204 59.3235 53.3101 59.5228 52.4087 59.5228ZM52.4087 58.6648C53.1281 58.6648 53.7781 58.5045 54.3587 58.1838C54.9394 57.8545 55.3944 57.4038 55.7237 56.8318C56.0531 56.2512 56.2177 55.6055 56.2177 54.8948C56.2177 54.1842 56.0531 53.5428 55.7237 52.9708C55.3944 52.3902 54.9394 51.9395 54.3587 51.6188C53.7781 51.2895 53.1281 51.1248 52.4087 51.1248C51.6894 51.1248 51.0351 51.2895 50.4457 51.6188C49.8651 51.9395 49.4057 52.3902 49.0677 52.9708C48.7384 53.5428 48.5737 54.1842 48.5737 54.8948C48.5737 55.6055 48.7384 56.2512 49.0677 56.8318C49.4057 57.4038 49.8651 57.8545 50.4457 58.1838C51.0351 58.5045 51.6894 58.6648 52.4087 58.6648Z" fill="#3D4E81"/>
<path d="M65.5203 54.7518C66.153 54.8818 66.634 55.1375 66.9633 55.5188C67.2927 55.8915 67.4573 56.3812 67.4573 56.9878C67.4573 57.7765 67.1757 58.3832 66.6123 58.8078C66.0577 59.2325 65.2387 59.4448 64.1553 59.4448H60.1253V50.3448H63.9083C64.879 50.3448 65.6373 50.5442 66.1833 50.9428C66.7293 51.3415 67.0023 51.9178 67.0023 52.6718C67.0023 53.1832 66.8723 53.6165 66.6123 53.9718C66.3523 54.3185 65.9883 54.5785 65.5203 54.7518ZM61.0743 54.4658H63.8563C64.5583 54.4658 65.0957 54.3228 65.4683 54.0368C65.8497 53.7508 66.0403 53.3348 66.0403 52.7888C66.0403 52.2428 65.8497 51.8268 65.4683 51.5408C65.0957 51.2548 64.5583 51.1118 63.8563 51.1118H61.0743V54.4658ZM64.1553 58.6778C65.724 58.6778 66.5083 58.0928 66.5083 56.9228C66.5083 55.7788 65.724 55.2068 64.1553 55.2068H61.0743V58.6778H64.1553Z" fill="#3D4E81"/>
<path d="M77.6497 50.3448V59.4448H76.7007V51.1768H72.3066L72.2027 54.2188C72.1593 55.4755 72.0553 56.4895 71.8906 57.2608C71.7346 58.0235 71.492 58.5955 71.1627 58.9768C70.8333 59.3495 70.3956 59.5358 69.8496 59.5358C69.6156 59.5358 69.373 59.5055 69.1217 59.4448L69.1996 58.5868C69.347 58.6215 69.49 58.6388 69.6286 58.6388C70.01 58.6388 70.3176 58.4872 70.5517 58.1838C70.7943 57.8805 70.9763 57.4125 71.0976 56.7798C71.219 56.1385 71.3013 55.2935 71.3447 54.2448L71.4746 50.3448H77.6497Z" fill="#3D4E81"/>
<path d="M87.8047 58.6128V59.4448H81.3697V50.3448H87.6097V51.1768H82.3317V54.4138H87.0377V55.2328H82.3317V58.6128H87.8047Z" fill="#3D4E81"/>
<path d="M98.194 50.3448V59.4448H97.245V55.2458H91.551V59.4448H90.589V50.3448H91.551V54.4008H97.245V50.3448H98.194Z" fill="#3D4E81"/>
<path d="M101.916 50.3448H102.865V57.8848L108.689 50.3448H109.56V59.4448H108.611V51.9178L102.787 59.4448H101.916V50.3448Z" fill="#3D4E81"/>
<path d="M119.716 58.6128V59.4448H113.281V50.3448H119.521V51.1768H114.243V54.4138H118.949V55.2328H114.243V58.6128H119.716Z" fill="#3D4E81"/>
<path d="M134.209 50.3448V59.4448H133.26V51.1768H127.501V59.4448H126.552V50.3448H134.209Z" fill="#3D4E81"/>
<path d="M141.336 50.3448C142.497 50.3448 143.407 50.6222 144.066 51.1768C144.725 51.7315 145.054 52.4942 145.054 53.4648C145.054 54.4355 144.725 55.1982 144.066 55.7528C143.407 56.2988 142.497 56.5718 141.336 56.5718H138.892V59.4448H137.93V50.3448H141.336ZM141.31 55.7268C142.211 55.7268 142.9 55.5318 143.377 55.1418C143.854 54.7432 144.092 54.1842 144.092 53.4648C144.092 52.7282 143.854 52.1648 143.377 51.7748C142.9 51.3762 142.211 51.1768 141.31 51.1768H138.892V55.7268H141.31Z" fill="#3D4E81"/>
<path d="M151.8 59.5228C150.899 59.5228 150.08 59.3235 149.343 58.9248C148.615 58.5175 148.043 57.9628 147.627 57.2608C147.22 56.5588 147.016 55.7702 147.016 54.8948C147.016 54.0195 147.22 53.2308 147.627 52.5288C148.043 51.8268 148.615 51.2765 149.343 50.8778C150.08 50.4705 150.899 50.2668 151.8 50.2668C152.702 50.2668 153.512 50.4662 154.231 50.8648C154.959 51.2635 155.531 51.8182 155.947 52.5288C156.363 53.2308 156.571 54.0195 156.571 54.8948C156.571 55.7702 156.363 56.5632 155.947 57.2738C155.531 57.9758 154.959 58.5262 154.231 58.9248C153.512 59.3235 152.702 59.5228 151.8 59.5228ZM151.8 58.6648C152.52 58.6648 153.17 58.5045 153.75 58.1838C154.331 57.8545 154.786 57.4038 155.115 56.8318C155.445 56.2512 155.609 55.6055 155.609 54.8948C155.609 54.1842 155.445 53.5428 155.115 52.9708C154.786 52.3902 154.331 51.9395 153.75 51.6188C153.17 51.2895 152.52 51.1248 151.8 51.1248C151.081 51.1248 150.427 51.2895 149.837 51.6188C149.257 51.9395 148.797 52.3902 148.459 52.9708C148.13 53.5428 147.965 54.1842 147.965 54.8948C147.965 55.6055 148.13 56.2512 148.459 56.8318C148.797 57.4038 149.257 57.8545 149.837 58.1838C150.427 58.5045 151.081 58.6648 151.8 58.6648Z" fill="#3D4E81"/>
<path d="M165.344 51.1768H162.146V59.4448H161.197V51.1768H157.999V50.3448H165.344V51.1768Z" fill="#3D4E81"/>
<path d="M174.118 58.6128V59.4448H167.683V50.3448H173.923V51.1768H168.645V54.4138H173.351V55.2328H168.645V58.6128H174.118Z" fill="#3D4E81"/>
<path d="M180.854 54.6868C181.452 54.8342 181.92 55.1028 182.258 55.4928C182.605 55.8828 182.778 56.3508 182.778 56.8968C182.778 57.4255 182.613 57.8892 182.284 58.2878C181.955 58.6865 181.517 58.9942 180.971 59.2108C180.425 59.4188 179.831 59.5228 179.19 59.5228C178.583 59.5228 177.985 59.4275 177.396 59.2368C176.815 59.0375 176.291 58.7428 175.823 58.3528L176.174 57.6638C176.573 58.0018 177.028 58.2618 177.539 58.4438C178.05 58.6172 178.566 58.7038 179.086 58.7038C179.58 58.7038 180.035 58.6258 180.451 58.4698C180.867 58.3138 181.196 58.0928 181.439 57.8068C181.69 57.5122 181.816 57.1655 181.816 56.7668C181.816 56.2382 181.608 55.8308 181.192 55.5448C180.776 55.2588 180.191 55.1158 179.437 55.1158H177.487V54.3358H179.385C180.026 54.3358 180.525 54.2015 180.88 53.9328C181.244 53.6555 181.426 53.2742 181.426 52.7888C181.426 52.2515 181.196 51.8312 180.737 51.5278C180.278 51.2158 179.701 51.0598 179.008 51.0598C178.575 51.0598 178.137 51.1248 177.695 51.2548C177.253 51.3762 176.833 51.5625 176.434 51.8138L176.109 51.0208C177.01 50.4835 177.985 50.2148 179.034 50.2148C179.649 50.2148 180.213 50.3145 180.724 50.5138C181.235 50.7132 181.638 50.9992 181.933 51.3718C182.236 51.7445 182.388 52.1822 182.388 52.6848C182.388 53.1702 182.254 53.5905 181.985 53.9458C181.716 54.2925 181.339 54.5395 180.854 54.6868Z" fill="#3D4E81"/>
<path d="M189.808 59.5228C188.906 59.5228 188.087 59.3235 187.351 58.9248C186.623 58.5175 186.051 57.9628 185.635 57.2608C185.227 56.5588 185.024 55.7702 185.024 54.8948C185.024 54.0195 185.227 53.2308 185.635 52.5288C186.051 51.8268 186.623 51.2765 187.351 50.8778C188.087 50.4705 188.906 50.2668 189.808 50.2668C190.709 50.2668 191.519 50.4662 192.239 50.8648C192.967 51.2635 193.539 51.8182 193.955 52.5288C194.371 53.2308 194.579 54.0195 194.579 54.8948C194.579 55.7702 194.371 56.5632 193.955 57.2738C193.539 57.9758 192.967 58.5262 192.239 58.9248C191.519 59.3235 190.709 59.5228 189.808 59.5228ZM189.808 58.6648C190.527 58.6648 191.177 58.5045 191.758 58.1838C192.338 57.8545 192.793 57.4038 193.123 56.8318C193.452 56.2512 193.617 55.6055 193.617 54.8948C193.617 54.1842 193.452 53.5428 193.123 52.9708C192.793 52.3902 192.338 51.9395 191.758 51.6188C191.177 51.2895 190.527 51.1248 189.808 51.1248C189.088 51.1248 188.434 51.2895 187.845 51.6188C187.264 51.9395 186.805 52.3902 186.467 52.9708C186.137 53.5428 185.973 54.1842 185.973 54.8948C185.973 55.6055 186.137 56.2512 186.467 56.8318C186.805 57.4038 187.264 57.8545 187.845 58.1838C188.434 58.5045 189.088 58.6648 189.808 58.6648Z" fill="#3D4E81"/>
<path d="M202.919 54.7518C203.552 54.8818 204.033 55.1375 204.362 55.5188C204.691 55.8915 204.856 56.3812 204.856 56.9878C204.856 57.7765 204.575 58.3832 204.011 58.8078C203.456 59.2325 202.637 59.4448 201.554 59.4448H197.524V50.3448H201.307C202.278 50.3448 203.036 50.5442 203.582 50.9428C204.128 51.3415 204.401 51.9178 204.401 52.6718C204.401 53.1832 204.271 53.6165 204.011 53.9718C203.751 54.3185 203.387 54.5785 202.919 54.7518ZM198.473 54.4658H201.255C201.957 54.4658 202.495 54.3228 202.867 54.0368C203.249 53.7508 203.439 53.3348 203.439 52.7888C203.439 52.2428 203.249 51.8268 202.867 51.5408C202.495 51.2548 201.957 51.1118 201.255 51.1118H198.473V54.4658ZM201.554 58.6778C203.123 58.6778 203.907 58.0928 203.907 56.9228C203.907 55.7788 203.123 55.2068 201.554 55.2068H198.473V58.6778H201.554Z" fill="#3D4E81"/>
</svg>
