<svg width="34" height="34" viewBox="0 0 34 34" fill="none" xmlns="http://www.w3.org/2000/svg">
<path d="M26.9128 28.3332C14.8272 28.3502 5.65426 19.0682 5.66701 7.08742C5.66701 6.304 6.30167 5.6665 7.08367 5.6665H10.8237C11.5249 5.6665 12.1213 6.18217 12.2248 6.87634C12.4714 8.541 12.9556 10.1617 13.6627 11.6888L13.8086 12.0033C13.9066 12.2149 13.9277 12.4541 13.8682 12.6796C13.8087 12.9051 13.6724 13.1028 13.4828 13.2386C12.3239 14.0659 11.8819 15.7305 12.7843 17.0282C13.9205 18.6621 15.3385 20.0806 16.972 21.2173C18.2711 22.1183 19.9357 21.6763 20.7616 20.5188C20.8972 20.3286 21.0951 20.1918 21.3209 20.132C21.5468 20.0723 21.7864 20.0933 21.9983 20.1916L22.3114 20.3361C23.8386 21.0444 25.4593 21.5289 27.1238 21.7754C27.818 21.8788 28.3337 22.4753 28.3337 23.1779V26.9165C28.3337 27.1027 28.297 27.287 28.2257 27.459C28.1544 27.6309 28.0499 27.7872 27.9182 27.9187C27.7865 28.0503 27.6302 28.1546 27.4582 28.2257C27.2861 28.2969 27.1017 28.3334 26.9156 28.3332H26.9128Z" fill="#3E4D86"/>
</svg>
