<svg width="15" height="17" viewBox="0 0 15 17" fill="none" xmlns="http://www.w3.org/2000/svg">
<path fill-rule="evenodd" clip-rule="evenodd" d="M7.03369 0.922693C7.28425 1.71293 7.07437 2.08449 6.22524 2.35432C5.59456 2.55456 4.81343 2.45337 4.48952 2.12946C4.16615 1.80608 3.52796 1.54481 3.07127 1.5491C2.46629 1.55499 2.42024 1.67117 2.90102 1.97634C3.72337 2.49888 3.37591 4.49855 2.27033 5.60413C1.81258 6.06189 1.43834 6.21822 1.43834 5.9516C1.43834 5.68498 1.04483 5.46707 0.564582 5.46707C-0.204771 5.46707 -0.195666 5.55059 0.640076 6.16201C1.16261 6.54374 1.85701 6.96991 2.1836 7.10911C2.53803 7.25955 2.29175 7.78745 1.57219 8.41867C-0.0559311 9.84762 0.0468633 10.1073 2.24142 10.1073C3.74319 10.1073 4.11528 10.315 4.11528 11.1529C4.11528 13.0616 5.2926 14.9643 6.27986 14.6506C6.90358 14.453 7.2896 14.7234 7.49305 15.5003C7.67562 16.1995 8.03379 16.4897 8.41927 16.2514C8.88667 15.9628 8.8615 15.7364 8.32183 15.3718C7.83837 15.0452 8.1912 14.9649 9.37708 15.1314C10.7113 15.3182 11.0903 15.2015 10.8853 14.6672C10.7182 14.2325 11.1208 13.825 11.9143 13.6264C12.6306 13.4465 13.2169 12.962 13.2169 12.5497C13.2169 12.1375 13.6382 11.0453 14.1538 10.1223C15.0784 8.46632 15.0731 8.42938 13.7523 7.32433C12.8769 6.59139 12.6451 6.12292 13.083 5.9698C13.4514 5.84077 13.7523 5.37927 13.7523 4.94507C13.7523 4.51033 13.9932 4.30367 14.2877 4.4857C14.5821 4.66774 14.8231 4.49909 14.8231 4.11093C14.8231 3.72224 14.3412 3.10387 13.7523 2.73605C13.1634 2.36824 12.6815 1.70811 12.6815 1.26909C12.6815 0.829536 12.5005 0.453157 12.28 0.432813C12.0594 0.411932 10.7123 0.273266 9.2866 0.124964C6.88592 -0.125063 6.71995 -0.0661702 7.03369 0.922693ZM8.64306 3.11029C8.81278 3.38441 8.70624 3.75972 8.40696 3.94496C8.10768 4.12967 7.863 3.90534 7.863 3.44652C7.863 2.50584 8.18424 2.36771 8.64306 3.11029ZM5.72145 4.21801C5.72145 4.51247 5.61544 4.7534 5.48534 4.7534C5.35525 4.7534 5.1004 4.51247 4.91836 4.21801C4.73633 3.92355 4.84287 3.68262 5.15447 3.68262C5.46606 3.68262 5.72145 3.92355 5.72145 4.21801ZM7.08187 5.78831C6.88806 6.10258 6.4726 6.35957 6.15993 6.35957C5.80443 6.35957 5.84512 6.05225 6.26755 5.54363C7.0021 4.65864 7.65795 4.85619 7.08187 5.78831ZM11.2493 7.73551C11.0866 8.55359 10.1491 8.57875 9.83966 7.77353C9.64531 7.26598 9.85197 7.04593 10.443 7.13267C10.9383 7.20548 11.3007 7.47692 11.2493 7.73551ZM11.4656 10.9661C11.2879 11.1438 10.8258 11.1631 10.4398 11.0083C10.0126 10.8376 10.1395 10.7107 10.7632 10.685C11.3275 10.6619 11.6434 10.7883 11.4656 10.9661Z" fill="#FBB307"/>
</svg>
