<svg width="32" height="20" viewBox="0 0 32 20" fill="none" xmlns="http://www.w3.org/2000/svg">
<g opacity="0.5">
<path d="M20.0788 2.08984H11.5317V17.4475H20.0788V2.08984Z" fill="#C7C7C7"/>
<path d="M12.0744 9.76809C12.0744 6.64773 13.5397 3.8801 15.7917 2.08929C14.1366 0.786874 12.0473 0 9.76809 0C4.36851 0 0 4.36851 0 9.76809C0 15.1677 4.36851 19.5362 9.76809 19.5362C12.0473 19.5362 14.1366 18.7493 15.7917 17.4469C13.5397 15.6832 12.0744 12.8885 12.0744 9.76809Z" fill="white"/>
<path d="M31.6106 9.76809C31.6106 15.1677 27.2421 19.5362 21.8425 19.5362C19.5633 19.5362 17.474 18.7493 15.8188 17.4469C18.0981 15.6561 19.5361 12.8885 19.5361 9.76809C19.5361 6.64773 18.0709 3.8801 15.8188 2.08929C17.474 0.786874 19.5633 0 21.8425 0C27.2421 0 31.6106 4.39564 31.6106 9.76809Z" fill="#E7E7E7"/>
</g>
</svg>
