<svg width="38" height="24" viewBox="0 0 38 24" fill="none" xmlns="http://www.w3.org/2000/svg">
<path d="M24.2646 3.00391H14.342V20.8331H24.2646V3.00391Z" fill="#FF5F00"/>
<path d="M14.972 11.9182C14.972 8.29569 16.673 5.08267 19.2875 3.00365C17.366 1.49163 14.9405 0.578125 12.2944 0.578125C6.02589 0.578125 0.954346 5.64967 0.954346 11.9182C0.954346 18.1868 6.02589 23.2583 12.2944 23.2583C14.9405 23.2583 17.366 22.3448 19.2875 20.8328C16.673 18.7853 14.972 15.5408 14.972 11.9182Z" fill="#EB001B"/>
<path d="M37.652 11.9182C37.652 18.1868 32.5805 23.2583 26.3119 23.2583C23.6659 23.2583 21.2404 22.3448 19.3188 20.8328C21.9649 18.7538 23.6344 15.5408 23.6344 11.9182C23.6344 8.29569 21.9334 5.08267 19.3188 3.00365C21.2404 1.49163 23.6659 0.578125 26.3119 0.578125C32.5805 0.578125 37.652 5.68117 37.652 11.9182Z" fill="#F79E1B"/>
</svg>
