<svg width="160" height="30" viewBox="0 0 160 30" fill="none" xmlns="http://www.w3.org/2000/svg">
<path fill-rule="evenodd" clip-rule="evenodd" d="M98.6652 0.300293C99.0854 0.300293 99.5055 0.308569 99.9216 0.316764C100.33 0.324799 100.734 0.332757 101.13 0.332757C101.61 0.332757 101.834 0.495077 101.866 0.917109C101.866 1.04696 101.834 1.20928 101.802 1.33914L100.458 5.91656C100.298 6.50091 100.138 6.59831 99.5294 6.59831H90.0552H89.6391C89.463 7.18259 89.295 7.76687 89.127 8.35115C88.9589 8.93557 88.7909 9.51999 88.6148 10.1044C87.6868 13.2366 86.7667 16.3688 85.8467 19.501L85.8465 19.5016C84.9262 22.6348 84.0059 25.7679 83.0775 28.9011C82.9495 29.3556 82.7574 29.5179 82.2453 29.5179H77.6682C76.9961 29.5179 76.804 29.1608 76.9961 28.4466C77.5562 26.5637 78.1083 24.6807 78.6605 22.7978C79.2126 20.9149 79.7647 19.032 80.3249 17.1491C80.821 15.4447 81.3251 13.7485 81.8292 12.0522C82.3333 10.356 82.8375 8.65977 83.3336 6.95541C83.3656 6.85802 83.3976 6.72816 83.4296 6.59831C83.3976 6.59831 83.3736 6.59019 83.3496 6.58207C83.3256 6.57396 83.3016 6.56584 83.2696 6.56584H77.4762C76.2599 6.56584 75.0756 6.56584 73.8593 6.53338C73.3792 6.53338 73.1232 6.17627 73.2512 5.72178L74.6915 0.852181C74.7876 0.462613 75.0436 0.332757 75.4277 0.332757C75.6879 0.332757 75.9481 0.324377 76.2041 0.316132C76.452 0.308149 76.6959 0.300293 76.9321 0.300293H77.5722C77.6362 0.300293 77.7083 0.308409 77.7803 0.316525C77.8523 0.324641 77.9243 0.332757 77.9883 0.332757H78.1156C78.0517 0.332702 77.98 0.324616 77.9082 0.316528L77.9082 0.316525C77.8362 0.308409 77.7641 0.300293 77.7001 0.300293H98.1211H98.249H98.6652ZM38.4588 29.5179H47.9971C51.1018 29.5179 54.1745 29.5179 57.2793 29.453H57.2793C57.6954 29.453 58.1115 29.453 58.5276 29.388C61.8243 28.8686 64.577 27.4077 66.5935 24.6483C68.2258 22.4407 69.1541 19.941 68.898 17.1166C68.738 15.5908 68.0978 14.3247 66.9135 13.3508C65.5692 12.247 64.0008 11.7601 62.3044 11.7601H51.0698C50.8137 11.7601 50.5577 11.7601 50.3016 11.7276C49.6295 11.6627 49.2134 11.2082 49.1494 10.5589C48.9573 8.48123 50.7177 6.56585 52.7982 6.56585H69.3141H69.6982C69.9863 6.53339 70.1783 6.40353 70.2743 6.07889C70.5144 5.2673 70.7544 4.44759 70.9945 3.62788L70.9948 3.62687C71.2347 2.80749 71.4747 1.9881 71.7147 1.17683C71.8427 0.657404 71.6506 0.397692 71.1385 0.332764H70.7544H54.5586C53.3103 0.332764 52.094 0.527548 50.9098 0.949579C46.1727 2.70264 43.42 6.14382 42.7799 11.2082C42.3958 14.1624 44.0281 16.9543 47.1649 17.7335C47.9651 17.9282 48.7973 18.0581 49.6295 18.0581C52.438 18.1068 55.2466 18.1007 58.0551 18.0946H58.0554C58.9916 18.0926 59.9279 18.0906 60.8641 18.0906C62.0164 18.0906 62.5925 18.6749 62.5285 19.7138C62.4325 21.4019 61.0882 23.3497 58.7836 23.3173C54.1015 23.2686 49.4015 23.2747 44.7104 23.2808L44.7074 23.2808C43.146 23.2828 41.5856 23.2848 40.0272 23.2848H39.7391C39.3871 23.2848 39.163 23.4471 39.067 23.8042C38.8429 24.5996 38.6109 25.3869 38.3788 26.1741C38.1468 26.9614 37.9147 27.7486 37.6907 28.544C37.6821 28.5873 37.6713 28.6306 37.6606 28.6733C37.6313 28.7906 37.6032 28.9033 37.6266 28.9985C37.6907 29.388 37.9147 29.5179 38.4588 29.5179ZM145.396 6.56612H139.923C138.611 6.56612 137.97 7.05308 137.586 8.31918C137.106 9.97484 136.626 11.598 136.114 13.2537C135.697 14.6788 135.273 16.1039 134.849 17.5316L134.849 17.5327L134.848 17.5336C134.297 19.3902 133.744 21.2513 133.201 23.1228C132.657 25.0057 132.113 26.8886 131.569 28.804C131.409 29.3883 131.217 29.5182 130.641 29.5182H126.288C125.519 29.5182 125.263 29.1935 125.487 28.4793L125.489 28.475L125.489 28.4733C127.505 21.5605 129.521 14.6477 131.601 7.76729C132.817 3.77422 135.602 1.43681 139.603 0.560287C140.243 0.430431 140.883 0.365503 141.523 0.365503C143.977 0.34386 146.431 0.351074 148.885 0.358288C150.112 0.361896 151.339 0.365503 152.566 0.365503C153.622 0.365503 154.646 0.495359 155.638 0.852462C157.879 1.66406 159.223 3.2548 159.767 5.55974C160.088 6.98816 160.088 8.44903 159.703 9.84499C159.644 10.0611 159.585 10.2783 159.525 10.4962C159.139 11.9153 158.745 13.3637 158.135 14.7146C156.311 18.805 153.078 21.2723 148.789 22.3112C147.861 22.5384 146.9 22.6033 145.94 22.6033C143.999 22.625 142.057 22.6178 140.115 22.6105H140.115C139.144 22.6069 138.173 22.6033 137.202 22.6033C136.402 22.6033 136.178 22.3112 136.402 21.532C136.626 20.7691 136.85 19.9981 137.074 19.2271C137.298 18.4561 137.522 17.6851 137.746 16.9221C137.874 16.5001 138.034 16.3378 138.482 16.3378C139.522 16.3378 140.554 16.3459 141.586 16.354L141.587 16.354C142.619 16.3621 143.652 16.3702 144.692 16.3702C144.948 16.3702 145.205 16.3728 145.461 16.3754C146.484 16.3858 147.502 16.3962 148.501 16.2404C150.581 15.9158 151.99 14.6497 152.694 12.6044C152.982 11.7279 153.27 10.8189 153.43 9.90991C153.526 9.32556 153.494 8.67628 153.398 8.09193C153.238 7.28033 152.502 6.69598 151.67 6.59859C151.285 6.56612 150.901 6.53366 150.549 6.53366C148.853 6.56612 147.124 6.56612 145.396 6.56612ZM27.0325 6.55864C26.4137 6.56225 25.7949 6.56585 25.1761 6.56585H19.5748C17.7503 6.56585 16.214 7.70209 15.7018 9.48761C15.1898 11.2567 14.6697 13.0177 14.1497 14.7786L14.1495 14.7792L14.1493 14.7797L14.1492 14.7802L14.1491 14.7806L14.149 14.781C13.629 16.5416 13.1091 18.3022 12.5971 20.0709C12.181 21.5155 11.7569 22.9521 11.3328 24.3886L11.3327 24.3888L11.3327 24.3891L11.3326 24.3893L11.3325 24.3895C10.9085 25.8258 10.4845 27.262 10.0685 28.7063C9.90849 29.2582 10.1005 29.4854 10.6127 29.4854H15.2537C15.6058 29.4854 15.7659 29.3231 15.8619 28.9985C16.214 27.6999 16.5981 26.4013 16.9822 25.1028L16.9824 25.1021C18.1986 21.0118 19.4148 16.9216 20.599 12.8314C20.695 12.5717 20.791 12.5068 21.0471 12.5068H28.985C29.241 12.5068 29.4971 12.5068 29.7531 12.5392C30.8414 12.6691 31.6096 13.4158 31.8336 14.4871C31.9617 15.1688 31.8336 15.7856 31.6416 16.4349C31.0494 18.4801 30.4493 20.5173 29.8492 22.5544C29.249 24.5915 28.6489 26.6286 28.0567 28.6738C27.8647 29.2582 28.0247 29.453 28.6329 29.453H33.1139C33.594 29.453 33.7221 29.3556 33.8501 28.9011C34.0568 28.1577 34.2746 27.4144 34.4904 26.6776L34.4904 26.6775L34.4904 26.6774L34.4905 26.6773L34.4905 26.6772C34.6422 26.1592 34.793 25.6445 34.9384 25.1353C35.3225 23.8367 35.7065 22.53 36.0906 21.2233C36.4747 19.9167 36.8588 18.61 37.2429 17.3114L37.2662 17.2288C37.6424 15.8941 38.0104 14.5881 37.9791 13.1885C37.9471 11.5004 37.467 9.97457 36.2507 8.74094C34.7143 7.21513 32.8259 6.59832 30.7454 6.56585C29.5078 6.54421 28.2701 6.55143 27.0325 6.55864ZM11.2206 0.332845H13.4292C14.1973 0.332845 14.4214 0.625021 14.1973 1.37169C13.013 5.41377 11.8286 9.44774 10.6442 13.4817L10.6432 13.4851L10.6426 13.4871C9.45898 17.5187 8.27532 21.5502 7.09167 25.5898L6.13144 28.9012C6.00341 29.3881 5.81137 29.518 5.33125 29.518H0.72217C0.114027 29.518 -0.110026 29.1933 0.0500117 28.609C0.577957 26.8241 1.1059 25.031 1.63385 23.238L1.63389 23.2379L1.63393 23.2377L1.63434 23.2363C2.16248 21.4427 2.69062 19.649 3.21876 17.8634C4.522 13.2899 5.84647 8.73786 7.17488 4.17231L7.17516 4.17138L7.17522 4.17116L7.17529 4.17093C7.47802 3.13048 7.78096 2.08933 8.0839 1.04705C8.27594 0.430237 8.40397 0.332845 9.01212 0.332845H11.2206ZM103.754 4.41608C103.541 5.12308 103.328 5.83007 103.114 6.56592C103.306 6.56592 103.466 6.56592 103.562 6.53346H126.864H128.784C129.136 6.53346 129.36 6.43607 129.456 6.07896C129.969 4.4233 130.449 2.8001 130.929 1.14444C131.057 0.689941 130.833 0.397765 130.385 0.332837H130.065C127.611 0.332837 125.157 0.32923 122.703 0.325623C117.795 0.318409 112.887 0.311195 107.979 0.332837C107.499 0.332837 106.955 0.430229 106.507 0.625013C105.291 1.14444 104.459 2.05343 104.074 3.35199C103.968 3.70909 103.861 4.06259 103.754 4.41608ZM97.2249 17.9931C97.3346 17.6257 97.4369 17.2621 97.5381 16.9023C97.7319 16.213 97.9217 15.5378 98.1531 14.8766C98.3131 14.3571 98.5692 13.8702 98.8892 13.4157C99.6574 12.3444 100.746 11.7925 102.058 11.7925H124.239C124.975 11.7925 125.199 12.0847 124.975 12.7989C124.751 13.5617 124.527 14.3164 124.303 15.0711L124.303 15.0713L124.303 15.0716C124.079 15.8263 123.855 16.581 123.631 17.3438C123.471 17.9282 123.343 18.0256 122.735 18.0256H97.6089C97.5129 17.9931 97.3849 17.9931 97.2249 17.9931ZM92.3613 28.2672C92.2352 28.7017 92.1083 29.1394 91.9758 29.5827H92.488H107.403H117.582C118.126 29.5827 118.254 29.4528 118.414 28.9334C118.638 28.1543 118.862 27.3833 119.086 26.6123C119.31 25.8413 119.534 25.0702 119.758 24.2911C119.95 23.6742 119.758 23.3821 119.086 23.3496H118.798H97.001C95.0165 23.3496 93.4802 24.5183 92.904 26.4337C92.7164 27.0427 92.5398 27.6517 92.3613 28.2672Z" fill="#3E4D86"/>
</svg>
