<svg width="60" height="18" viewBox="0 0 60 18" fill="none" xmlns="http://www.w3.org/2000/svg">
<g opacity="0.5">
<path fill-rule="evenodd" clip-rule="evenodd" d="M15.9468 0.462891V0.470206C15.9394 0.470206 13.6352 0.462891 13.0207 2.66471C12.4575 4.68366 10.8701 10.2577 10.8262 10.4113H10.3873C10.3873 10.4113 8.7634 4.71292 8.19283 2.6574C7.57837 0.455576 5.26682 0.462891 5.26682 0.462891H0V17.2143H5.26682V7.26587H5.48627H5.70572L8.77803 17.2143H12.4355L15.5079 7.27318H15.9468V17.2143H21.2136V0.462891H15.9468Z" fill="white"/>
<path fill-rule="evenodd" clip-rule="evenodd" d="M35.185 0.462891C35.185 0.462891 33.6415 0.601876 32.9173 2.2185L29.1867 10.4113H28.7478V0.462891H23.481V17.2143H28.4552C28.4552 17.2143 30.0718 17.068 30.796 15.4587L34.4535 7.26586H34.8924V17.2143H40.1592V0.462891H35.185Z" fill="white"/>
<path fill-rule="evenodd" clip-rule="evenodd" d="M42.5 8.07031V17.2141H47.7668V11.8741H53.4725C55.9597 11.8741 58.0664 10.2868 58.8491 8.07031H42.5Z" fill="white"/>
<path fill-rule="evenodd" clip-rule="evenodd" d="M53.4728 0.462891H41.7615C42.3467 3.65224 44.7387 6.2125 47.8329 7.04641C48.5352 7.2366 49.274 7.33902 50.0348 7.33902H59.0615C59.142 6.95863 59.1786 6.57094 59.1786 6.16861C59.1786 3.01583 56.6256 0.462891 53.4728 0.462891Z" fill="#EBEBEB"/>
</g>
</svg>
