<svg width="69" height="20" viewBox="0 0 69 20" fill="none" xmlns="http://www.w3.org/2000/svg">
<path fill-rule="evenodd" clip-rule="evenodd" d="M18.8107 0.276368V0.28486C18.8022 0.28486 16.1272 0.276368 15.4138 2.83254C14.7599 5.1764 12.9171 11.6475 12.8661 11.8258H12.3566C12.3566 11.8258 10.4713 5.21037 9.80893 2.82404C9.09558 0.267875 6.41203 0.276368 6.41203 0.276368H0.297607V19.7236H6.41203V8.17416H6.6668H6.92157L10.4883 19.7236H14.7344L18.3012 8.18266H18.8107V19.7236H24.9251V0.276368H18.8107Z" fill="#4DB45E"/>
<path fill-rule="evenodd" clip-rule="evenodd" d="M41.1452 0.276367C41.1452 0.276367 39.3534 0.43772 38.5126 2.31451L34.1816 11.8258H33.672V0.276367H27.5576V19.7236H33.3324C33.3324 19.7236 35.2091 19.5538 36.0499 17.6855L40.296 8.17416H40.8055V19.7236H46.92V0.276367H41.1452Z" fill="#4DB45E"/>
<path fill-rule="evenodd" clip-rule="evenodd" d="M49.6375 9.1084V19.7237H55.7519V13.5244H62.3758C65.2632 13.5244 67.709 11.6816 68.6176 9.1084H49.6375Z" fill="#4DB45E"/>
<path fill-rule="evenodd" clip-rule="evenodd" d="M62.3761 0.276367H48.78C49.4594 3.97899 52.2364 6.95128 55.8286 7.9194C56.6439 8.14019 57.5016 8.25909 58.3848 8.25909H68.8642C68.9576 7.81749 69.0001 7.3674 69.0001 6.90033C69.0001 3.24016 66.0363 0.276367 62.3761 0.276367Z" fill="url(#paint0_linear_24_2488)"/>
<defs>
<linearGradient id="paint0_linear_24_2488" x1="48.7817" y1="4.26773" x2="69.0001" y2="4.26773" gradientUnits="userSpaceOnUse">
<stop offset="0.3" stop-color="#00B4E6"/>
<stop offset="1" stop-color="#088CCB"/>
</linearGradient>
</defs>
</svg>
