<svg width="100" height="67" viewBox="0 0 100 67" fill="none" xmlns="http://www.w3.org/2000/svg">
<path d="M21.7651 38.7529L18.8855 38.686C-12.656 38.1512 -2.14219 -8.11068 31.6092 4.12326C56.5209 13.1483 51.9002 54.6637 25.2473 61.4826C13.4611 64.491 0.335704 62.3516 10.1129 59.009C18.4838 56.2012 25.2474 48.1123 24.7786 41.4939C24.6447 40.0232 23.3723 38.7529 21.7651 38.7529Z" fill="#F5F5F5"/>
<path d="M82.5315 2.67775C112.257 14.1309 100.183 64.1565 67.1764 66.3287C58.5801 66.9211 56.349 64.8806 62.8454 62.4452C69.1449 60.0756 77.085 48.8856 77.9381 41.316C78.1349 39.802 76.9539 38.5513 75.4446 38.5513C66.7827 38.5513 63.1735 38.5515 58.1207 31.5743C45.7185 14.3287 62.1892 -5.15518 82.5315 2.67775Z" fill="#F5F5F5"/>
</svg>
