<svg width="100" height="66" viewBox="0 0 100 66" fill="none" xmlns="http://www.w3.org/2000/svg">
<path d="M77.7122 27.6791L80.5918 27.746C112.133 28.2808 101.619 74.5427 67.8681 62.3087C42.9564 53.2837 47.5771 11.7683 74.23 4.94937C86.0162 1.94102 99.1416 4.08042 89.3644 7.42303C80.9935 10.2308 74.2299 18.3197 74.6987 24.9381C74.8326 26.4089 76.105 27.6791 77.7122 27.6791Z" fill="#F5F5F5"/>
<path d="M16.9458 63.7544C-12.7802 52.3012 -0.706113 2.27561 32.3009 0.103455C40.8972 -0.488953 43.1283 1.55149 36.6319 3.98695C30.3324 6.35657 22.3923 17.5465 21.5392 25.1162C21.3424 26.6301 22.5234 27.8809 24.0327 27.8809C32.6946 27.8809 36.3038 27.8806 41.3566 34.8578C53.7588 52.1035 37.2881 71.5873 16.9458 63.7544Z" fill="#F5F5F5"/>
</svg>
