<svg width="177" height="153" viewBox="0 0 177 153" fill="none" xmlns="http://www.w3.org/2000/svg">
<path opacity="0.1" fill-rule="evenodd" clip-rule="evenodd" d="M112.253 0.230956C111.376 0.721372 110.976 2.3436 111.762 2.21993C113.263 1.98275 113.638 2.33503 112.668 3.06905C112.027 3.55411 111.897 3.86196 112.329 3.87214C112.715 3.88177 112.89 4.11574 112.719 4.39307C112.533 4.69289 113.225 4.77319 114.428 4.59116C116.049 4.34542 116.321 4.41984 115.808 4.967C114.868 5.97032 112.024 6.06562 111.656 5.10621C111.44 4.54298 110.938 4.41448 109.935 4.66665C109.071 4.88348 108.367 4.77854 108.132 4.39842C107.612 3.55679 105.472 4.27796 105.472 5.2952C105.472 5.73475 105.688 5.96015 105.952 5.79686C106.623 5.38247 109.755 6.06455 109.755 6.62564C109.755 6.87888 108.789 7.72533 107.609 8.50646C105.896 9.64041 105.587 10.0757 106.078 10.6678C106.419 11.0779 107.138 11.268 107.689 11.0929C108.914 10.7042 108.99 11.5352 107.818 12.508C107.07 13.1285 106.79 13.0251 105.775 11.7514L104.598 10.2759L103.161 11.608C102.371 12.3404 101.724 13.4186 101.724 14.0044C101.724 15.2192 100.556 16.1807 100.239 15.2272C100.123 14.8808 99.6872 14.597 99.2702 14.597C98.8526 14.597 98.5115 14.2357 98.5115 13.794C98.5115 12.4865 97.588 12.8693 96.1296 14.7812C94.5523 16.8494 94.4565 17.274 95.5669 17.274C96.0086 17.274 96.37 16.9731 96.37 16.6047C96.37 16.2369 96.9723 15.9355 97.7084 15.9355C98.4446 15.9355 99.0469 16.2369 99.0469 16.6047C99.0469 16.9731 98.8526 17.274 98.6143 17.274C98.3766 17.274 97.7572 18.2377 97.2373 19.4155C96.6853 20.6662 95.9192 21.5646 95.3945 21.5748C94.6712 21.5892 94.7413 21.7969 95.7548 22.6418C96.8004 23.5129 96.8732 23.7447 96.182 24.0097C95.7248 24.1853 95.0979 24.173 94.7895 23.9824C94.4811 23.7913 94.2284 23.8909 94.2284 24.2024C94.2284 24.514 93.4451 24.7866 92.4884 24.8069C91.5317 24.8278 90.2665 25.0516 89.6776 25.3048C88.7466 25.7047 88.8097 25.7701 90.1621 25.8027C91.6832 25.8391 91.696 25.8638 90.7484 26.911C89.8629 27.8897 89.857 27.9818 90.6825 27.9818C91.1794 27.9818 91.8036 27.4394 92.0703 26.7771C92.512 25.6774 92.5559 25.6662 92.5714 26.6433C92.6003 28.4727 91.2474 29.7619 89.7049 29.3748C88.7235 29.1286 88.3391 29.2453 88.3391 29.7882C88.3391 30.2042 88.7005 30.6828 89.1422 30.8525C90.5225 31.382 90.0203 32.2649 88.3391 32.2649C87.4557 32.2649 86.733 32.5219 86.733 32.8361C86.733 33.1568 87.1859 33.2639 87.7647 33.0803C88.6984 32.7842 88.7364 32.8816 88.1662 34.1109C87.4654 35.6207 86.733 35.9087 86.733 34.6741C86.733 34.2281 86.257 33.871 85.6622 33.871C84.3109 33.871 84.2862 34.6672 85.6092 35.5939C86.3218 36.0929 86.5857 36.8344 86.4894 38.0642C86.3122 40.3166 85.4604 41.2391 84.3837 40.3455C83.7407 39.8117 83.4816 39.9033 82.9794 40.8423C82.6405 41.4757 82.5361 42.1535 82.7475 42.3494C82.959 42.5449 83.2396 42.4041 83.3707 42.0357C83.5024 41.6679 83.8729 41.3665 84.1942 41.3665C84.5154 41.3665 84.2209 41.9597 83.5399 42.6841C82.5864 43.6997 82.0815 43.8839 81.3405 43.4871C79.7975 42.6616 79.1497 42.8859 79.3467 44.1773C79.4479 44.8401 79.781 45.3369 80.0872 45.2812C80.7934 45.1538 80.5375 48.8469 79.7884 49.5959C79.411 49.9734 79.0394 49.9488 78.6079 49.5172C78.125 49.0343 78.2074 48.6338 78.9613 47.8002C79.502 47.2027 79.7858 46.5544 79.5914 46.36C79.3965 46.1657 79.2375 46.3156 79.2375 46.6936C79.2375 47.1256 78.8247 47.2729 78.1245 47.0898C77.3149 46.8778 77.0906 47.0052 77.3026 47.5572C77.49 48.046 77.1243 48.4336 76.2741 48.6467C74.7253 49.0354 74.4886 50.4681 75.9727 50.4681C76.5906 50.4681 77.2122 51.0474 77.5532 51.9404C77.8621 52.7499 78.5383 54.0654 79.055 54.8636C80.1445 56.5453 79.6567 57.4121 78.1496 56.4709C76.7833 55.618 76.7351 55.6314 76.3871 56.9623C76.181 57.752 75.8185 57.9989 75.2103 57.7654C74.7269 57.5797 73.9896 57.4281 73.572 57.4281C73.1544 57.4281 72.7968 57.0068 72.7765 56.4912C72.7476 55.7454 72.6217 55.8 72.1597 56.7589C71.8401 57.4217 71.0734 57.9881 70.4556 58.0176C67.9135 58.1407 65.4995 57.8821 64.1123 57.3393C63.0533 56.9243 62.4408 56.9275 61.9311 57.3505C61.4128 57.7804 61.0332 57.7622 60.515 57.2814C60.0717 56.8708 59.9341 56.8537 60.1482 57.2354C60.364 57.6214 59.7692 57.9812 58.5308 58.2135C57.0317 58.4946 56.461 58.3827 56.0996 57.737C55.4984 56.6631 53.5389 56.6315 53.5389 57.6958C53.5389 58.833 52.1254 58.6917 50.8619 57.4281C49.5336 56.0998 46.6848 55.9938 46.2008 57.2552C45.8892 58.0674 45.8229 58.0583 45.5086 57.1626C45.2098 56.3108 44.4913 56.1561 40.3822 56.0602C36.96 55.9804 35.3646 56.1576 34.7623 56.6845C34.2809 57.1058 32.7931 57.4089 31.2822 57.3933C25.8293 57.3366 20.7699 57.8109 20.3978 58.4132C20.1858 58.7559 19.0138 59.1323 17.7931 59.2495C16.5719 59.3673 14.8399 59.9857 13.9437 60.6239C12.3402 61.7653 11.816 62.782 12.8311 62.782C13.1154 62.782 13.5079 63.9866 13.7027 65.459C13.8982 66.9313 14.267 68.1359 14.523 68.1359C15.2265 68.1359 20.3421 73.5963 20.0626 74.0487C19.9282 74.2661 20.4187 74.8368 21.1527 75.3176C22.6871 76.3231 22.8954 77.2375 21.5901 77.2375C20.848 77.2375 20.9101 77.4683 21.9509 78.576C23.5453 80.2732 25.742 80.4059 25.5584 78.7939C25.4529 77.8655 25.7677 77.6412 27.3926 77.4854C28.7895 77.351 29.4453 77.5336 29.6702 78.1188C30.1708 79.4246 29.5272 79.9187 28.0538 79.3587C26.1682 78.6418 26.0574 78.7018 27.1501 79.8481C28.4318 81.1919 30.3994 81.7492 31.2806 81.0179C31.7625 80.618 32.4296 80.5928 33.3419 80.9397C34.0834 81.2213 34.8356 81.307 35.0128 81.1292C35.1906 80.952 35.3357 81.0955 35.3357 81.4483C35.3357 81.8012 34.9743 82.2284 34.5326 82.3976C33.654 82.7349 33.4297 83.6622 34.2269 83.6622C34.4999 83.6622 35.1001 83.2858 35.56 82.8259C36.377 82.0089 37.3166 82.2691 40.1386 84.0926C40.2773 84.1826 40.0487 84.4674 39.6305 84.7254C39.161 85.0162 39.8822 85.0975 41.5199 84.9385C43.7145 84.726 44.6991 84.9541 47.2545 86.2668C50.2393 87.8002 50.3571 87.8179 50.8951 86.8124C51.5092 85.6651 52.5907 85.9317 52.1356 87.1181C51.8347 87.9014 53.6893 89.2227 54.2718 88.6402C54.4576 88.4544 54.6096 88.5567 54.6096 88.8672C54.6096 89.1777 55.5102 89.6012 56.6104 89.8079C58.4918 90.1607 58.5496 90.2282 57.5757 90.9408C57.006 91.3573 56.1045 91.5597 55.5723 91.391C54.9453 91.1919 54.4769 91.4157 54.2429 92.0255C54.0346 92.5684 54.1492 93.0566 54.5133 93.1776C55.348 93.456 55.3228 94.7356 54.4758 95.119C54.108 95.2855 54.2868 95.3631 54.8731 95.2908C55.576 95.2046 56.0568 94.6141 56.2822 93.5604C56.4707 92.6808 56.6532 92.2621 56.688 92.6299C56.7228 92.9983 56.9846 93.2992 57.27 93.2992C57.5548 93.2992 57.6389 92.9099 57.4563 92.4345C57.1859 91.7289 57.3621 91.6427 58.4104 91.9655C59.1171 92.1834 59.7986 92.4543 59.9245 92.5684C60.2441 92.8575 58.2219 94.3325 57.4777 94.3528C57.141 94.3624 56.7319 94.719 56.5681 95.1457C56.3588 95.6908 56.5274 95.823 57.134 95.5901C57.709 95.3695 57.8686 95.468 57.6105 95.8851C57.3974 96.2299 56.816 96.5313 56.3181 96.5549C55.7682 96.5816 56.0429 96.8793 57.0189 97.3146C58.3643 97.9148 58.473 98.0909 57.6881 98.3993C57.1726 98.6017 56.423 98.6418 56.0215 98.4876C55.4711 98.2767 55.3212 98.7227 55.4101 100.304C55.5423 102.649 55.3715 102.768 53.6235 101.543C52.0521 100.442 51.5804 100.914 52.6812 102.485C53.8531 104.158 53.7578 105.012 52.3342 105.608C50.4309 106.404 49.2558 107.526 49.2558 108.545C49.2558 109.274 48.9361 109.425 47.837 109.215C46.7775 109.012 46.0836 109.301 45.0958 110.357C44.3682 111.134 43.5699 111.713 43.3215 111.643C43.0731 111.573 43.0072 111.874 43.1754 112.312C43.3435 112.75 43.2144 113.109 42.8884 113.109C42.5623 113.109 42.2957 113.47 42.2957 113.912C42.2957 114.743 41.8053 114.902 39.7526 114.736C39.0903 114.682 38.548 114.922 38.548 115.269C38.548 115.616 38.1802 115.759 37.7299 115.586C37.2663 115.408 36.5199 115.731 36.0049 116.332C35.5059 116.915 34.6632 117.392 34.1326 117.392C33.5951 117.392 32.9414 117.986 32.6571 118.734C32.3766 119.472 31.9611 120.046 31.7336 120.009C31.506 119.972 31.0177 119.97 30.6478 120.005C29.66 120.099 25.1633 124.814 25.1633 125.758C25.1633 126.348 24.8394 126.466 23.9586 126.195C23.2964 125.992 22.9387 126.019 23.1647 126.257C23.3901 126.495 22.822 127.006 21.9017 127.393C20.5209 127.974 20.2832 128.317 20.5445 129.357C20.9316 130.901 20.4272 131.511 19.441 130.693C17.6973 129.246 14.0106 132.966 15.4588 134.71C15.9589 135.313 15.8411 135.542 14.8683 135.853C14.1996 136.068 13.291 136.213 12.8493 136.176C12.2856 136.128 12.0462 136.63 12.0462 137.859C12.0462 139.059 12.2989 139.61 12.8493 139.61C13.3173 139.61 13.5866 139.219 13.495 138.673C13.2948 137.479 14.2296 137.446 14.6841 138.631C14.8731 139.124 14.7189 139.721 14.3398 139.961C13.9619 140.201 13.8933 140.404 14.1878 140.413C14.4823 140.422 14.3912 140.64 13.9854 140.897C13.5796 141.154 13.4136 141.633 13.6165 141.962C14.0743 142.702 16.6436 142.166 17.4531 141.161C17.7765 140.759 18.1872 140.576 18.3649 140.754C18.9581 141.347 21.2828 140.439 21.6195 139.482C21.8021 138.964 22.0864 138.256 22.2508 137.909C22.4349 137.52 21.9745 137.212 21.0504 137.106C20.1365 137.001 19.4817 136.568 19.373 135.996C19.1578 134.861 20.1103 134.804 22.0848 135.834C23.4334 136.538 24.2585 136.091 23.0217 135.327C22.3407 134.906 22.3241 133.989 22.9976 133.989C23.2787 133.989 23.6658 134.826 23.8575 135.849C24.199 137.669 24.2585 137.706 26.6923 137.63C28.5807 137.572 29.4614 137.241 30.3544 136.257C31.0011 135.544 31.7673 135.107 32.0575 135.286C32.3476 135.466 32.7358 135.367 32.9211 135.068C33.1058 134.769 33.9249 134.524 34.7414 134.524C36.8412 134.524 37.9633 136.631 36.9113 138.597C36.2217 139.885 36.2656 140.076 37.4826 141.061C38.2075 141.648 38.8275 142.405 38.8607 142.743C39.0705 144.904 39.1246 144.942 40.1327 143.629C41.045 142.442 41.1982 142.398 41.5167 143.228C42.013 144.521 42.9237 144.368 44.0662 142.798C44.9143 141.634 44.9373 141.372 44.2536 140.689C43.6251 140.06 43.5817 139.461 44.0314 137.618C44.3387 136.358 44.9175 134.947 45.3169 134.482C45.7163 134.017 46.0434 133.107 46.0434 132.461C46.0434 131.712 46.5108 131.108 47.33 130.796C48.0372 130.527 48.7605 130.074 48.9367 129.789C49.1128 129.504 49.7098 129.389 50.2628 129.534C50.8839 129.696 51.755 129.293 52.5377 128.48C53.2358 127.755 54.4903 127.002 55.326 126.805C57.2812 126.347 59.8474 124.015 59.1439 123.337C58.8585 123.061 58.0228 122.728 57.2866 122.596C56.1537 122.393 56.2126 122.345 57.671 122.283C59.0427 122.225 59.5529 122.511 60.175 123.682L60.9561 125.155L60.9321 122.872C60.9187 121.616 60.6954 120.458 60.4357 120.297C60.1761 120.137 59.9635 119.777 59.9635 119.497C59.9635 119.206 60.3629 119.238 60.9005 119.574C61.4723 119.93 61.8374 120.819 61.8374 121.854C61.8374 122.786 62.0783 123.608 62.3728 123.679C62.6672 123.752 62.9082 123.029 62.9082 122.073C62.9082 120.886 63.1625 120.336 63.7113 120.336C64.153 120.336 64.5143 120.694 64.5143 121.132C64.5143 121.57 64.9962 122.015 65.5851 122.121C66.4514 122.277 66.5279 122.181 65.9867 121.62C65.1461 120.747 65.1274 120.069 65.9444 120.069C66.2892 120.069 67.0339 119.65 67.5992 119.139C68.5747 118.256 68.6609 118.256 69.3066 119.139C69.6803 119.65 70.3212 120.061 70.7302 120.051C71.2378 120.04 71.1424 119.784 70.4325 119.246C69.2911 118.383 69.6519 117.739 71.6082 117.148C72.5425 116.866 72.8225 117.002 72.8552 117.757C72.8798 118.319 73.0115 118.447 73.1673 118.061C73.3161 117.693 73.7787 117.392 74.1958 117.392C74.6134 117.392 74.9544 117.151 74.9544 116.856C74.9544 116.562 75.5567 116.321 76.2929 116.321C77.3781 116.321 77.6314 116.057 77.6314 114.925C77.6314 113.873 77.8396 113.609 78.4783 113.854C78.9441 114.033 79.426 114.179 79.5491 114.179C79.6723 114.179 79.7729 114.541 79.7729 114.982C79.7729 115.424 80.16 115.785 80.6333 115.785C81.1783 115.785 81.3807 115.491 81.1853 114.982C80.9797 114.446 81.2072 114.179 81.869 114.179C82.414 114.179 82.9863 113.697 83.1405 113.109C83.481 111.805 86.1976 111.568 86.1976 112.841C86.1976 113.904 86.7223 113.838 88.3391 112.573C89.0753 111.997 89.9491 111.521 90.2815 111.514C91.3089 111.494 92.1324 110.156 91.5044 109.528C91.1183 109.142 91.2163 108.702 91.8229 108.095C92.9735 106.945 93.693 106.985 93.693 108.201C93.693 109.637 94.1765 109.897 95.6204 109.239C97.0456 108.59 99.8998 109.485 99.3323 110.403C99.1615 110.679 99.9314 111.323 101.042 111.834C104.52 113.434 106.207 114.792 105.387 115.332C104.806 115.715 104.847 115.943 105.605 116.524C106.121 116.919 106.542 117.516 106.542 117.852C106.542 118.188 107.008 118.462 107.577 118.462C108.65 118.462 109.539 120.189 108.955 121.135C108.544 121.8 109.226 121.824 110.241 121.181C110.656 120.918 111.332 120.832 111.743 120.989C112.323 121.212 112.217 121.566 111.27 122.574C110.511 123.383 110.26 124.013 110.604 124.246C110.908 124.451 111.135 125.824 111.108 127.296C111.08 128.769 111.36 130.497 111.73 131.138C112.259 132.052 112.263 132.369 111.748 132.61C111.236 132.851 111.238 132.986 111.761 133.23C112.168 133.42 112.304 134.042 112.11 134.816C111.867 135.785 112.156 136.406 113.316 137.408L114.841 138.725L113.369 140.268C111.548 142.175 111.529 142.555 113.251 142.555C114.709 142.555 115.672 141.092 114.636 140.452C114.226 140.199 114.501 139.839 115.429 139.416C116.737 138.82 116.827 138.855 116.565 139.859C116.241 141.097 116.704 141.262 117.744 140.28C118.327 139.728 118.348 139.813 117.861 140.761C117.386 141.687 117.436 141.976 118.119 142.238C118.601 142.423 118.835 142.909 118.661 143.362C118.365 144.133 118.974 144.361 120.998 144.24C121.537 144.208 121.581 144.29 121.132 144.489C120.064 144.963 120.314 146.321 121.399 145.939C122.107 145.691 122.192 145.767 121.747 146.251C121.018 147.044 121.393 149.268 122.396 150.1C122.805 150.439 123.139 151.049 123.139 151.454C123.139 151.958 123.819 152.192 125.281 152.192C126.986 152.192 127.423 151.995 127.423 151.228C127.423 150.698 127.676 150.011 127.987 149.7C128.71 148.977 129.159 145.624 128.476 146.046C128.198 146.218 128.076 146.045 128.206 145.661C128.335 145.278 128.569 144.085 128.724 143.009C128.937 141.535 128.797 140.974 128.154 140.728C127.583 140.509 127.464 140.182 127.795 139.738C128.39 138.937 128.282 136.682 127.627 136.205C127.367 136.017 127.144 134.658 127.13 133.186C127.099 129.717 126.492 127 125.506 125.91C124.845 125.18 124.836 124.944 125.446 124.437C125.971 124.001 126.123 122.749 125.992 119.943C125.893 117.803 125.79 112.017 125.763 107.085C125.717 98.4314 125.677 98.1177 124.623 98.1177C123.59 98.1177 123.599 98.0641 124.807 97.1245C125.51 96.5784 126.984 95.8385 128.084 95.4793C129.184 95.1206 130.223 94.6034 130.392 94.3293C130.581 94.0241 131.07 94.0294 131.656 94.3432C132.302 94.689 132.817 94.6505 133.243 94.2243C133.727 93.7403 134.115 93.7441 134.91 94.2404C135.73 94.7527 136.034 94.7431 136.369 94.1949C136.875 93.3661 139.246 91.693 139.913 91.693C140.173 91.693 140.24 92.1143 140.06 92.6299C139.837 93.2735 140.07 93.1707 140.806 92.3028C142.048 90.838 142.24 89.2977 141.127 89.7249C140.077 90.1281 139.629 89.5225 140.342 88.6638C141.115 87.7333 141.878 87.7445 141.878 88.6857C141.878 89.7479 144.019 90.1639 144.908 89.2747C145.32 88.8629 145.987 88.6531 146.39 88.8078C146.793 88.9625 147.298 88.8062 147.512 88.4598C147.807 87.9833 148 87.9913 148.31 88.4919C148.915 89.4706 149.909 88.6118 149.909 87.1106C149.909 85.7079 150.258 85.5328 151.497 86.3166C152.001 86.6352 152.543 86.5966 153.01 86.209C153.561 85.7518 153.855 85.7919 154.218 86.3734C154.611 87.0041 154.852 86.9232 155.556 85.9231C156.028 85.2528 156.697 84.7463 157.043 84.7972C158.516 85.014 162.223 84.0054 162.223 83.3875C162.223 82.4543 164.756 80.8551 165.171 81.5265C165.693 82.3714 166.421 82.1443 167.069 80.9344C167.604 79.9337 167.549 79.8513 166.552 80.1677C165.203 80.5955 165.108 79.7067 166.294 77.7729C166.746 77.0367 167.001 76.8178 166.86 77.2862C166.532 78.3816 167.531 79.961 167.929 78.9775C168.079 78.6097 168.663 78.3083 169.227 78.3083C170.465 78.3083 170.48 78.1568 169.444 76.1544C168.692 74.6998 168.702 74.613 169.578 74.9257C171.225 75.513 171.981 76.2963 171.305 76.7144C170.927 76.9479 171.13 77.2016 171.844 77.3885C172.702 77.6128 173.108 77.3762 173.463 76.4435C173.723 75.7588 174.485 74.6875 175.156 74.0621C176.828 72.5036 177.095 68.932 175.598 68.1311C175.014 67.8184 174.537 67.2097 174.537 66.7787C174.537 66.3472 174.15 65.9944 173.676 65.9944C172.835 65.9944 172.841 65.9012 173.842 63.4513C173.994 63.0802 173.733 62.782 173.256 62.782C172.782 62.782 172.395 62.4206 172.395 61.9789C172.395 61.5083 171.907 61.1759 171.217 61.1759C170.301 61.1759 170.182 61.3188 170.682 61.8183C171.035 62.1717 171.324 62.8222 171.324 63.2639C171.324 63.8887 171.181 63.924 170.682 63.4245C170.329 63.0711 169.664 62.782 169.205 62.782C168.745 62.782 168.098 62.3467 167.765 61.8146C167.019 60.6201 162.228 60.1634 162.215 61.2851C162.209 61.7867 162.049 61.7562 161.639 61.1759C161.214 60.5757 161.002 60.5409 160.8 61.0377C160.631 61.4559 160.198 61.5442 159.636 61.2754C158.687 60.8209 153.923 60.8653 151.247 61.3525C150.364 61.5137 148.335 61.7948 146.738 61.9768C145.141 62.1588 143.4 62.5406 142.868 62.8249C142.113 63.2296 141.968 63.1702 142.205 62.5545C142.456 61.8986 141.762 61.7717 138.062 61.7958C135.618 61.8119 133.023 62.0512 132.296 62.3275C131.412 62.6637 130.473 62.623 129.465 62.2054C128.286 61.7171 127.777 61.7305 127.132 62.2659C126.506 62.7847 126.156 62.8002 125.687 62.3312C125.346 61.9902 124.673 61.7112 124.193 61.7112C122.993 61.7112 123.083 60.0194 124.3 59.7014C124.839 59.5601 125.312 58.931 125.35 58.3024C125.537 55.2015 125.099 51.7177 124.425 50.9601C124.011 50.4943 123.826 49.96 124.013 49.7731C124.201 49.5858 124.418 48.841 124.498 48.1183C124.577 47.3955 124.813 46.0265 125.022 45.0756C125.341 43.6205 125.265 43.3993 124.538 43.6783C123.647 44.0204 123.368 43.4582 124.076 42.7494C124.297 42.5288 124.508 42.1273 124.545 41.8574C124.582 41.5871 124.656 41.306 124.711 41.2326C125.137 40.6571 125.204 36.0126 124.787 36.0126C124.489 36.0126 124.391 35.2577 124.561 34.2726C124.726 33.3158 124.951 29.7662 125.061 26.3852C125.171 23.0042 125.394 19.8915 125.557 19.468C125.719 19.0445 125.559 18.5166 125.2 18.2944C124.714 17.9941 124.701 17.706 125.147 17.168C125.941 16.2107 125.355 11.9147 124.378 11.54C123.751 11.2996 123.766 11.1004 124.468 10.3252C125.401 9.29402 125.042 7.63699 123.885 7.63699C123.441 7.63699 123.139 7.08018 123.139 6.26264C123.139 5.1046 122.96 4.94505 122.002 5.24915C121.236 5.49222 120.983 5.4162 121.23 5.01733C121.432 4.69128 121.341 4.42465 121.029 4.42465C120.718 4.42465 120.462 4.19872 120.462 3.92246C120.462 3.05834 117.379 -0.00140459 116.842 0.330536C116.562 0.504002 115.615 0.440291 114.738 0.188659C113.809 -0.0779648 112.773 -0.0602958 112.253 0.230956ZM119.927 1.37829C119.927 1.81303 120.306 2.31415 120.769 2.4919C121.356 2.71676 121.559 2.54491 121.438 1.92386C121.218 0.790974 119.927 0.324112 119.927 1.37829ZM102.928 7.99142C102.561 8.14025 102.259 8.59533 102.259 9.0033C102.259 9.47498 102.584 9.6206 103.15 9.40324C103.749 9.17302 103.914 9.26618 103.654 9.68753C103.205 10.4146 103.818 10.4976 104.842 9.84814C105.414 9.48515 105.381 9.22923 104.67 8.5177C104.186 8.03317 103.746 7.65626 103.694 7.67928C103.641 7.70231 103.297 7.84311 102.928 7.99142ZM111.167 10.0462C110.96 10.5875 111.193 10.8493 111.881 10.8493C112.444 10.8493 113.063 11.1063 113.257 11.4206C113.682 12.1086 113.577 12.2172 112.03 12.6927C111.136 12.9679 110.825 12.8469 110.825 12.2237C110.825 11.7622 110.585 11.3847 110.29 11.3847C109.996 11.3847 109.755 10.9029 109.755 10.3139C109.755 9.68753 110.112 9.24315 110.615 9.24315C111.16 9.24315 111.362 9.53762 111.167 10.0462ZM114.428 9.56653C114.25 9.74427 113.788 9.76355 113.402 9.60882C112.975 9.43803 113.102 9.31115 113.726 9.28545C114.29 9.26243 114.606 9.38878 114.428 9.56653ZM116.179 9.77854C116.179 10.073 115.938 10.3139 115.644 10.3139C115.349 10.3139 115.109 10.073 115.109 9.77854C115.109 9.48408 115.349 9.24315 115.644 9.24315C115.938 9.24315 116.179 9.48408 116.179 9.77854ZM120.317 10.6373C120.14 10.8151 119.678 10.8343 119.292 10.6796C118.864 10.5088 118.991 10.3819 119.615 10.3562C120.179 10.3332 120.495 10.4596 120.317 10.6373ZM99.192 11.9479C99.1433 12.5968 99.374 12.9711 99.7467 12.8469C100.532 12.5851 100.592 11.275 99.8307 11.0212C99.5256 10.9195 99.238 11.3365 99.192 11.9479ZM116.486 11.6636C115.386 12.4962 114.771 12.3639 115.354 11.4206C115.548 11.1063 116.115 10.8568 116.612 10.8665C117.408 10.8814 117.392 10.9783 116.486 11.6636ZM118.661 13.7907C119.721 14.3433 119.9 14.5917 119.241 14.5938C118.374 14.5965 118.356 14.7293 119.045 16.0453C119.91 17.6948 119.251 19.9509 117.905 19.9509C117.36 19.9509 117.203 20.3578 117.383 21.3022C117.526 22.0454 117.466 22.7623 117.251 22.895C116.921 23.099 116.893 24.332 117.182 25.9575C117.22 26.1689 117.612 26.2032 118.053 26.034C118.495 25.8643 118.856 25.8702 118.856 26.0469C118.856 26.8044 116.961 30.6587 116.588 30.6587C115.798 30.6587 116.191 32.3222 117.251 33.4599C118.061 34.3293 118.159 34.7116 117.652 35.0275C117.129 35.353 117.122 35.6699 117.62 36.473C118.175 37.3698 118.123 37.4667 117.218 37.2301C116.399 37.0159 116.188 37.2263 116.222 38.2253C116.245 38.9224 116.38 39.2067 116.523 38.8571C116.699 38.4245 117.113 38.5525 117.819 39.2586C119.18 40.6191 119.13 40.8311 117.452 40.8311C116.308 40.8311 116.164 40.9703 116.671 41.5822C117.015 41.995 117.081 42.4169 116.82 42.5192C115.973 42.8506 115.54 45.6496 116.336 45.6496C117.072 45.6496 119.392 48.4341 119.392 49.3186C119.392 49.5933 119.03 49.9568 118.589 50.1265C118.011 50.3476 117.786 50.0714 117.786 49.1446C117.786 48.4347 117.541 47.7028 117.242 47.5181C116.942 47.3328 116.86 46.897 117.06 46.5496C117.26 46.2016 116.807 46.4773 116.055 47.1621C115.18 47.9576 114.558 48.1991 114.33 47.8313C114.135 47.5149 114.199 47.2557 114.475 47.2557C114.75 47.2557 114.975 46.6534 114.975 45.9173C114.975 45.1811 114.764 44.5788 114.506 44.5788C114.249 44.5788 114.022 44.1575 114.004 43.6419C113.978 42.9239 113.857 42.9866 113.486 43.9096C113.219 44.5724 112.753 45.1142 112.449 45.1142C112.145 45.1142 111.896 45.4756 111.896 45.9173C111.896 46.359 112.077 46.7225 112.298 46.7246C112.862 46.7305 114.066 49.4546 113.738 49.9846C113.59 50.225 113.114 50.2855 112.682 50.1195C112.25 49.9541 111.896 50.0569 111.896 50.3482C111.896 50.6399 112.378 51.0045 112.967 51.1587C113.556 51.3124 114.038 51.2481 114.038 51.0147C114.038 50.7818 114.678 50.172 115.459 49.6602C116.982 48.6617 116.955 48.5509 115.854 51.2712C115.637 51.8087 115.85 52.0742 116.497 52.0742C117.26 52.0742 117.326 52.2124 116.808 52.7301C116.305 53.2339 115.921 53.2409 115.153 52.7617C114.603 52.418 114.007 52.2836 113.828 52.4629C113.214 53.0765 113.503 53.5616 114.439 53.4871C115.19 53.4277 115.385 53.8646 115.42 55.6876C115.444 56.9382 115.625 58.1231 115.822 58.3195C116.018 58.5166 116.179 58.379 116.179 58.0144C116.179 57.343 117.453 55.822 118.015 55.822C118.183 55.822 118.321 56.3761 118.321 57.0534C118.321 57.7306 118.622 58.5883 118.99 58.9588C119.527 59.5001 119.448 59.5552 118.589 59.2388C118 59.022 117.367 58.621 117.183 58.3469C116.999 58.0733 116.849 58.4962 116.849 59.2875C116.849 60.0783 117.164 60.8466 117.551 60.9949C117.937 61.1432 118.123 61.6047 117.963 62.0202C117.804 62.4356 117.484 62.6589 117.252 62.5154C117.02 62.3719 115.902 62.1358 114.768 61.9907C113.633 61.8456 112.62 61.4719 112.516 61.1614C112.388 60.7781 112.086 60.7957 111.58 61.2165C111.168 61.5581 110.201 61.7166 109.43 61.5694C108.659 61.4221 107.393 61.6315 106.616 62.0351C105.517 62.6064 105.158 62.6219 104.998 62.1064C104.466 60.3931 103.747 60.0596 102.436 60.9183C101.733 61.3788 100.868 61.5763 100.513 61.3574C98.9886 60.4151 91.7174 59.8363 90.8148 60.5853C90.0401 61.2283 88.3391 60.8589 88.3391 60.0478C88.3391 59.7849 87.8573 59.5697 87.2684 59.5697C86.2586 59.5697 85.9235 58.7837 86.1665 56.987C86.2195 56.5972 85.947 55.8744 85.561 55.3808C84.9223 54.5638 84.9485 54.5542 85.8576 55.2694C86.7581 55.9778 86.9578 55.929 87.898 54.7678C88.5763 53.9304 88.8306 53.0433 88.6266 52.23C88.4152 51.3873 88.579 50.8782 89.1288 50.6667C89.578 50.4943 89.9453 49.9552 89.9453 49.469C89.9453 48.9824 90.4272 48.2832 91.0161 47.9153C91.605 47.5475 92.0869 46.7926 92.0869 46.238C92.0869 45.6828 92.444 45.0917 92.8803 44.9241C93.3166 44.7566 93.8296 43.6467 94.0196 42.4576C94.2712 40.8841 94.6214 40.2957 95.3051 40.2957C96.3089 40.2957 97.2378 38.0096 96.356 37.7082C95.4089 37.3843 95.8132 36.6695 97.1302 36.3386C98.0163 36.1164 98.5378 35.5056 98.7792 34.407C98.973 33.523 99.3537 32.8003 99.6246 32.8003C99.896 32.8003 100.118 32.5395 100.118 32.221C100.118 31.9024 100.914 30.6378 101.887 29.4102C103.904 26.8671 105.093 24.3856 104.644 23.6585C104.475 23.386 104.747 23.1633 105.247 23.1633C106.563 23.1633 107.658 21.525 106.869 20.7363C106.532 20.399 105.942 20.0184 105.557 19.8904C104.651 19.5885 106.803 16.7386 107.937 16.7386C108.366 16.7386 108.859 16.3702 109.032 15.9194C109.209 15.4574 109.727 15.2213 110.219 15.3776C110.7 15.5302 112.057 15.0628 113.235 14.3395C115.747 12.7971 116.592 12.7114 118.661 13.7907ZM121.801 15.6678C121.983 15.9623 121.876 16.2032 121.565 16.2032C121.253 16.2032 120.998 15.9623 120.998 15.6678C120.998 15.3734 121.104 15.1324 121.234 15.1324C121.364 15.1324 121.619 15.3734 121.801 15.6678ZM104.936 16.1202C104.936 16.3692 104.474 16.9908 103.91 17.5015C103.091 18.2425 102.658 18.3094 101.768 17.8335C100.239 17.0149 100.363 16.8355 102.393 16.9276C103.531 16.979 104.087 16.7745 103.999 16.3371C103.926 15.9692 104.106 15.6678 104.401 15.6678C104.695 15.6678 104.936 15.8713 104.936 16.1202ZM115.85 16.8291C114.847 17.9582 114.849 17.9636 116.297 17.6969C117.098 17.5492 117.636 17.6182 117.493 17.8495C117.026 18.6044 118.036 18.787 118.7 18.0674C119.205 17.5208 119.205 17.2585 118.7 16.8687C117.249 15.7497 116.813 15.7433 115.85 16.8291ZM109.219 16.7386C109.219 17.0331 108.945 17.274 108.609 17.274C107.986 17.274 106.59 18.8239 106.559 19.5494C106.53 20.247 108.397 19.9847 109.635 19.1173C110.981 18.175 111.243 16.2032 110.022 16.2032C109.581 16.2032 109.219 16.4441 109.219 16.7386ZM93.1576 19.1478C93.1576 19.5895 93.2524 19.9509 93.368 19.9509C93.4837 19.9509 93.7171 19.5895 93.8868 19.1478C94.056 18.7061 93.9613 18.3448 93.6764 18.3448C93.3911 18.3448 93.1576 18.7061 93.1576 19.1478ZM99.7156 20.2315C99.858 20.9746 99.7654 21.7118 99.5106 21.8692C99.2557 22.0266 99.0469 21.7798 99.0469 21.321C99.0469 20.8622 98.8135 20.4863 98.5281 20.4863C98.2433 20.4863 98.1485 20.1249 98.3177 19.6832C98.7846 18.4674 99.4265 18.7195 99.7156 20.2315ZM91.3138 20.9735C90.8266 21.7616 91.5948 23.1633 92.5141 23.1633C93.2074 23.1633 93.1726 23.0085 92.323 22.3163C91.4781 21.6278 91.4535 21.5228 92.1934 21.7536C92.8294 21.9522 93.0136 21.8044 92.8053 21.2621C92.4686 20.3841 91.7624 20.2475 91.3138 20.9735ZM114.049 24.5146C114.421 24.9632 114.836 25.2202 114.971 25.0858C115.342 24.7143 114.588 23.6986 113.941 23.6986C113.585 23.6986 113.626 24.006 114.049 24.5146ZM116.179 27.9818C116.179 28.2762 116.435 28.5171 116.746 28.5171C117.058 28.5171 117.164 28.2762 116.982 27.9818C116.8 27.6873 116.546 27.4464 116.415 27.4464C116.285 27.4464 116.179 27.6873 116.179 27.9818ZM113.938 28.8828C114.324 29.0375 114.786 29.0183 114.963 28.8405C115.141 28.6628 114.825 28.5364 114.261 28.5594C113.637 28.5851 113.51 28.712 113.938 28.8828ZM113.502 31.4302C113.502 31.889 113.261 32.2649 112.967 32.2649C112.673 32.2649 112.432 32.6263 112.432 33.0679C112.432 33.5776 112.945 33.871 113.835 33.871C115.004 33.871 115.131 33.7404 114.592 33.0915C114.237 32.6627 114.091 32.0769 114.268 31.79C114.446 31.503 114.346 31.117 114.046 30.9317C113.747 30.747 113.502 30.9714 113.502 31.4302ZM92.2994 32.8897C92.1479 33.1349 91.7972 33.3356 91.5199 33.3356C91.2425 33.3356 91.0161 33.1349 91.0161 32.8897C91.0161 32.6439 91.3668 32.4431 91.7956 32.4431C92.2244 32.4431 92.4509 32.6439 92.2994 32.8897ZM96.37 33.0364C96.37 33.1665 96.129 33.4213 95.8346 33.6033C95.5401 33.7854 95.2992 33.6788 95.2992 33.3672C95.2992 33.0556 95.5401 32.8003 95.8346 32.8003C96.129 32.8003 96.37 32.9063 96.37 33.0364ZM83.1357 35.9682C83.0613 36.9586 85.0149 38.4625 85.5803 37.85C85.7725 37.6423 85.629 37.3644 85.2607 37.2333C84.8928 37.1016 84.5914 36.6786 84.5914 36.2931C84.5914 35.2282 83.2149 34.9209 83.1357 35.9682ZM113.975 37.1728C113.939 37.5652 113.954 38.2055 114.007 38.5953C114.06 38.9851 113.803 39.6661 113.435 40.1083C112.9 40.754 112.909 40.9997 113.483 41.3542C114.579 42.032 115.383 40.9071 115.321 38.7816C115.268 36.9902 114.113 35.61 113.975 37.1728ZM86.1976 53.3811C86.1976 53.946 85.1702 54.1837 84.8645 53.689C84.6797 53.3897 84.9041 53.145 85.3629 53.145C85.8217 53.145 86.1976 53.251 86.1976 53.3811ZM81.3791 55.414C81.3791 56.3204 81.2897 56.3445 80.576 55.6308C80.1343 55.1891 79.7729 54.7303 79.7729 54.6109C79.7729 54.4915 80.1343 54.3941 80.576 54.3941C81.0177 54.3941 81.3791 54.8529 81.3791 55.414ZM113.545 55.5987C113.57 56.2224 113.697 56.3493 113.868 55.9226C114.023 55.5361 114.004 55.074 113.826 54.8963C113.648 54.7185 113.522 55.0344 113.545 55.5987ZM18.7279 60.921C18.3553 61.3697 17.9114 61.5977 17.7406 61.4275C17.5704 61.2572 17.7856 60.8937 18.2187 60.6196C19.3522 59.9027 19.5005 59.9905 18.7279 60.921ZM38.0126 61.6796C38.0126 61.957 37.7717 62.3323 37.4772 62.5143C37.1827 62.6964 36.9418 62.4694 36.9418 62.0105C36.9418 61.5517 37.1827 61.1759 37.4772 61.1759C37.7717 61.1759 38.0126 61.4023 38.0126 61.6796ZM43.3665 62.1893C43.3665 62.4522 43.0051 62.8061 42.5634 62.9758C42.0741 63.1632 41.7603 62.9764 41.7603 62.4977C41.7603 62.0651 42.1217 61.7112 42.5634 61.7112C43.0051 61.7112 43.3665 61.9265 43.3665 62.1893ZM9.9941 62.6037C9.36181 63.2355 9.61397 64.7999 10.3956 65.1003C11.1532 65.391 11.7786 64.4433 11.7786 63.0058C11.7786 62.2257 10.6301 61.9672 9.9941 62.6037ZM15.2586 63.4957C15.2586 64.8914 14.2087 64.8036 14.009 63.3918C13.8864 62.525 14.0545 62.2022 14.5444 62.3655C14.9373 62.4967 15.2586 63.0053 15.2586 63.4957ZM49.4565 62.6739C49.8511 63.3121 49.1133 64.1103 48.0511 64.1949C46.9589 64.2816 46.8497 63.796 47.7567 62.8891C48.5025 62.1433 49.0834 62.07 49.4565 62.6739ZM152.586 64.1521C152.586 64.5766 152.947 64.9236 153.389 64.9236C153.831 64.9236 154.192 64.5622 154.192 64.1205C154.192 63.3324 155.317 63.0149 155.932 63.6295C156.308 64.0059 154.408 65.9944 153.673 65.9944C153.388 65.9944 153.287 66.4157 153.449 66.9313C153.701 67.7311 153.62 67.7162 152.897 66.829C152.432 66.2572 152.05 65.4943 152.05 65.1334C152.05 64.7726 151.767 64.3828 151.42 64.2672C151.074 64.1521 150.97 63.7666 151.189 63.4111C151.68 62.6177 152.586 63.0984 152.586 64.1521ZM28.3756 63.8528C28.3756 64.1473 28.1491 64.3882 27.8718 64.3882C27.5945 64.3882 27.2192 64.1473 27.0371 63.8528C26.8551 63.5583 27.0821 63.3174 27.5409 63.3174C27.9998 63.3174 28.3756 63.5583 28.3756 63.8528ZM8.03083 64.3882C8.03083 64.6826 8.27176 64.9236 8.56622 64.9236C8.86068 64.9236 9.10161 64.6826 9.10161 64.3882C9.10161 64.0937 8.86068 63.8528 8.56622 63.8528C8.27176 63.8528 8.03083 64.0937 8.03083 64.3882ZM61.0343 64.3882C61.0343 64.6826 60.6729 64.9236 60.2312 64.9236C59.7895 64.9236 59.4281 64.6826 59.4281 64.3882C59.4281 64.0937 59.7895 63.8528 60.2312 63.8528C60.6729 63.8528 61.0343 64.0937 61.0343 64.3882ZM164.9 64.3882C164.9 64.6826 164.659 64.9236 164.364 64.9236C164.07 64.9236 163.829 64.6826 163.829 64.3882C163.829 64.0937 164.07 63.8528 164.364 63.8528C164.659 63.8528 164.9 64.0937 164.9 64.3882ZM100.653 66.587C100.653 66.8499 100.386 67.0651 100.06 67.0651C99.7344 67.0651 99.5903 67.3848 99.7402 67.7751C99.9191 68.2414 99.6176 68.4555 98.8606 68.3998C98.2181 68.3527 97.6255 67.8859 97.5205 67.3446C97.3835 66.6395 97.5671 66.4639 98.1898 66.7027C98.7305 66.9104 99.0469 66.7476 99.0469 66.262C99.0469 65.7979 99.3655 65.6148 99.85 65.8005C100.292 65.9703 100.653 66.3242 100.653 66.587ZM103.894 66.6636C103.878 66.8842 103.782 67.0046 103.68 66.9313C103.578 66.8579 103.09 67.1331 102.597 67.5432C102.102 67.9528 101.543 68.1338 101.354 67.9448C101.165 67.7552 101.291 67.6005 101.634 67.6005C101.978 67.6005 102.231 67.4196 102.196 67.199C102.047 66.2545 102.311 65.9269 103.091 66.0891C103.548 66.1844 103.909 66.443 103.894 66.6636ZM143.144 66.7942C142.974 67.2343 142.621 67.4613 142.357 67.298C141.601 66.8312 141.798 65.9944 142.664 65.9944C143.142 65.9944 143.33 66.3086 143.144 66.7942ZM146.697 66.5297C146.697 66.8242 146.456 67.0651 146.161 67.0651C145.867 67.0651 145.626 66.8242 145.626 66.5297C145.626 66.2353 145.867 65.9944 146.161 65.9944C146.456 65.9944 146.697 66.2353 146.697 66.5297ZM70.6713 66.7658C70.6713 67.3307 69.6439 67.5684 69.3382 67.0737C69.1535 66.7744 69.3778 66.5297 69.8366 66.5297C70.2955 66.5297 70.6713 66.6357 70.6713 66.7658ZM169.584 67.9126C169.074 68.4229 168.051 67.5968 168.432 66.9816C168.658 66.6159 168.957 66.625 169.341 67.0094C169.657 67.3248 169.766 67.7311 169.584 67.9126ZM173.734 67.0651C173.916 67.3596 173.809 67.6005 173.498 67.6005C173.186 67.6005 172.931 67.3596 172.931 67.0651C172.931 66.7707 173.037 66.5297 173.167 66.5297C173.297 66.5297 173.552 66.7707 173.734 67.0651ZM105.716 67.5636C105.886 67.8377 105.779 68.213 105.48 68.3982C105.181 68.583 104.936 68.3586 104.936 67.8998C104.936 66.9591 105.257 66.821 105.716 67.5636ZM171.422 68.2521C171.038 68.636 170.789 68.6675 170.789 68.3324C170.789 67.6177 171.422 66.9843 171.779 67.3419C171.932 67.494 171.771 67.9035 171.422 68.2521ZM50.8619 69.0407C50.8619 69.4754 50.561 69.7233 50.1927 69.5911C49.8249 69.4594 49.1021 69.5681 48.5865 69.8331C47.3412 70.4734 47.323 69.2956 48.564 68.3881C49.653 67.5919 50.8619 67.9351 50.8619 69.0407ZM68.5298 68.1359C68.5298 68.4304 68.4238 68.6713 68.2936 68.6713C68.1636 68.6713 67.9087 68.4304 67.7267 68.1359C67.5446 67.8414 67.6512 67.6005 67.9628 67.6005C68.2744 67.6005 68.5298 67.8414 68.5298 68.1359ZM136.524 69.5124C136.524 71.2122 136.435 71.3354 135.721 70.6217C134.75 69.6505 134.712 69.091 135.56 68.243C136.477 67.3264 136.524 67.3885 136.524 69.5124ZM166.325 69.3405C166.177 69.7089 166.055 69.4074 166.055 68.6713C166.055 67.9351 166.177 67.6342 166.325 68.0021C166.474 68.3704 166.474 68.9727 166.325 69.3405ZM22.4863 68.6274C22.4863 68.8978 22.6394 69.5606 22.8263 70.0997C23.1245 70.9617 23.0619 70.951 22.3075 70.0098C21.3133 68.7687 21.1928 68.1359 21.9509 68.1359C22.2454 68.1359 22.4863 68.357 22.4863 68.6274ZM55.0749 68.8544C55.4026 69.2495 55.5145 69.7292 55.3233 69.9203C54.9218 70.3224 53.5389 69.3036 53.5389 68.606C53.5389 67.9009 54.3992 68.0401 55.0749 68.8544ZM142.615 68.5642C142.76 68.7998 142.425 69.2768 141.868 69.6237C141.146 70.0751 140.754 70.089 140.496 69.6714C140.297 69.3496 140.467 68.8769 140.873 68.6199C141.798 68.0331 142.277 68.0181 142.615 68.5642ZM149.106 69.4744C149.106 70.2105 148.953 70.8128 148.767 70.8128C148.304 70.8128 147.811 68.8062 148.182 68.4347C148.794 67.8232 149.106 68.1739 149.106 69.4744ZM152.042 68.5374C152.024 69.4433 151.059 70.3899 150.504 70.0467C149.514 69.4348 149.837 68.1359 150.98 68.1359C151.569 68.1359 152.047 68.3169 152.042 68.5374ZM64.4838 69.8759C63.9913 71.4783 64.0389 71.451 62.436 71.0484C60.7179 70.6174 60.5948 69.3657 62.2389 69.0493C64.7215 68.5712 64.8682 68.6247 64.4838 69.8759ZM134.593 70.0537C135.175 71.5699 134.96 71.9436 133.847 71.3482C132.626 70.6945 132.401 69.2067 133.522 69.2067C133.932 69.2067 134.414 69.5879 134.593 70.0537ZM58.2573 73.0229C60.0556 73.357 61.4139 73.2815 61.9884 72.8157C62.5377 72.3703 62.5639 72.5512 62.1185 73.7227C61.4942 75.3647 61.7764 76.1667 62.9788 76.1667C64.2611 76.1667 63.5886 78.0181 62.2363 78.2114C61.2881 78.3468 61.105 78.1798 61.355 77.4083C61.6174 76.5993 61.574 76.5704 61.1002 77.2375C60.3645 78.2729 58.911 77.4533 57.9264 75.4482C57.1645 73.8951 56.2158 73.5514 56.2158 74.8283C56.2158 75.27 56.4969 75.6313 56.8406 75.6313C57.1838 75.6313 57.3401 75.7561 57.1875 75.9087C57.0355 76.0613 56.2121 75.8187 55.3587 75.3695C54.4458 74.8893 53.2005 74.6821 52.3342 74.8668C50.0337 75.3578 50.4368 73.6204 52.8696 72.5598C53.9741 72.0785 55.0583 71.7294 55.2789 71.784C55.4995 71.8386 55.6804 71.5078 55.6804 71.049C55.6804 70.5901 55.9048 70.3529 56.1789 70.5221C56.453 70.6918 56.8743 70.5253 57.1158 70.1522C57.4028 69.7089 57.6121 70.0761 57.7219 71.2144C57.8145 72.1711 58.0554 72.9849 58.2573 73.0229ZM138.13 71.6475C138.13 72.3665 137.899 72.9544 137.616 72.9544C137.334 72.9544 137.153 72.2552 137.215 71.4002C137.349 69.5536 138.13 69.7646 138.13 71.6475ZM88.3391 72.1829C88.3391 72.6075 88.1239 72.9544 87.861 72.9544C87.27 72.9544 86.6944 71.5651 87.112 71.1475C87.581 70.679 88.3391 71.3188 88.3391 72.1829ZM164.364 71.3482C164.364 71.6427 164.003 71.8836 163.561 71.8836C163.12 71.8836 162.758 71.6427 162.758 71.3482C162.758 71.0538 163.12 70.8128 163.561 70.8128C164.003 70.8128 164.364 71.0538 164.364 71.3482ZM49.9743 72.593C50.1681 72.3992 50.3265 72.7552 50.3265 73.3838C50.3265 74.2506 50.1001 74.4412 49.3896 74.1724C47.868 73.5963 46.9916 72.5529 47.7883 72.2664C48.1539 72.1347 48.7156 72.2338 49.0373 72.4865C49.3591 72.7386 49.7804 72.7868 49.9743 72.593ZM65.0642 72.3954C64.8902 72.6771 65.3249 73.2853 66.0306 73.7478C67.0275 74.401 67.3128 75.0617 67.3128 76.716C67.3128 77.8864 67.1051 78.8437 66.8508 78.8437C66.5965 78.8437 66.3882 79.2051 66.3882 79.6468C66.3882 80.0885 66.173 80.4498 65.9101 80.4498C65.1873 80.4498 64.7521 78.925 65.3667 78.5455C65.7168 78.3292 65.6852 77.9485 65.2778 77.4576C64.933 77.0421 64.8302 76.7021 65.0497 76.7021C65.2692 76.7021 65.1509 76.3439 64.7879 75.906C64.4244 75.468 64.2638 74.7528 64.4308 74.317C64.5984 73.8806 64.501 73.3795 64.2145 73.2023C63.6085 72.828 64.0603 71.8836 64.8452 71.8836C65.1397 71.8836 65.2382 72.1138 65.0642 72.3954ZM97.8359 73.0882C97.739 74.007 97.9879 74.2966 98.8847 74.3089C99.5314 74.318 100.234 74.4985 100.446 74.7105C101.201 75.4659 101.724 75.0761 101.724 73.7575C101.724 72.7761 102.009 72.419 102.795 72.419C104.097 72.419 104.162 72.8869 102.98 73.7511C102.494 74.1071 102.257 74.6585 102.454 74.9771C102.82 75.5708 105.205 75.5409 105.81 74.9353C105.996 74.7501 106.642 74.945 107.246 75.3679C107.89 75.8193 108.883 76.0029 109.643 75.8123C110.431 75.6142 111.105 75.7534 111.361 76.1667C111.666 76.6609 111.963 76.4976 112.447 75.5698C112.813 74.8673 113.203 74.1901 113.313 74.0643C113.667 73.6606 115.074 75.8658 115.091 76.8526C115.101 77.3773 115.47 77.9453 115.912 78.1145C117.167 78.5963 116.922 80.0933 115.643 79.7592C115.054 79.605 114.69 79.6703 114.834 79.9037C115.293 80.6463 113.523 81.6839 111.878 81.6373C110.784 81.6063 110.103 81.9409 109.69 82.7129C109.137 83.7462 109.05 83.7612 108.571 82.9057C108.09 82.0469 107.98 82.0426 107.087 82.8505C106.557 83.3302 105.495 83.7896 104.726 83.872C103.957 83.954 103.148 84.2195 102.927 84.4626C102.707 84.7056 102.888 84.7244 103.33 84.5049C103.772 84.2848 103.531 84.6055 102.795 85.2175C101.854 85.9997 101.019 86.2395 99.9838 86.0243C99.0325 85.8268 98.5115 85.9435 98.5115 86.3546C98.5115 86.7712 98.034 86.8708 97.1286 86.6432C96.0691 86.3777 95.6868 86.5206 95.4951 87.2546C95.304 87.9844 94.6118 88.2488 92.5949 88.364C84.4287 88.8292 82.2668 88.5219 80.674 86.6678C79.6664 85.4953 79.0137 85.1864 77.9697 85.3861C77.2127 85.5307 76.7201 85.4429 76.8759 85.1912C77.0317 84.9391 76.8438 84.696 76.4583 84.6516C76.0728 84.6066 75.5166 84.5402 75.2221 84.5033C74.0914 84.363 73.4179 83.5904 73.0784 82.0453C72.6662 80.1693 71.5237 80.4959 71.885 82.3863C72.0194 83.0882 71.9156 83.6622 71.6543 83.6622C71.3935 83.6622 71.0343 82.933 70.856 82.0421C70.5851 80.6892 70.3447 80.4798 69.3971 80.7743C68.7728 80.9681 68.1818 81.3359 68.0838 81.5913C67.7813 82.3783 66.9236 82.1047 66.9236 81.2213C66.9236 80.7625 67.1645 80.5355 67.459 80.7175C67.7534 80.8996 67.9944 80.5687 67.9944 79.9819C67.9944 78.6076 69.6086 78.1075 72.5982 78.5562C74.2397 78.8019 74.9544 78.7195 74.9544 78.2837C74.9544 77.9399 74.593 77.797 74.1513 77.9667C73.7096 78.1359 73.3483 78.0556 73.3483 77.7879C73.3483 77.0978 74.5068 76.4344 75.7109 76.4344C76.294 76.4344 77.1185 75.7427 77.6249 74.8283C78.549 73.1616 80.5439 72.4404 81.5231 73.4197C81.8914 73.788 82.4076 73.7987 83.0565 73.4518C84.5834 72.6342 86.6655 73.364 86.3416 74.6034C86.1938 75.1688 86.3416 75.6313 86.6703 75.6313C86.9996 75.6313 87.2684 75.3594 87.2684 75.0274C87.2684 74.6077 88.5881 74.4995 91.5825 74.673C95.8822 74.9214 95.8994 74.9171 96.6826 73.4031C97.6297 71.5715 98.0077 71.4682 97.8359 73.0882ZM130.255 72.9544C129.986 73.9818 129.029 74.4835 129.029 73.5969C129.029 73.2237 130.12 71.8836 130.424 71.8836C130.485 71.8836 130.408 72.3655 130.255 72.9544ZM133.167 72.207C132.989 72.3848 132.527 72.404 132.141 72.2493C131.714 72.0785 131.841 71.9516 132.464 71.9259C133.029 71.9029 133.344 72.0293 133.167 72.207ZM73.2481 73.992C73.382 74.3935 73.1812 74.5943 72.7797 74.4604C72.3931 74.3314 71.9712 73.9095 71.8427 73.5235C71.7089 73.122 71.9097 72.9212 72.3112 73.0551C72.6972 73.1835 73.1191 73.6054 73.2481 73.992ZM168.112 73.3725C168.112 73.6022 167.449 74.0846 166.64 74.4438C164.338 75.4654 161.731 77.4377 161.708 78.1744C161.696 78.5428 161.326 78.8437 160.884 78.8437C160.443 78.8437 160.064 78.5428 160.042 78.1744C160.02 77.8066 159.902 76.972 159.78 76.3198C159.605 75.3813 159.752 75.2036 160.489 75.4659C161.001 75.6485 161.718 76.0281 162.083 76.3102C162.538 76.662 162.849 76.5522 163.077 75.9595C163.259 75.4846 163.623 75.096 163.886 75.096C164.149 75.096 164.846 74.6141 165.435 74.0252C166.497 72.963 168.112 72.5695 168.112 73.3725ZM158.725 74.4267C158.05 77.8382 157.848 78.3083 157.051 78.3083C156.574 78.3083 155.878 78.7264 155.504 79.2377C154.894 80.0719 154.833 80.0237 154.91 78.7703C154.957 78.0026 155.251 77.4725 155.564 77.5925C156.401 77.9137 158.119 75.8011 157.767 74.8829C157.601 74.4492 157.752 73.9775 158.104 73.8346C158.455 73.6911 158.78 73.5551 158.826 73.5321C158.872 73.5091 158.827 73.9111 158.725 74.4267ZM72.3257 75.4215C72.8204 76.0179 72.7208 76.1667 71.8267 76.1667C71.2121 76.1667 70.4636 75.7084 70.1643 75.1484C69.7023 74.2854 69.7783 74.1719 70.6633 74.4032C71.2372 74.5536 71.9852 75.0119 72.3257 75.4215ZM147.5 74.5606C147.682 74.855 147.575 75.096 147.263 75.096C146.952 75.096 146.697 74.855 146.697 74.5606C146.697 74.2661 146.803 74.0252 146.933 74.0252C147.063 74.0252 147.318 74.2661 147.5 74.5606ZM129.509 76.8686C128.335 77.9614 127.639 77.7697 128.131 76.4885C128.298 76.0511 128.922 75.7304 129.515 75.7748L130.595 75.8562L129.509 76.8686ZM148.838 76.1667C148.838 76.4612 148.597 76.7021 148.303 76.7021C148.008 76.7021 147.767 77.1037 147.767 77.5946C147.767 78.085 147.625 78.3442 147.451 78.1702C147.004 77.7236 147.736 75.6313 148.339 75.6313C148.613 75.6313 148.838 75.8723 148.838 76.1667ZM112.258 77.6685C110.976 79.0851 111.149 79.8063 112.699 79.5102C114.07 79.2479 114.354 78.5637 113.589 77.3585C113.255 76.8328 112.95 76.904 112.258 77.6685ZM34.2649 78.2917C34.2649 78.9497 33.9972 79.2425 33.5512 79.0717C33.1582 78.9208 32.837 78.4464 32.837 78.0176C32.837 77.5887 33.1582 77.2375 33.5512 77.2375C33.9436 77.2375 34.2649 77.7119 34.2649 78.2917ZM151.797 78.3527C151.806 78.8212 152.278 79.0605 153.033 78.9781C153.705 78.9053 154.122 79.0584 153.961 79.3191C153.8 79.5798 154.027 80.0906 154.466 80.4547C155.777 81.5431 155.371 82.0378 153.657 81.4403C152.773 81.1325 152.05 80.6469 152.05 80.3615C152.05 80.0761 151.569 79.9953 150.98 80.1821C149.855 80.5393 149.587 79.7694 150.242 78.062C150.635 77.0399 151.776 77.2536 151.797 78.3527ZM37.8423 78.8737C37.0034 79.5531 36.5665 79.6435 36.2822 79.1965C35.6446 78.1942 35.7886 78.0438 37.4403 77.9855L39.0074 77.9303L37.8423 78.8737ZM138.13 78.2767C138.13 78.554 137.889 78.9293 137.595 79.1114C137.3 79.2934 137.06 79.0664 137.06 78.6076C137.06 78.1487 137.3 77.7729 137.595 77.7729C137.889 77.7729 138.13 77.9994 138.13 78.2767ZM144.555 78.9068C144.555 79.2013 144.314 79.2934 144.02 79.1114C143.725 78.9293 143.484 78.5396 143.484 78.2451C143.484 77.9506 143.725 77.8586 144.02 78.0406C144.314 78.2226 144.555 78.6124 144.555 78.9068ZM146.425 78.3024C146.612 78.6054 146.398 78.6954 145.921 78.5128C144.994 78.1568 144.824 77.7729 145.594 77.7729C145.871 77.7729 146.245 78.0111 146.425 78.3024ZM139.736 78.8437C139.736 79.1381 139.496 79.3791 139.201 79.3791C138.907 79.3791 138.666 79.1381 138.666 78.8437C138.666 78.5492 138.907 78.3083 139.201 78.3083C139.496 78.3083 139.736 78.5492 139.736 78.8437ZM32.391 79.3791C32.573 79.6735 32.4665 79.9145 32.1549 79.9145C31.8433 79.9145 31.5879 79.6735 31.5879 79.3791C31.5879 79.0846 31.6939 78.8437 31.824 78.8437C31.9541 78.8437 32.209 79.0846 32.391 79.3791ZM143.729 80.4129C143.899 80.687 143.792 81.0623 143.493 81.2476C143.193 81.4323 142.949 81.208 142.949 80.7491C142.949 79.8084 143.27 79.6703 143.729 80.4129ZM159.361 82.9544C159.207 83.108 158.813 83.0679 158.485 82.865C158.056 82.6 158.084 82.2595 158.583 81.6571C159.209 80.9017 159.296 80.9103 159.459 81.7471C159.559 82.2573 159.515 82.8007 159.361 82.9544ZM136.998 83.1648C136.139 83.6954 135.748 83.4137 136.24 82.6182C136.437 82.2996 136.848 82.1931 137.154 82.3821C137.514 82.6042 137.458 82.88 136.998 83.1648ZM152.05 83.6622C152.05 83.9566 151.809 84.1976 151.515 84.1976C151.221 84.1976 150.98 83.9566 150.98 83.6622C150.98 83.3677 151.221 83.1268 151.515 83.1268C151.809 83.1268 152.05 83.3677 152.05 83.6622ZM112.241 84.4653C112.682 84.907 112.966 85.286 112.871 85.308C111.763 85.5644 110.186 85.6683 110.714 85.4498C111.245 85.2303 111.261 84.9899 110.782 84.4133C109.901 83.3522 111.172 83.3977 112.241 84.4653ZM149.373 85.1821C149.373 85.4295 148.711 85.9638 147.901 86.3696C147.092 86.776 146.279 87.1856 146.095 87.2809C145.912 87.3756 145.629 86.9468 145.468 86.3273C145.205 85.3229 145.342 85.2384 146.738 85.5451C147.713 85.7593 148.303 85.6709 148.303 85.3106C148.303 84.9931 148.544 84.7329 148.838 84.7329C149.133 84.7329 149.373 84.9353 149.373 85.1821ZM133.847 85.8037C133.847 86.0982 133.741 86.3391 133.611 86.3391C133.481 86.3391 133.226 86.0982 133.044 85.8037C132.862 85.5093 132.969 85.2683 133.28 85.2683C133.592 85.2683 133.847 85.5093 133.847 85.8037ZM79.2375 87.9453C79.2375 88.2397 78.9821 88.4807 78.6705 88.4807C78.359 88.4807 78.2524 88.2397 78.4344 87.9453C78.6165 87.6508 78.8713 87.4099 79.0014 87.4099C79.1315 87.4099 79.2375 87.6508 79.2375 87.9453ZM146.697 90.0868C146.01 90.5301 146.029 90.6072 146.83 90.6142C147.345 90.6185 147.767 90.3813 147.767 90.0868C147.767 89.4337 147.707 89.4337 146.697 90.0868ZM132.23 90.9028C131.858 91.3514 131.443 91.6084 131.308 91.474C130.937 91.1025 131.691 90.0868 132.338 90.0868C132.693 90.0868 132.653 90.3941 132.23 90.9028ZM137.376 91.5554C137.004 91.9264 135.989 91.1721 135.989 90.5253C135.989 90.1698 136.296 90.2105 136.805 90.6329C137.253 91.0056 137.51 91.4205 137.376 91.5554ZM113.357 91.481C113.18 91.6587 112.718 91.678 112.332 91.5233C111.904 91.3525 112.031 91.2256 112.655 91.1999C113.219 91.1769 113.535 91.3032 113.357 91.481ZM69.0651 92.4961C69.0651 92.9378 68.8242 93.2992 68.5298 93.2992C68.2353 93.2992 67.9944 92.9378 67.9944 92.4961C67.9944 92.0544 68.2353 91.693 68.5298 91.693C68.8242 91.693 69.0651 92.0544 69.0651 92.4961ZM64.782 92.7638C64.782 93.0582 64.5411 93.2992 64.2466 93.2992C63.9522 93.2992 63.7113 93.0582 63.7113 92.7638C63.7113 92.4693 63.9522 92.2284 64.2466 92.2284C64.5411 92.2284 64.782 92.4693 64.782 92.7638ZM52.4681 94.1338C52.4681 94.5927 52.709 94.8197 53.0035 94.6376C53.2979 94.4556 53.5389 94.0803 53.5389 93.803C53.5389 93.5256 53.2979 93.2992 53.0035 93.2992C52.709 93.2992 52.4681 93.675 52.4681 94.1338ZM68.0367 96.11C68.0704 96.6453 68.133 96.6453 68.3488 96.11C68.6368 95.3963 71.2067 95.1618 71.2067 95.8492C71.2067 96.4628 68.7327 98.1985 66.3154 99.2805L64.1728 100.24L64.3436 98.7773C64.6 96.5816 67.9151 94.1874 68.0367 96.11ZM61.5697 97.0469C61.5697 97.3414 61.0279 97.5651 60.3651 97.5448C59.2156 97.5089 59.2097 97.4859 60.2312 97.0469C60.8202 96.7936 61.3625 96.5699 61.4359 96.549C61.5092 96.5286 61.5697 96.7524 61.5697 97.0469ZM116.447 100.795C116.635 101.098 116.185 101.33 115.408 101.33C114.655 101.33 114.038 101.089 114.038 100.795C114.038 100.5 114.505 100.259 115.077 100.259C115.649 100.259 116.265 100.5 116.447 100.795ZM118.053 100.795C118.235 101.089 118.129 101.33 117.817 101.33C117.506 101.33 117.25 101.089 117.25 100.795C117.25 100.5 117.356 100.259 117.486 100.259C117.616 100.259 117.871 100.5 118.053 100.795ZM112.084 102.401C111.839 103.621 111.958 104.007 112.575 104.007C113.022 104.007 113.537 104.396 113.719 104.871C113.944 105.456 114.482 105.653 115.383 105.481C116.528 105.262 116.714 105.422 116.707 106.624C116.702 107.393 116.521 107.781 116.305 107.487C115.293 106.109 112.57 104.662 111.85 105.118C109.911 106.345 108.281 104.564 110.089 103.195C110.875 102.6 110.919 102.428 110.29 102.401C109.673 102.375 109.728 102.184 110.526 101.581C112.066 100.416 112.441 100.613 112.084 102.401ZM67.6142 102.936C67.9296 104.142 67.4547 104.324 66.4953 103.364C65.6403 102.509 65.682 101.865 66.5933 101.865C67.0007 101.865 67.46 102.347 67.6142 102.936ZM124.746 102.401C124.746 102.695 124.505 102.936 124.21 102.936C123.916 102.936 123.675 102.695 123.675 102.401C123.675 102.106 123.916 101.865 124.21 101.865C124.505 101.865 124.746 102.106 124.746 102.401ZM116.034 103.795C115.857 103.973 115.394 103.992 115.008 103.837C114.581 103.666 114.708 103.54 115.332 103.514C115.896 103.491 116.212 103.617 116.034 103.795ZM87.2684 105.849C87.2684 105.979 87.0274 106.234 86.733 106.416C86.4385 106.598 86.1976 106.492 86.1976 106.18C86.1976 105.868 86.4385 105.613 86.733 105.613C87.0274 105.613 87.2684 105.719 87.2684 105.849ZM101.043 108.613C100.866 108.791 100.404 108.81 100.018 108.656C99.5903 108.485 99.7172 108.358 100.341 108.332C100.905 108.309 101.221 108.436 101.043 108.613ZM87.8037 110.4C87.8037 111.032 86.7597 111.707 86.3759 111.324C85.9925 110.94 86.6682 109.896 87.2999 109.896C87.5773 109.896 87.8037 110.123 87.8037 110.4ZM58.0549 113.052C58.2182 113.316 57.9714 113.678 57.5072 113.855C56.3143 114.313 56.2158 114.277 56.2158 113.376C56.2158 112.508 57.5709 112.269 58.0549 113.052ZM64.675 113.751C65.6189 114.695 65.4604 115.25 64.2466 115.25C63.533 115.25 63.1759 114.893 63.1759 114.179C63.1759 112.966 63.7311 112.807 64.675 113.751ZM68.5298 115.785C68.5298 116.08 68.2888 116.321 67.9944 116.321C67.6999 116.321 67.459 116.08 67.459 115.785C67.459 115.491 67.6999 115.25 67.9944 115.25C68.2888 115.25 68.5298 115.491 68.5298 115.785ZM42.0302 117.931C42.2117 118.224 41.7116 118.711 40.9187 119.012C39.3511 119.609 37.4772 119.258 37.4772 118.369C37.4772 118.063 37.8611 117.96 38.3301 118.14C38.8965 118.357 39.2756 118.112 39.4598 117.407C39.6798 116.565 39.9395 116.455 40.719 116.872C41.2587 117.161 41.8492 117.637 42.0302 117.931ZM65.8528 116.531C65.8528 116.647 65.4914 116.88 65.0497 117.05C64.608 117.219 64.2466 117.124 64.2466 116.84C64.2466 116.554 64.608 116.321 65.0497 116.321C65.4914 116.321 65.8528 116.416 65.8528 116.531ZM35.6863 120.313C35.5118 120.768 35.1124 121.139 34.7981 121.139C34.4025 121.139 34.4105 120.797 34.8249 120.023C35.4893 118.781 36.1842 119.015 35.6863 120.313ZM67.459 120.037C67.459 120.314 67.6999 120.69 67.9944 120.872C68.2888 121.054 68.5298 120.827 68.5298 120.368C68.5298 119.909 68.2888 119.533 67.9944 119.533C67.6999 119.533 67.459 119.76 67.459 120.037ZM124.746 121.375C124.746 121.94 123.718 122.178 123.412 121.683C123.228 121.384 123.452 121.139 123.911 121.139C124.37 121.139 124.746 121.245 124.746 121.375ZM36.4064 122.21C36.4064 122.505 36.3004 122.746 36.1703 122.746C36.0402 122.746 35.7854 122.505 35.6033 122.21C35.4213 121.916 35.5279 121.675 35.8395 121.675C36.1511 121.675 36.4064 121.916 36.4064 122.21ZM31.5879 122.746C31.5879 123.04 31.347 123.281 31.0525 123.281C30.7581 123.281 30.5172 123.04 30.5172 122.746C30.5172 122.451 30.7581 122.21 31.0525 122.21C31.347 122.21 31.5879 122.451 31.5879 122.746ZM44.4373 122.446C44.4373 122.576 44.1963 122.831 43.9019 123.013C43.6074 123.195 43.3665 123.089 43.3665 122.777C43.3665 122.466 43.6074 122.21 43.9019 122.21C44.1963 122.21 44.4373 122.316 44.4373 122.446ZM39.0834 123.281C39.736 123.703 39.667 123.801 38.7134 123.808C38.0683 123.813 37.3915 123.575 37.2095 123.281C36.7882 122.599 38.0287 122.599 39.0834 123.281ZM53.0035 124.588C53.0035 124.718 52.7626 124.973 52.4681 125.155C52.1736 125.337 51.9327 125.23 51.9327 124.919C51.9327 124.607 52.1736 124.352 52.4681 124.352C52.7626 124.352 53.0035 124.458 53.0035 124.588ZM114.038 125.098C114.038 125.508 114.415 125.988 114.875 126.165C115.335 126.341 115.557 126.736 115.369 127.041C115.159 127.38 114.537 127.126 113.771 126.389C112.569 125.232 112.466 124.352 113.534 124.352C113.811 124.352 114.038 124.687 114.038 125.098ZM35.2018 126.627C35.1247 127.014 35.4866 127.225 36.0584 127.127C36.6532 127.025 36.9081 127.186 36.6961 127.528C36.5023 127.842 36.5585 128.099 36.8208 128.099C37.0837 128.099 37.2989 128.435 37.2989 128.846C37.2989 129.641 36.2035 129.611 33.4618 128.741C32.1346 128.32 32.0184 128.164 32.7926 127.84C33.3081 127.626 33.7295 127.114 33.7295 126.704C33.7295 126.294 34.0909 125.958 34.5326 125.958C34.9743 125.958 35.2757 126.259 35.2018 126.627ZM39.6081 128.915C39.2354 129.364 38.8205 129.621 38.6856 129.487C38.3146 129.115 39.0689 128.099 39.7157 128.099C40.0712 128.099 40.0305 128.407 39.6081 128.915ZM115.808 128.977C116.183 129.352 114.562 132.383 113.988 132.383C113.793 132.383 113.334 132.021 112.967 131.579C112.408 130.906 112.494 130.776 113.499 130.776C114.435 130.776 114.636 130.541 114.418 129.706C114.149 128.677 115.041 128.21 115.808 128.977ZM31.7726 130.532C31.5981 130.986 31.3406 131.243 31.2003 131.103C31.06 130.963 31.1039 130.591 31.2983 130.277C31.8262 129.422 32.1346 129.588 31.7726 130.532ZM25.1633 131.579C25.1633 132.021 24.8019 132.383 24.3602 132.383C22.9671 132.383 23.4184 131.327 25.0294 130.819C25.1033 130.796 25.1633 131.138 25.1633 131.579ZM42.678 132.765C42.1876 133.256 41.5997 133.471 41.3722 133.244C41.1452 133.016 41.423 132.491 41.99 132.077C42.557 131.662 43.1443 131.447 43.2953 131.598C43.4468 131.749 43.1689 132.274 42.678 132.765ZM11.2432 135.091C11.2432 135.403 11.4841 135.509 11.7786 135.327C12.073 135.145 12.3139 134.89 12.3139 134.76C12.3139 134.63 12.073 134.524 11.7786 134.524C11.4841 134.524 11.2432 134.779 11.2432 135.091ZM18.2032 138.094C18.2032 138.486 17.7289 138.807 17.149 138.807C16.491 138.807 16.1982 138.54 16.369 138.094C16.52 137.701 16.9943 137.379 17.4232 137.379C17.852 137.379 18.2032 137.701 18.2032 138.094ZM5.79344 141.075C5.66655 141.971 5.31962 142.245 4.46461 142.128C3.82803 142.04 3.1513 142.221 2.9607 142.529C2.76475 142.846 3.06189 143.09 3.64386 143.09C4.2103 143.09 5.30892 143.59 6.08469 144.2C7.29307 145.15 7.49544 145.184 7.49544 144.436C7.49544 143.956 7.26897 143.703 6.99164 143.874C6.6945 144.058 6.60884 143.44 6.78284 142.368C6.9472 141.357 6.83102 140.397 6.5221 140.206C6.21265 140.015 5.88928 140.401 5.79344 141.075ZM10.8416 141.327C9.13052 141.656 9.35003 142.391 11.2432 142.669C12.5276 142.857 12.8493 142.709 12.8493 141.927C12.8493 141.389 12.6684 140.981 12.4478 141.022C12.2272 141.062 11.5039 141.199 10.8416 141.327ZM0 145.818C0 146.084 0.48185 146.303 1.07078 146.303C1.65971 146.303 2.14155 146.21 2.14155 146.098C2.14155 145.985 1.65971 145.766 1.07078 145.612C0.48185 145.458 0 145.55 0 145.818Z" fill="#1A1A1A"/>
</svg>
