<svg width="100" height="548" viewBox="0 0 100 548" fill="none" xmlns="http://www.w3.org/2000/svg">
<path fill-rule="evenodd" clip-rule="evenodd" d="M3.0566 460.343C3.26827 462.144 3.73553 463.606 4.09499 463.592C4.45444 463.578 4.7728 464.207 4.80281 464.99C4.83282 465.772 5.12126 466.236 5.44386 466.019C5.91897 465.7 12.8029 475.031 12.8419 476.047C12.848 476.208 13.8393 477.686 15.0447 479.333C16.2501 480.979 17.2589 482.915 17.2865 483.634C17.3141 484.354 18.2987 485.985 19.4739 487.258C20.6497 488.531 21.6394 489.969 21.6732 490.453C21.7077 490.937 22.5924 491.621 23.6402 491.974C24.897 492.398 25.269 492.801 24.7352 493.161C23.6378 493.898 25.7278 496.679 27.3432 496.632C28.3514 496.603 28.3736 496.696 27.5027 497.308C26.633 497.918 26.6575 498.013 27.6726 497.983C28.3219 497.964 30.1727 499.11 31.7847 500.53C34.1326 502.598 34.6782 503.503 34.5283 505.081C34.3989 506.437 34.804 507.432 35.8283 508.274C36.6468 508.947 36.8866 509.296 36.3614 509.05C35.7072 508.743 35.8013 509.157 36.661 510.364C37.3503 511.333 38.1851 511.944 38.515 511.722C38.8457 511.5 39.1396 511.925 39.1681 512.667C39.1966 513.41 39.6281 514.156 40.1268 514.325C40.6255 514.495 42.4876 516.404 44.2638 518.567C46.0408 520.731 48.5185 523.477 49.7695 524.669C55.124 529.771 59.1844 534.597 59.0566 535.706C58.8627 537.381 64.1677 542.747 68.5771 545.336C72.7775 547.801 73.7512 547.973 73.6848 546.24C73.6243 544.665 78.3849 542.927 81.4963 543.388C83.4179 543.673 83.8313 543.495 84.1014 542.27C84.2783 541.469 84.7816 540.801 85.2199 540.784C85.6581 540.767 85.8366 541.072 85.6162 541.461C85.3912 541.859 85.9135 542.12 86.8098 542.059C88.7416 541.926 91.643 540.664 90.0843 540.635C89.1643 540.618 89.1605 540.536 90.0515 539.924C90.8528 539.374 90.8755 539.065 90.1664 538.408C89.4895 537.781 89.2826 537.782 89.3067 538.412C89.3242 538.868 89.0275 539.253 88.6473 539.268C88.2671 539.282 87.9262 538.517 87.8898 537.566C87.8533 536.616 88.1145 535.827 88.4698 535.813C89.9201 535.758 92.4997 537.027 94.734 538.895C97.4947 541.203 100.89 542.131 99.5942 540.224C99.165 539.592 98.3172 539.093 97.7095 539.114C95.3782 539.195 94.9227 538.995 95.2493 538.036C95.4503 537.445 95.0803 536.969 94.3303 536.853C93.5254 536.73 93.0455 536.043 92.9943 534.941C92.9374 533.711 92.537 533.234 91.5892 533.268C90.8598 533.294 90.1191 532.933 89.9433 532.466C89.7669 531.998 89.3193 531.627 88.9488 531.641C88.5776 531.656 88.4643 531.95 88.6963 532.295C89.3577 533.279 87.9844 533.842 87.1928 532.913C86.8042 532.456 86.2485 531.235 85.9589 530.198C85.6693 529.163 85.1083 528.327 84.7129 528.342C84.3175 528.358 84.2426 528.749 84.5463 529.214C84.9213 529.787 84.7122 529.768 83.8926 529.155C82.5013 528.112 82.2023 526.723 83.5204 527.428C84.0066 527.688 83.7855 527.247 83.0294 526.449C81.51 524.845 80.8107 524.556 81.6176 525.865C82.0185 526.516 81.9298 526.532 81.2305 525.934C80.7309 525.507 79.8222 525.332 79.2101 525.545C78.3056 525.859 78.3177 525.778 79.2778 525.107C80.7192 524.1 80.8019 522.844 79.3873 523.45C78.8254 523.691 78.3524 523.544 78.3363 523.123C78.3202 522.702 77.6848 522.382 76.9244 522.411C76.1641 522.44 75.5821 522.228 75.632 521.941C75.8182 520.859 74.5336 519.041 73.6073 519.077C73.0778 519.097 72.6324 518.802 72.6179 518.422C72.6033 518.042 72.9148 517.719 73.3096 517.703C73.7043 517.688 73.3678 517.019 72.561 516.217C71.7542 515.416 70.6729 513.899 70.159 512.848C69.6445 511.797 69.0082 510.946 68.7441 510.956C68.4801 510.966 68.2876 510.35 68.3158 509.588C68.344 508.825 68.6891 508.184 69.0836 508.163C69.4773 508.142 69.3218 507.841 68.7374 507.495C67.8229 506.952 67.8386 506.856 68.8495 506.809C69.4956 506.778 70.2894 507.169 70.6135 507.677C71.0068 508.293 71.6561 508.4 72.5642 507.997C73.3129 507.665 73.5362 507.386 73.0596 507.377C71.8224 507.356 71.9213 505.548 73.2517 503.868C74.6516 502.101 75.4462 502.007 75.5211 503.6C75.5695 504.626 75.6707 504.649 76.1909 503.753C76.5759 503.089 76.5477 502.461 76.1149 502.06C74.9406 500.972 75.3159 500.236 76.7014 500.91C77.4259 501.263 78.1741 501.385 78.3628 501.18C78.5523 500.976 79.4113 501.857 80.2724 503.137C81.8222 505.442 84.6275 507.578 86.0349 507.524C86.4365 507.508 85.7593 505.898 84.5305 503.947C83.3023 501.995 81.9922 500.487 81.6191 500.597C81.2467 500.706 80.9228 500.311 80.9 499.719C80.8773 499.126 80.5942 498.819 80.2702 499.037C79.947 499.254 79.1081 498.086 78.4061 496.441C77.7047 494.796 76.6366 493.281 76.0334 493.076C75.1474 492.774 75.0933 492.499 75.7513 491.641C76.1989 491.058 76.2683 490.591 75.9047 490.605C75.5411 490.619 75.2273 490.199 75.207 489.67C75.1653 488.583 72.7141 483.641 71.9688 483.141C71.7002 482.961 71.1035 482.205 70.643 481.461C69.9766 480.385 69.8108 480.339 69.8278 481.235C69.8405 481.854 70.3281 482.727 70.9123 483.176C71.4965 483.624 71.8272 484.251 71.6469 484.569C71.4667 484.887 71.6408 485.33 72.0343 485.553C73.1105 486.161 74.3922 488.586 73.6532 488.615C73.3021 488.628 71.5591 486.125 69.7805 483.052C65.7028 476.006 65.6579 475.901 67.2197 477.093C68.4663 478.044 68.468 477.998 67.268 475.88C65.9976 473.638 65.0508 472.867 65.8454 474.723C66.5471 476.36 65.4847 475.932 64.669 474.249C64.2609 473.408 63.0989 471.505 62.086 470.021C61.073 468.537 60.0604 466.971 59.8356 466.541C59.61 466.111 58.7783 465.616 57.9866 465.442C56.6823 465.153 56.6447 465.019 57.5846 464.003C58.3962 463.127 59.0339 463.021 60.5046 463.517C62.0777 464.046 62.314 463.981 61.9444 463.117C61.7004 462.548 61.8184 462.07 62.2062 462.055C62.5947 462.04 63.2018 461.083 63.5555 459.927C64.2661 457.605 65.1112 457.332 67.1577 458.761C68.1443 459.449 68.7609 459.499 69.384 458.94C69.8585 458.514 70.546 458.336 70.9118 458.543C71.945 459.129 75.9173 457.974 76.2514 456.992C76.4156 456.509 75.0741 454.708 73.2692 452.988C71.4649 451.268 69.9775 449.579 69.9643 449.233C69.9285 448.301 71.086 448.429 72.2223 449.481C72.9127 450.12 73.5724 450.19 74.3625 449.708C75.5841 448.961 76.8919 449.362 76.9354 450.496C76.95 450.876 76.5643 450.963 76.0775 450.691C75.5618 450.401 75.6869 450.884 76.3774 451.85C77.8067 453.847 79.8526 454.359 79.7892 452.704C79.7605 451.956 79.3816 451.699 78.723 451.981C78.1611 452.221 77.6902 452.128 77.6766 451.773C77.6417 450.862 80.069 449.549 80.7347 450.119C82.1491 451.331 80.0348 446.673 78.4533 445.092C77.4664 444.106 76.6433 442.879 76.6235 442.364C76.6038 441.849 76.2766 441.44 75.8964 441.454C75.5162 441.469 75.1872 441.014 75.1653 440.444C75.1435 439.874 74.8145 439.419 74.4343 439.434C74.0541 439.448 73.7252 438.994 73.7033 438.423C73.6814 437.853 73.387 437.397 73.049 437.41C72.7117 437.423 72.1888 436.353 71.8882 435.032C71.561 433.594 70.9376 432.645 70.3362 432.668C69.7832 432.689 69.3205 432.447 69.3083 432.131C69.2962 431.814 70.2056 431.519 71.3296 431.476C72.5669 431.429 73.2363 431.699 73.0263 432.161C72.8361 432.581 73.2261 432.244 73.8934 431.412C74.5607 430.58 75.7407 429.724 76.5154 429.508C77.7291 429.17 77.8933 429.389 77.709 431.1C77.5073 432.971 78.5192 433.796 79.3076 432.404C79.8094 431.517 78.1145 427.45 77.4342 427.908C76.7128 428.393 76.2186 427.637 75.6869 425.235C75.4532 424.177 74.2019 422.436 72.9065 421.366C71.6111 420.296 70.5399 419.117 70.5257 418.747C70.5115 418.376 70.0555 417.822 69.512 417.514C68.9692 417.207 68.686 416.481 68.8832 415.901C69.1134 415.226 68.7325 414.735 67.8235 414.534C67.008 414.354 66.5948 413.886 66.8515 413.433C67.2581 412.715 63.1982 404.834 59.5582 399.274L58.0838 397.022L59.7413 397.19C61.2063 397.339 61.3654 397.119 61.1147 395.293C60.959 394.157 61.0907 393.529 61.4073 393.897C61.724 394.266 62.45 394.549 63.0203 394.528C63.5995 394.505 64.0328 395.044 64.0016 395.748C63.9714 396.441 64.091 396.851 64.2671 396.66C64.444 396.47 65.2198 396.898 65.9907 397.612C67.7148 399.209 69.0252 398.594 67.9193 396.707C67.0051 395.145 67.575 393.758 68.9406 394.223C69.4681 394.403 70.0745 394.24 70.2892 393.861C70.5038 393.483 70.9392 393.32 71.2577 393.501C71.5754 393.681 72.207 393.345 72.6606 392.753C73.3391 391.87 72.9469 390.56 70.4611 385.403C68.7975 381.952 67.1146 378.381 66.7217 377.467C66.3288 376.553 65.838 376.105 65.6319 376.471C65.4251 376.836 66.3894 379.272 67.7752 381.884C70.4803 386.987 70.7088 387.656 69.7563 387.693C69.4169 387.706 68.5943 386.491 67.9276 384.994C67.2603 383.496 66.5386 382.278 66.3229 382.286C66.1073 382.294 66.1351 382.605 66.3847 382.976C67.0293 383.934 65.948 383.81 64.4357 382.752C63.5963 382.165 63.4329 381.75 63.9631 381.55C64.518 381.341 64.3856 380.887 63.5422 380.106C62.8654 379.479 62.0326 379.153 61.6911 379.383C61.3503 379.612 61.0575 379.453 61.0412 379.027C61.0249 378.602 60.7362 378.44 60.3995 378.666C60.0634 378.893 59.9333 378.371 60.1113 377.506C60.2893 376.642 60.1952 376.174 59.9018 376.465C59.0602 377.3 57.1894 373.54 58.0077 372.656C59.0301 371.553 58.7414 369.35 57.3947 367.973C56.739 367.301 56.5361 366.739 56.9439 366.724C57.3518 366.708 58.1706 366.488 58.7631 366.234C59.3557 365.98 59.8524 366.079 59.8667 366.454C59.9081 367.534 63.7591 374.893 64.0934 374.532C64.2596 374.353 63.5363 372.588 62.4865 370.61C61.4373 368.632 60.8365 366.829 61.1511 366.604C61.4665 366.379 61.7135 365.727 61.7013 365.157C61.6533 363.019 62.1735 361.981 64.0872 360.399C65.8425 358.947 66.1805 358.878 67.2319 359.759C68.7983 361.071 69.2898 360.982 68.8317 359.47C68.624 358.785 68.8981 357.826 69.4409 357.34C70.2908 356.577 70.1436 356.167 68.3746 354.374C67.2452 353.229 66.3348 352.109 66.3505 351.885C66.3661 351.661 66.313 351.325 66.2325 351.137C65.4132 349.233 65.5567 347.759 66.5914 347.445C67.3072 347.228 67.0226 347.082 65.8733 347.078C64.6401 347.073 63.9546 346.689 63.9277 345.987C63.8968 345.183 63.4899 345.042 62.3491 345.442C61.5034 345.737 61.0244 345.737 61.283 345.441C61.5424 345.145 61.2505 343.816 60.6347 342.488C59.8716 340.842 59.7321 339.84 60.1954 339.339C61.0523 338.414 61.0472 337.271 60.1895 337.848C59.3817 338.391 58.2956 333.828 58.955 332.663C59.2487 332.144 59.1624 331.99 58.7386 332.275C58.0361 332.747 55.6806 328.982 55.5705 327.212C55.5391 326.7 55.0332 325.694 54.4464 324.978C53.8602 324.261 53.3586 323.112 53.3322 322.425C53.3058 321.737 52.94 321.187 52.519 321.204C52.098 321.22 51.9149 320.759 52.1122 320.181C52.3088 319.602 52.1353 319.141 51.7268 319.157C51.3176 319.173 51.1411 318.722 51.3333 318.156C51.5262 317.59 51.416 316.974 51.0891 316.789C50.7615 316.604 50.2206 315.011 49.8873 313.25C49.5539 311.489 48.9967 309.56 48.6491 308.962C48.3022 308.365 47.6644 306.878 47.2319 305.657C46.5566 303.751 46.6115 303.433 47.6199 303.408C49.2451 303.367 51.8139 305.382 52.1579 306.968C52.3194 307.713 53.3565 308.545 54.5436 308.884C55.6985 309.215 56.849 309.774 57.1008 310.129C57.3767 310.519 57.7417 310.45 58.0211 309.956C58.3161 309.435 58.7841 309.362 59.3113 309.753C60.6474 310.746 63.2013 309.268 63.2251 307.489C63.2375 306.62 63.2013 305.677 63.1447 305.393C63.0889 305.109 63.579 304.857 64.2343 304.832C65.2124 304.794 65.1436 304.605 63.8474 303.769C62.1701 302.688 61.617 301.099 63.0905 301.596C63.573 301.758 64.6922 301.59 65.578 301.221C66.7323 300.741 66.988 300.315 66.4813 299.72C66.092 299.263 65.5363 298.041 65.2467 297.005C64.9571 295.969 64.4141 295.133 64.0415 295.148C63.6682 295.162 63.3331 294.385 63.2962 293.421C63.2592 292.457 62.7087 290.937 62.0721 290.043C61.0433 288.597 60.5073 287.201 60.271 285.353C60.2288 285.029 59.7353 284.96 59.1734 285.201C58.6115 285.441 58.1412 285.363 58.1283 285.026C58.1154 284.69 58.4693 284.277 58.9156 284.109C59.4472 283.909 59.2296 283.345 58.28 282.465C55.9063 280.267 55.6145 278.811 57.1838 277.007C58.4999 275.493 58.5226 275.235 57.4946 273.359C56.4301 271.416 56.4502 271.326 58.0367 270.959C58.9425 270.75 59.8641 270.846 60.0844 271.174C60.3046 271.502 60.7355 271.601 61.0419 271.394C61.349 271.188 61.7955 271.478 62.0358 272.038C62.6015 273.358 63.9092 273.305 63.8578 271.964C63.8359 271.393 64.2076 270.922 64.6829 270.916C65.8814 270.902 68.7512 273.203 68.7898 274.209C68.8076 274.673 69.286 274.837 69.8785 274.583C70.4847 274.324 70.7664 274.43 70.5394 274.83C70.3216 275.215 70.5062 275.516 70.9493 275.499C71.3924 275.482 71.6122 275.889 71.4367 276.403C71.2619 276.918 71.5419 277.323 72.059 277.303C72.5767 277.283 72.8588 277.057 72.687 276.801C71.9617 275.723 70.581 272.358 70.6656 271.875C70.7155 271.588 70.073 270.719 69.2368 269.945C68.3174 269.093 67.9899 268.353 68.4097 268.071C69.3343 267.45 68.4308 263.693 67.4495 264.081C67.0273 264.247 66.8121 264.97 66.971 265.686C67.2189 266.805 67.0491 266.764 65.7631 265.398C64.9396 264.523 64.4193 263.537 64.6067 263.207C64.7941 262.875 64.5974 262.007 64.1706 261.277C63.6188 260.336 63.6102 259.804 64.142 259.447C64.6664 259.094 64.6022 258.758 63.9279 258.322C63.1754 257.837 63.1517 257.616 63.8193 257.315C64.7639 256.89 63.153 253.768 60.8422 251.547C60.1607 250.891 59.3671 249.548 59.0786 248.561C58.6921 247.238 58.4096 247.017 58.0011 247.72C57.6225 248.372 57.4095 248.019 57.3261 246.6L57.2051 244.528L56.3072 246.639L55.4093 248.75L55.7301 246.827C55.9918 245.258 55.8486 244.99 54.9537 245.373C54.3502 245.631 53.8442 245.524 53.8293 245.135C53.8144 244.746 54.1853 244.256 54.6528 244.046C55.3334 243.74 55.3303 243.66 54.6374 243.643C54.1614 243.631 53.7455 243.077 53.7145 242.412C53.6786 241.657 53.478 241.499 53.1792 241.993C52.9162 242.428 52.0095 243.028 51.1647 243.328C49.9237 243.768 49.4856 243.537 48.8859 242.124C48.4773 241.162 47.8294 240.388 47.4464 240.402C47.0635 240.417 47.4046 241.496 48.2044 242.801C49.0048 244.106 49.7157 245.403 49.7853 245.683C49.9926 246.523 52.1834 249.529 52.9633 250.045C53.7808 250.586 53.661 250.657 51.4006 250.977C50.1364 251.157 49.8563 250.928 50.0834 249.9C50.2421 249.182 50.1303 248.758 49.836 248.956C49.0491 249.484 47.8375 247.893 47.3501 245.689C47.1157 244.63 46.6328 243.412 46.2764 242.983C44.7573 241.152 43.1671 236.51 43.9573 236.213C45.2539 235.725 43.4316 231.189 42.0087 231.361C41.3685 231.439 40.829 231.07 40.8087 230.542C40.7885 230.014 41.2572 229.563 41.8496 229.541C42.4869 229.516 42.7136 229.181 42.4045 228.722C42.1175 228.295 42.4565 227.461 43.158 226.87C44.3885 225.832 44.3884 225.812 43.1525 226.294C42.0442 226.728 41.9146 226.526 42.1923 224.795C42.3716 223.677 42.1504 222.458 41.6911 222.033C41.2389 221.614 41.134 221.261 41.4582 221.248C41.7824 221.236 41.3064 220.631 40.4007 219.904C39.4951 219.178 39.1048 218.57 39.5334 218.553C40.085 218.532 40.0962 218.012 39.5712 216.776C38.6565 214.622 38.6465 214.434 39.4428 214.403C39.7926 214.39 40.3198 215.304 40.6138 216.435C40.9078 217.566 41.406 218.481 41.7205 218.469C42.0351 218.457 42.0909 217.784 41.8452 216.972C41.5385 215.96 41.6557 215.642 42.2169 215.96C43.2791 216.561 43.237 215.464 42.1596 214.466C41.5309 213.884 41.5283 213.438 42.15 212.627C42.8719 211.686 43.152 211.713 44.4751 212.854C46.4776 214.582 48.0392 214.506 47.3938 212.713C47.0188 211.672 47.2163 211.336 48.2256 211.297C48.9535 211.269 50.2423 210.597 51.0897 209.803C52.7717 208.227 53.4176 207.939 52.7913 209.045C52.5708 209.434 52.7203 209.74 53.1226 209.725C53.5249 209.709 53.8407 209.332 53.8235 208.885C53.8064 208.439 54.5981 208.774 55.5828 209.63C56.5675 210.487 57.4039 210.976 57.4417 210.718C57.4796 210.46 57.5758 209.935 57.6566 209.551C57.7374 209.167 57.8277 208.489 57.8583 208.043C57.9254 207.066 58.9784 207.915 59.0192 208.979C59.035 209.391 59.4855 209.856 60.0203 210.011C60.5566 210.168 60.7865 209.987 60.5317 209.609C60.2784 209.232 60.6831 208.738 61.4318 208.511C62.8025 208.096 63.305 205.873 62.0172 205.922C61.637 205.937 61.308 205.482 61.2861 204.912C61.2643 204.342 60.9699 203.886 60.6319 203.899C60.2938 203.911 60.0169 203.532 60.0167 203.057C60.0139 200.818 59.6308 199.783 58.8172 199.814C58.3285 199.833 57.2791 198.861 56.4845 197.654C54.8879 195.23 53.7167 191.011 54.6299 190.976C54.9506 190.963 55.2247 191.267 55.2393 191.65C55.2554 192.07 55.7903 191.992 56.5811 191.455C57.5581 190.791 57.6965 190.339 57.1215 189.697C56.6333 189.153 56.602 188.823 57.0375 188.806C57.8953 188.773 59.7587 190.771 58.9268 190.832C58.5962 190.856 58.8747 191.169 59.5461 191.526C60.433 191.998 61.2208 191.854 62.4216 190.999C63.6703 190.111 64.4153 189.988 65.4601 190.497C66.5091 191.007 67.04 190.915 67.6531 190.115C68.3111 189.258 68.2526 189.069 67.3409 189.103C66.6807 189.129 66.1979 188.578 66.1666 187.764C66.1375 187.004 65.7248 186.387 65.2487 186.393C64.664 186.4 64.7211 186.118 65.4229 185.52C66.2724 184.799 66.3119 184.186 65.6406 182.171C65.1891 180.814 64.4143 179.257 63.9198 178.709C63.4253 178.162 62.7799 176.714 62.4866 175.492C62.1926 174.269 61.5438 173.13 61.0444 172.96C60.545 172.79 60.2885 172.204 60.4745 171.656C60.6798 171.053 60.3768 170.679 59.7022 170.705C58.3881 170.756 58.1752 169.646 59.3934 169.098C59.9018 168.871 59.7559 168.713 59.0323 168.709C58.209 168.703 57.7988 168.135 57.7528 166.934C57.7155 165.963 57.0405 163.886 56.2528 162.319C55.4652 160.752 54.8633 159.283 54.9161 159.054C54.969 158.825 54.6631 158.213 54.2368 157.695C53.8106 157.177 52.7891 154.91 51.9668 152.657C51.1445 150.404 49.9119 148.175 49.2272 147.703C47.8648 146.765 47.5319 145.558 48.6241 145.516C49.0043 145.501 49.3673 146.033 49.4309 146.697C49.5074 147.501 49.7082 147.321 50.0331 146.154C50.4468 144.668 50.5458 144.612 50.6911 145.783L50.8616 147.161L51.4024 145.756C51.7669 144.809 51.9755 144.688 52.0423 145.385C52.1301 146.302 52.211 146.3 52.7551 145.361C53.2817 144.453 53.5242 144.492 54.4641 145.642C55.0676 146.38 55.5542 146.593 55.5476 146.116C55.5418 145.64 55.977 145.234 56.5154 145.213C57.0539 145.193 57.8731 144.223 58.3359 143.059C58.7986 141.894 59.5366 141.064 59.9757 141.214C60.4639 141.38 60.621 140.98 60.3793 140.184C60.0574 139.121 59.7402 139.026 58.6481 139.666C57.9128 140.096 57.1229 140.276 56.8939 140.063C56.6642 139.85 56.8398 139.663 57.2829 139.646C57.7266 139.629 58.0776 139.304 58.063 138.924C58.0485 138.543 57.581 138.25 57.0238 138.271C56.4674 138.292 55.6548 137.701 55.2185 136.956C54.7822 136.211 54.1549 135.612 53.823 135.625C53.1131 135.652 53.7924 138.363 54.8112 139.567C55.2013 140.028 55.2487 140.414 54.9168 140.425C54.0276 140.452 51.7401 136.513 51.6761 134.843C51.6457 134.05 51.4168 133.622 51.1668 133.892C50.9169 134.162 50.2489 133.389 49.6825 132.174C48.8444 130.377 48.5288 130.162 47.9891 131.017C47.482 131.819 47.4142 131.696 47.7032 130.494C47.9868 129.314 47.7929 128.933 46.9233 128.967C46.1788 128.995 45.8936 128.636 46.1245 127.959C46.3211 127.38 46.2029 126.918 45.8608 126.931C45.5027 126.944 45.4525 126.087 45.7436 124.903C46.1454 123.268 46.053 122.936 45.2861 123.264C44.7154 123.509 44.3085 123.244 44.2844 122.614C44.2619 122.029 43.5644 121.477 42.7337 121.388C41.0125 121.201 40.0474 119.539 41.6255 119.478C42.1958 119.456 42.8142 119.822 42.999 120.291C43.1838 120.759 43.3084 120.288 43.2759 119.242C43.2433 118.196 42.8822 117.353 42.4737 117.369C41.9594 117.388 41.9586 117.151 42.4704 116.598C43.5101 115.476 44.5496 116.262 45.1675 118.638C45.6206 120.381 45.9706 120.625 47.6373 120.366C49.4266 120.088 49.6266 120.286 50.1742 122.884C50.6682 125.224 50.8582 125.465 51.2911 124.299C52.0403 122.282 51.9376 120.307 51.1122 120.862C50.6567 121.168 50.5438 120.699 50.7915 119.523C51.1025 118.046 50.9705 117.799 50.0755 118.182C48.5962 118.815 48.6196 117.384 50.1046 116.431C50.9012 115.919 51.0328 115.508 50.5069 115.169C50.0782 114.894 49.6875 114.202 49.6387 113.633C49.5899 113.063 49.3599 111.904 49.1287 111.056C48.8968 110.209 49.0338 109.502 49.4326 109.487C49.8322 109.472 49.9948 109.94 49.7944 110.527C49.5052 111.379 49.6843 111.447 50.681 110.864C52.2809 109.927 53.0688 110.634 52.0073 112.053C51.3501 112.933 51.361 113.035 52.064 112.575C52.5509 112.255 53.4371 112.385 54.0662 112.868C55.0769 113.644 55.1301 113.424 54.5745 110.761L53.9544 107.787L56.0526 108.164C57.2802 108.385 58.3265 108.231 58.5748 107.793C58.8082 107.38 58.4956 107.062 57.8804 107.086C57.2652 107.11 56.9422 106.811 57.1626 106.421C57.3831 106.032 57.2668 105.725 56.9045 105.739C56.5423 105.753 56.2258 105.064 56.2013 104.208C56.113 101.128 55.52 98.879 54.8227 98.9826C53.2539 99.2145 52.3764 98.9525 52.3492 98.244C52.331 97.7677 53.109 97.6396 54.499 97.8888C56.0137 98.1616 56.5246 98.0534 56.1752 97.5337C55.8991 97.1227 54.9904 96.7858 54.1562 96.7853C52.8921 96.7839 52.9619 96.6733 54.5766 96.1212C56.8943 95.3283 58.5304 95.7508 58.0949 97.0302C57.9213 97.5402 58.4748 99.2648 59.3239 100.863C60.1738 102.462 60.9014 104.63 60.9417 105.68C60.982 106.73 61.4136 107.823 61.9016 108.109C62.3888 108.395 63.2783 109.495 63.8777 110.555C64.477 111.615 65.0681 112.135 65.191 111.712C65.3146 111.288 65.6929 111.099 66.0319 111.291C66.3708 111.483 66.4772 112.182 66.2679 112.844C66.0587 113.506 66.1332 113.807 66.4335 113.514C66.733 113.22 67.4172 113.316 67.9529 113.727C68.4893 114.138 69.1187 114.269 69.352 114.017C69.9662 113.353 68.141 110.004 67.4263 110.485C67.0956 110.707 66.622 110.415 66.3734 109.835C66.1179 109.239 66.2225 108.952 66.6139 109.174C66.9939 109.389 67.1639 109.165 66.9908 108.676C66.8176 108.187 66.4522 106.926 66.1786 105.874C65.8675 104.678 65.3926 104.155 64.9115 104.479C64.404 104.82 64.2758 104.601 64.5359 103.837C64.7611 103.175 64.6151 102.761 64.195 102.872C63.7906 102.978 62.9742 101.852 62.3808 100.37C61.7882 98.8885 60.91 97.4539 60.4302 97.1823C59.9512 96.9106 59.515 96.1333 59.462 95.4548C59.3405 93.9129 57.54 90.4846 56.8646 90.5105C56.5874 90.5211 56.4191 90.9167 56.4899 91.3902C56.6302 92.3235 56.1859 92.6133 54.5179 92.6773C53.9255 92.7 53.6204 92.4002 53.8409 92.011C54.0613 91.6218 53.9021 91.3164 53.4881 91.3323C53.0733 91.3482 52.5684 91.8473 52.3663 92.4421C51.7316 94.3065 49.7853 90.1451 49.331 85.9536C49.105 83.8681 48.863 81.7659 48.7925 81.282C48.6344 80.1908 47.3679 80.5966 47.0015 81.856C46.84 82.4098 47.0389 82.5773 47.4931 82.2719C47.9628 81.9562 48.276 82.2904 48.3087 83.142C48.3378 83.9024 48.0789 84.7146 47.7334 84.9466C46.989 85.4473 46.2342 84.4656 45.0425 81.4452C44.3301 79.6387 44.3446 79.2221 45.1237 79.1922C45.649 79.1721 46.0932 79.526 46.1106 79.9788C46.1279 80.4316 46.5332 80.2215 47.0113 79.5123C47.817 78.3177 47.9731 78.3989 49.1304 80.6148C49.8178 81.9308 50.4061 83.6804 50.4377 84.5037C50.5152 86.5242 51.8942 88.7627 52.7196 88.2077C53.0874 87.9603 53.1893 87.206 52.946 86.5307C52.6826 85.7994 52.9028 85.1326 53.4919 84.8802C54.5769 84.4156 54.5091 83.6761 53.1027 80.6169C52.5869 79.4944 52.0207 77.9813 51.8454 77.2542C51.6694 76.5279 51.1595 75.7257 50.7109 75.4716C50.2573 75.2148 50.1214 74.6136 50.4034 74.114C50.7399 73.5203 50.6398 73.4009 50.1046 73.76C49.5202 74.1535 49.3957 73.7595 49.653 72.327C49.9238 70.8144 49.8436 70.6015 49.31 71.4166C48.7084 72.3362 48.6058 72.3166 48.5561 71.2725C48.5251 70.6077 48.1675 70.0759 47.7618 70.0915C47.338 70.1077 47.1882 69.523 47.4094 68.7205C47.6513 67.8424 47.4808 67.3332 46.95 67.3535C46.4053 67.3744 46.5097 66.9032 47.2445 66.0256C48.3897 64.6587 48.3825 62.4852 47.2307 61.7125C46.3574 61.1271 46.3322 55.8841 47.1952 54.3807C47.8175 53.2962 47.8637 53.3464 47.5367 54.7456C47.241 56.0085 47.4797 56.4376 48.6164 56.6889C49.4193 56.8658 50.0868 57.304 50.1006 57.6628C50.1143 58.0208 50.4535 58.093 50.8551 57.8235C51.2755 57.5409 51.3641 56.5662 51.0639 55.5248C50.6446 54.067 50.7203 53.8772 51.4549 54.5468C52.6916 55.6735 53.4812 55.5573 53.4313 54.2571C53.4086 53.6647 53.7084 53.3597 54.0976 53.5801C54.4868 53.8006 54.7874 53.5142 54.7655 52.9439C54.7436 52.3736 54.3776 51.71 53.9516 51.4688C53.5256 51.2276 53.2907 50.2833 53.4288 49.3711C53.5675 48.4583 53.4126 47.7221 53.0849 47.7346C52.758 47.7472 52.4778 47.4464 52.4632 47.0662C52.4487 46.6861 52.9033 46.3571 53.4736 46.3352C54.6999 46.2882 54.6772 46.4891 53.768 43.723C52.9342 41.1867 53.7381 40.7578 55.9131 42.5796C57.0611 43.5407 57.3512 43.5593 57.8368 42.7024C58.1513 42.1469 58.1434 41.3808 57.8193 41C57.4952 40.6186 56.7937 39.0775 56.2598 37.575C55.7252 36.0725 55.0039 34.5577 54.6555 34.2097C53.8218 33.375 53.753 31.0945 54.5611 31.0635C54.9095 31.0502 55.382 31.4211 55.6111 31.8886C55.8395 32.3555 55.9342 32.1185 55.8214 31.3613C55.7079 30.6042 55.3229 29.7896 54.9642 29.5514C54.6061 29.3131 54.2766 28.1572 54.2316 26.9835C54.1866 25.8097 53.9679 24.8558 53.746 24.8651C53.5248 24.8735 53.2263 22.9376 53.0833 20.5637C52.7355 14.7807 51.8181 11.0929 50.7383 11.1343C50.251 11.153 49.3082 9.94647 48.6431 8.45317C47.9781 6.9598 46.1744 4.60605 44.635 3.22238C42.2719 1.09917 41.3116 0.700553 38.4706 0.664817C36.62 0.642341 34.2468 0.551278 33.196 0.462822C31.932 0.356218 31.2983 0.620749 31.3223 1.24425C31.3421 1.762 31.6881 2.17311 32.0904 2.15768C32.4927 2.14226 32.6305 2.46857 32.3958 2.88327C32.1164 3.37646 31.4385 3.22941 30.4349 2.45792C29.5911 1.80906 29.3068 1.70648 29.8024 2.22949C30.7028 3.17798 31.161 4.89252 30.3026 4.09677C30.0528 3.86612 29.3046 3.9959 28.6383 4.38555C27.9728 4.77524 27.3166 4.86759 27.18 4.59034C27.0433 4.31314 25.9676 3.46624 24.7894 2.70908C20.6067 0.0194399 17.0912 3.6613 18.1405 9.59676C18.4772 11.498 19.0674 13.0412 19.4524 13.0265C19.8409 13.0116 19.9191 12.4693 19.6279 11.8082C19.339 11.1534 18.9259 9.53335 18.7097 8.20906C18.3416 5.95876 18.3952 6.00166 19.5325 8.86978C20.2023 10.5575 20.9164 12.8249 21.1207 13.9095C21.4373 15.5941 21.3371 15.7613 20.4256 15.0625C19.0554 14.0115 19.1116 14.8976 20.6507 18.6045C21.3319 20.2447 21.8906 22.1256 21.8937 22.7838C21.8962 23.4428 22.1968 24.1505 22.5612 24.3567C23.4458 24.8579 23.4825 26.7173 22.6087 26.7508C22.2285 26.7654 21.8936 26.1552 21.8644 25.3948C21.8353 24.6344 21.5363 24.0229 21.201 24.0357C20.2367 24.0727 19.9163 26.6575 20.7777 27.4552C21.2055 27.8514 21.32 28.1848 21.0324 28.1958C20.7449 28.2068 20.9838 28.8408 21.5642 29.6049C22.1438 30.3684 22.4839 31.6015 22.32 32.3451C22.1094 33.2988 22.3747 33.6825 23.2236 33.65C24.2135 33.612 24.2806 33.7922 23.6048 34.6738C22.9251 35.5596 23.0067 35.7371 24.0791 35.7043C24.8446 35.6812 25.0781 35.8848 24.6513 36.2016C24.2542 36.4965 23.7426 37.3102 23.514 38.0091C23.2861 38.7088 22.801 39.1116 22.4366 38.9054C22.0722 38.6992 20.6921 39.1218 19.3692 39.8448C17.3316 40.9585 16.9686 41.5284 16.9877 43.5809C17.0001 44.9131 16.9939 46.9901 16.9744 48.1968C16.9549 49.4035 17.2479 50.3268 17.6256 50.2486C18.0034 50.1705 18.2861 50.9716 18.2539 52.0286C18.216 53.2595 18.4586 53.7729 18.9283 53.4572C19.4128 53.1312 19.5668 53.5885 19.3816 54.8084C19.2274 55.823 19.3917 56.6419 19.7463 56.6283C20.1009 56.6147 20.3276 57.3072 20.2498 58.1666C20.1727 59.0266 20.4047 60.1668 20.7665 60.7019C21.1944 61.3348 21.1341 61.7837 20.5922 61.9872C20.004 62.2092 19.9816 62.5472 20.5161 63.1428C21.3449 64.067 22.0075 66.8668 22.6039 71.9681C22.8964 74.4671 22.7038 75.6001 21.823 76.5511C20.0415 78.4747 19.713 79.9812 19.6076 86.7107C19.5542 90.1187 19.2286 93.488 18.8833 94.1963C18.3192 95.3546 18.1444 95.3821 17.1554 94.4661C15.9897 93.3866 15.5708 93.6013 11.0069 97.615C9.12243 99.2726 8.87394 104.057 10.3749 109.818C10.9822 112.15 11.671 114.985 11.9069 116.118C12.1422 117.251 12.666 119.069 13.0705 120.157C14.1504 123.063 14.0538 123.305 11.7775 123.392C10.6369 123.436 9.69177 123.16 9.67719 122.78C9.6344 121.665 6.66029 122.131 5.1651 123.488C2.82429 125.611 2.18614 128.25 3.1406 131.855C3.60687 133.616 4.33533 135.444 4.75984 135.917C5.18435 136.39 5.39228 137.407 5.22244 138.178C5.05191 138.948 5.19472 139.567 5.53966 139.553C5.8839 139.54 6.18455 140.015 6.20727 140.607C6.23057 141.215 6.57255 141.467 6.99095 141.185C7.53016 140.823 7.54011 141.082 7.02743 142.137C5.99359 144.259 6.22606 145.555 7.35145 143.943C8.47752 142.33 8.63523 142.796 7.80052 145.273C7.35984 146.58 7.41906 146.951 8.02837 146.701C8.48092 146.516 9.32905 146.644 9.9133 146.987C10.7922 147.503 10.8349 147.858 10.1579 149.049C9.53014 150.155 9.53417 150.441 10.174 150.282C10.632 150.167 11.0591 150.383 11.1228 150.762C11.1865 151.14 11.635 152.311 12.1198 153.365C13.199 155.711 13.2622 156.564 12.3588 156.599C11.9786 156.613 11.6791 156.927 11.6932 157.295C11.7073 157.663 12.2557 157.739 12.9112 157.464C13.974 157.019 14.0007 157.101 13.1576 158.222C12.3718 159.267 12.373 159.57 13.1642 160.018C13.6871 160.314 14.6036 160.365 15.2003 160.131C15.9669 159.831 16.0881 159.939 15.6146 160.5C15.1239 161.081 14.2308 161.08 12.295 160.497C10.035 159.815 8.30547 159.828 3.05796 160.566C2.62071 160.627 2.43825 161.086 2.65195 161.586C2.86632 162.086 2.77301 162.504 2.44466 162.517C-0.203532 162.619 0.25289 177.931 3.04644 182.702C3.45681 183.402 3.88877 185.207 4.00671 186.712C4.12464 188.216 4.49959 189.437 4.839 189.424C5.1791 189.411 5.29214 189.885 5.09061 190.479C4.87654 191.107 5.18297 191.714 5.82267 191.932C6.60477 192.198 6.69303 192.46 6.12885 192.839C5.43236 193.307 7.23788 199.5 9.92073 205.843C10.1583 206.405 10.3099 207.109 10.2569 207.408C10.2047 207.706 10.6363 208.111 11.2164 208.309C11.7964 208.506 12.1099 208.952 11.9121 209.301C11.715 209.649 11.8052 209.925 12.1128 209.914C12.4204 209.902 12.748 210.681 12.841 211.643C12.9333 212.607 13.8481 214.114 14.8732 214.994C15.8983 215.873 16.7542 217.055 16.776 217.621C16.7977 218.187 17.1558 218.843 17.5712 219.078C17.9873 219.314 18.1994 219.882 18.0426 220.342C17.8865 220.801 18.2028 221.738 18.7455 222.423C19.2882 223.109 19.5791 223.941 19.391 224.273C19.203 224.605 19.3791 224.864 19.7814 224.849C20.1837 224.833 20.5254 225.132 20.5399 225.512C20.5545 225.892 19.7957 226.233 18.8542 226.269C17.809 226.309 16.7431 226.998 16.1163 228.039C15.0314 229.842 15.1771 233.333 16.3712 234.142C16.7621 234.407 16.4601 234.656 15.7002 234.697C14.5541 234.758 14.4998 234.879 15.3811 235.402C16.0894 235.822 16.1555 236.046 15.58 236.076C15.1053 236.1 14.7342 236.586 14.7561 237.156C14.778 237.727 14.5124 238.204 14.1654 238.217C13.8191 238.231 13.661 238.782 13.8137 239.442C13.9664 240.103 14.1241 240.875 14.1641 241.16C14.2047 241.444 14.6519 241.66 15.1586 241.641C15.666 241.621 16.0984 241.994 16.1201 242.469C16.1418 242.944 16.4105 244.102 16.7165 245.042C17.262 246.719 17.2498 246.727 16.0537 245.414C14.9733 244.228 14.8905 244.218 15.3221 245.326C15.59 246.012 15.8202 246.851 15.8331 247.188C15.846 247.525 16.3163 247.604 16.8782 247.363C17.4401 247.122 17.9131 247.27 17.9292 247.691C17.9453 248.112 17.588 248.47 17.1353 248.488C16.6376 248.507 16.7544 248.845 17.4297 249.342C18.6543 250.242 21.981 258.536 21.4752 259.429C21.3028 259.734 21.4898 260.079 21.8909 260.196C22.2921 260.313 22.8336 262.266 23.0944 264.536C23.4052 267.243 23.9614 268.93 24.7113 269.438C25.3403 269.865 25.6623 270.553 25.4269 270.968C25.1922 271.383 25.3294 271.71 25.7317 271.695C26.134 271.68 26.4743 271.943 26.4873 272.28C26.5195 273.121 22.2206 273.882 21.2944 273.198C19.9543 272.208 17.8251 273.422 16.6322 275.857C15.9901 277.167 15.0679 278.409 14.5823 278.616C14.0892 278.828 13.8773 279.584 14.1031 280.328C14.3251 281.061 14.1759 281.883 13.7717 282.155C12.8586 282.769 13.6703 289.007 15.3458 294.246C17.3036 300.368 19.6056 306.744 20.6467 308.927C21.8046 311.356 24.8071 318.722 24.8245 319.177C24.8312 319.352 24.3702 319.514 23.7999 319.536C23.2296 319.558 22.7503 319.244 22.7347 318.838C22.7179 318.4 22.1164 318.313 21.2554 318.623C20.3765 318.939 19.9586 318.872 20.1959 318.453C20.8417 317.313 18.155 314.913 17.0591 315.65C16.5124 316.018 15.7773 316.037 15.3329 315.697C13.7209 314.46 11.4325 316.016 10.2203 319.174C9.56125 320.89 9.04586 322.921 9.07521 323.686C9.16901 326.132 11.4526 332.156 14.1061 336.957C15.5224 339.519 16.6963 341.987 16.7151 342.44C16.7339 342.893 17.4541 344.362 18.3162 345.702L19.8835 348.14L17.9405 347.731C16.6229 347.454 15.7648 347.642 15.277 348.317C14.8812 348.864 13.3162 349.374 11.7988 349.45C7.25859 349.676 6.59084 353.113 9.56751 360.926C10.639 363.739 11.3545 365.499 11.7842 366.379C11.8759 366.566 12.2085 367.422 12.5246 368.283C12.84 369.143 13.4388 369.719 13.855 369.561C14.9531 369.148 18.5892 374.59 17.876 375.579C17.5382 376.048 17.6135 377.128 18.0556 378.169C18.4727 379.151 18.618 379.962 18.3781 379.971C18.139 379.981 18.4614 380.519 19.0955 381.168C19.7296 381.816 20.448 383.274 20.6929 384.407C20.9378 385.54 22.1609 388.388 23.4119 390.736C24.6622 393.084 25.532 395.277 25.3433 395.609C25.1553 395.942 25.3983 396.357 25.8834 396.532C26.5714 396.781 26.5633 397.004 25.8483 397.548C25.074 398.135 25.0802 398.296 25.888 398.582C26.5378 398.813 26.4449 398.954 25.5961 399.023C24.9095 399.08 24.5217 399.385 24.7354 399.702C24.9483 400.019 24.3738 400.655 23.459 401.115C22.0612 401.817 21.8749 402.283 22.2935 404.028C22.5858 405.243 22.4637 406.534 21.9988 407.14C20.8708 408.611 22.6731 411.797 24.9359 412.331C25.8965 412.558 26.264 412.791 25.7525 412.848C25.0653 412.926 25.243 413.607 26.4371 415.463L28.0508 417.974L26.5739 419.265C25.6074 420.112 23.9322 420.602 21.7182 420.687C19.8594 420.759 18.3502 421.118 18.3643 421.485C18.3783 421.852 17.315 423.314 16.0015 424.733C14.0225 426.87 13.7061 427.627 14.1586 429.153C14.4591 430.166 14.8523 431.611 15.0321 432.364C15.2119 433.117 15.6788 433.827 16.0701 433.941C16.4614 434.055 16.6479 434.385 16.4838 434.675C16.1635 435.24 17.9051 440.722 19.0434 442.732C19.4244 443.404 19.991 445.112 20.3028 446.526C20.8291 448.913 20.7556 449.09 19.2771 448.988C18.2332 448.917 17.7659 449.203 17.9218 449.82C18.0696 450.407 17.7658 450.627 17.1142 450.406C16.3573 450.148 16.2024 450.37 16.5537 451.208C16.9767 452.218 16.8858 452.25 15.8359 451.461C14.7944 450.678 14.6395 450.717 14.6792 451.753C14.7094 452.54 14.3596 452.824 13.6561 452.584C11.8976 451.986 6.42797 453.214 6.46575 454.199C6.48836 454.788 5.79148 455.029 4.41617 454.909C2.77967 454.765 2.36899 454.978 2.5019 455.898C2.59515 456.542 2.84493 458.542 3.0566 460.343ZM1.40306 165.845C1.61345 166.313 1.64327 167.09 1.46934 167.573C1.29608 168.056 1.12426 167.673 1.08781 166.723C1.05136 165.772 1.19335 165.377 1.40306 165.845ZM2.83623 184.784C3.01689 184.278 2.96912 183.683 2.73083 183.462C2.49253 183.241 2.34503 183.655 2.4027 184.383C2.46676 185.187 2.63688 185.344 2.83623 184.784ZM5.3117 171.407C5.70201 171.963 6.03322 172.729 6.04781 173.109C6.06239 173.489 5.75503 173.345 5.36472 172.789C4.97441 172.233 4.6432 171.467 4.62862 171.087C4.61404 170.707 4.92139 170.85 5.3117 171.407ZM9.8569 181.616C10.2472 182.173 10.5641 183.251 10.5614 184.012C10.5574 185.153 10.4473 185.097 9.93643 183.69C9.06019 181.276 9.02795 180.435 9.8569 181.616ZM23.2039 433.091C23.7168 433.072 24.75 434.289 25.5008 435.798C26.4518 437.707 27.0277 438.263 27.3966 437.629C27.6882 437.128 27.9474 437.028 27.9731 437.408C27.9987 437.788 28.225 438.761 28.4763 439.572C28.8278 440.706 28.6417 441.033 27.6722 440.988C26.8899 440.952 25.6281 439.513 24.3508 437.201C21.9413 432.84 22.0239 433.136 23.2039 433.091ZM15.8434 189.913C16.4028 190.113 16.2453 190.283 15.4412 190.347C14.7138 190.405 14.2997 190.257 14.5204 190.019C14.7411 189.781 15.3367 189.733 15.8434 189.913ZM16.0232 197.994C16.4034 197.98 16.7271 198.298 16.7425 198.7C16.758 199.102 16.4522 199.252 16.063 199.031C15.6738 198.811 15.3501 198.494 15.3436 198.326C15.3372 198.158 15.643 198.009 16.0232 197.994ZM16.794 200.042C17.1742 200.027 17.5039 200.5 17.5266 201.093C17.5493 201.685 17.2495 201.99 16.8603 201.77C16.4711 201.549 16.1414 201.077 16.1277 200.719C16.114 200.361 16.4138 200.056 16.794 200.042ZM15.8661 175.848C16.2463 175.833 16.57 176.151 16.5854 176.553C16.6009 176.956 16.2951 177.105 15.9059 176.885C15.5167 176.664 15.193 176.347 15.1865 176.179C15.1801 176.011 15.4859 175.862 15.8661 175.848ZM16.5975 162.302C16.8186 162.506 16.6278 163.072 16.1729 163.56C15.516 164.264 15.4341 164.187 15.771 163.188C16.0048 162.496 16.3765 162.098 16.5975 162.302ZM17.9279 202.767C18.2279 202.756 20.5334 207.292 20.5584 207.943C20.5949 208.895 19.0175 207.983 18.4564 206.728C17.7015 205.04 17.4012 202.787 17.9279 202.767ZM18.044 196.532C18.4241 196.518 18.7479 196.836 18.7633 197.238C18.7787 197.64 18.4729 197.79 18.0837 197.569C17.6945 197.349 17.3708 197.032 17.3644 196.864C17.3579 196.696 17.6638 196.547 18.044 196.532ZM23.0123 289.452C23.8226 290.563 24.3729 292.022 24.2353 292.694C24.0977 293.367 24.2254 293.755 24.5204 293.557C24.8146 293.359 25.2636 293.731 25.5177 294.383C27.12 298.488 28.2918 301.788 28.3193 302.27C28.3968 303.622 26.9945 301.895 26.513 300.044C26.22 298.92 25.583 297.78 25.097 297.511C24.2603 297.048 21.8264 290.697 21.6301 288.467C21.5806 287.898 22.202 288.341 23.0123 289.452ZM21.7302 208.642C22.2451 208.818 22.498 209.258 22.2925 209.621C22.0876 209.983 22.6329 211.53 23.5049 213.057C24.3769 214.584 24.9396 216.277 24.7554 216.819C24.5395 217.453 24.8183 217.717 25.5391 217.56C26.155 217.426 26.7939 217.659 26.9594 218.077C27.1251 218.497 26.5929 218.827 25.7707 218.814C24.6209 218.797 23.9111 217.908 22.6523 214.904C21.7561 212.766 20.6205 210.646 20.1296 210.193C19.0719 209.219 20.2032 208.123 21.7302 208.642ZM24.3644 207.127C24.9599 207.33 25.3044 207.65 25.1303 207.838C24.9561 208.026 24.4735 207.988 24.0588 207.753C22.9294 207.113 23.1285 206.707 24.3644 207.127ZM28.6227 298.99C28.8317 298.374 29.3581 298.091 29.8097 298.35C30.2556 298.606 31.0601 298.807 31.5983 298.797C32.1365 298.786 33.0918 300.158 33.723 301.849C34.3533 303.538 35.1678 305.099 35.532 305.318C35.8969 305.537 36.1684 305.919 36.1364 306.168C36.1044 306.416 36.9204 308.289 37.9498 310.329C38.9793 312.37 40.0501 314.821 40.3298 315.777C40.6087 316.733 41.359 317.794 41.9957 318.133C42.9081 318.62 42.9414 318.764 42.1519 318.811C41.3728 318.857 41.342 319.048 42.0117 319.668C42.4854 320.107 42.885 321.104 42.9004 321.884C42.9202 322.924 42.6051 322.669 41.7172 320.926C41.051 319.618 40.5486 318.305 40.6001 318.007C40.6517 317.709 40.1934 317.294 39.5818 317.086C38.5184 316.724 36.7302 313.727 36.9228 312.629C36.9727 312.341 36.7032 312.118 36.323 312.133C35.9428 312.147 35.6093 311.575 35.5819 310.861C35.5258 309.396 33.6028 307.632 32.8948 308.396C32.6402 308.671 32.8405 309.128 33.3401 309.41C33.839 309.693 34.3133 310.904 34.3938 312.102C34.4736 313.298 34.8548 314.266 35.2405 314.251C35.6262 314.236 35.7792 314.399 35.5812 314.614C34.9856 315.257 30.1529 312.788 30.0975 311.812C30.0687 311.314 30.342 311.075 30.7043 311.28C31.0667 311.486 31.5505 311.322 31.78 310.917C32.0095 310.512 31.9428 310.234 31.6311 310.301C30.0649 310.635 29.5995 310.108 29.515 307.905C29.4578 306.412 29.6514 305.811 30.0249 306.327C30.8576 307.479 30.1934 304.167 29.1614 302.023C28.7109 301.089 28.321 300.272 28.2943 300.21C28.2683 300.146 28.4155 299.597 28.6227 298.99ZM22.4024 17.9786C22.9618 18.1781 22.8043 18.3482 22.0002 18.4122C21.2728 18.4699 20.8587 18.3224 21.0794 18.0841C21.3001 17.8458 21.8957 17.798 22.4024 17.9786ZM30.7232 220.276C31.1034 220.261 31.4264 220.56 31.4409 220.94C31.4555 221.32 31.1564 221.644 30.7762 221.658C30.396 221.673 30.073 221.374 30.0584 220.993C30.0439 220.613 30.343 220.29 30.7232 220.276ZM31.075 210.334C31.6413 210.859 36.2798 221.137 36.3234 221.965C36.3284 222.059 36.0424 222.148 35.6878 222.162C35.3332 222.176 34.7969 221.496 34.4966 220.65C34.1955 219.805 33.1945 217.585 32.2721 215.716C30.214 211.548 29.7635 210.362 30.0881 209.962C30.2256 209.792 30.6702 209.959 31.075 210.334ZM25.7125 89.6285C26.0927 89.6139 26.4217 90.0685 26.4435 90.6388C26.4654 91.2091 26.1722 91.6876 25.792 91.7022C25.4119 91.7168 25.0829 91.2621 25.061 90.6919C25.0391 90.1216 25.3323 89.643 25.7125 89.6285ZM31.494 222.323C31.8742 222.308 32.1972 222.607 32.2117 222.988C32.2263 223.368 31.9272 223.691 31.547 223.705C31.1668 223.72 30.8438 223.421 30.8292 223.041C30.8146 222.66 31.1138 222.337 31.494 222.323ZM44.4994 507.382C46.0809 508.707 46.3917 509.736 45.2228 509.781C44.8073 509.797 44.2802 509.194 44.0527 508.441C43.8245 507.689 43.3112 507.085 42.9123 507.101C42.5128 507.116 42.3839 506.915 42.6252 506.654C42.8665 506.393 43.7098 506.721 44.4994 507.382ZM45.7782 514.606C45.9462 514.599 46.2871 514.898 46.5367 515.269C46.7863 515.64 46.6607 515.956 46.2584 515.972C45.8561 515.987 45.5144 515.689 45.4999 515.309C45.4853 514.928 45.6102 514.612 45.7782 514.606ZM47.8026 511.308C49.0071 512.334 48.5955 512.65 46.7232 512.134C45.6058 511.826 45.4179 511.547 46.0428 511.127C46.5193 510.807 47.3088 510.888 47.8026 511.308ZM36.3593 222.828C36.7394 222.814 37.0632 223.132 37.0786 223.534C37.094 223.936 36.7882 224.086 36.399 223.865C36.0098 223.645 35.6861 223.328 35.6797 223.16C35.6733 222.992 35.9791 222.843 36.3593 222.828ZM37.1301 224.876C37.5102 224.861 37.8266 224.986 37.833 225.154C37.8394 225.322 37.541 225.663 37.1698 225.913C36.7986 226.162 36.4823 226.037 36.4669 225.634C36.4514 225.232 36.7499 224.89 37.1301 224.876ZM49.6341 514.804C50.5248 516.675 50.5508 517.352 49.7137 516.878C49.3245 516.657 49.002 515.795 48.9963 514.961C48.9873 513.499 49.01 513.493 49.6341 514.804ZM38.5362 227.207C39.0735 228.439 39.1459 228.411 39.5515 226.822C39.9687 225.193 40.0193 225.176 40.6443 226.472C41.5017 228.25 41.6044 229.466 40.7987 228.295C39.606 226.565 39.2976 228.812 40.4105 231.115C41.0076 232.351 41.5081 232.894 41.5236 232.322C41.5477 231.398 41.6293 231.395 42.2605 232.294C43.2336 233.68 43.1977 234.368 42.1605 234.202C41.0642 234.026 38.1404 229.107 38.0364 227.264C37.9598 225.916 37.9722 225.914 38.5362 227.207ZM45.082 323.912C45.4531 323.662 45.7688 323.769 45.7834 324.149C45.7979 324.529 45.5062 325.045 45.135 325.294C44.7638 325.544 44.4482 325.437 44.4336 325.057C44.419 324.676 44.7108 324.161 45.082 323.912ZM47.7378 301.77C48.2897 302.281 47.9886 302.606 46.6835 302.908C45.0147 303.294 44.9472 303.232 45.9097 302.192C46.6636 301.379 47.1851 301.258 47.7378 301.77ZM38.4845 115.791C38.8737 116.012 39.2041 116.503 39.2187 116.883C39.2333 117.263 38.9268 117.394 38.5375 117.174C38.1483 116.953 37.818 116.462 37.8034 116.082C37.7888 115.701 38.0953 115.571 38.4845 115.791ZM43.697 224.624C44.2673 224.602 44.7223 224.283 44.7082 223.914C44.6941 223.547 44.2228 223.442 43.6609 223.682C43.099 223.923 42.6439 224.243 42.6497 224.392C42.6554 224.541 43.1267 224.646 43.697 224.624ZM43.0243 222.085C43.4277 222.314 44.3306 222.031 45.0314 221.457C46.4013 220.335 45.7364 220.166 43.6073 221.095C42.8482 221.427 42.6012 221.846 43.0243 222.085ZM56.1868 523.206C56.567 523.191 56.8907 523.509 56.9061 523.912C56.9216 524.314 56.6158 524.463 56.2266 524.243C55.8374 524.022 55.5137 523.705 55.5072 523.537C55.5008 523.369 55.8066 523.221 56.1868 523.206ZM54.1255 459.622C54.6875 460.054 54.9874 460.689 54.7923 461.033C54.5971 461.379 54.9036 461.643 55.4739 461.621C56.5916 461.578 57.7037 462.778 57.1254 463.403C56.4952 464.083 53.4047 461.478 53.2523 460.138C53.1322 459.085 53.2981 458.987 54.1255 459.622ZM47.5029 277.091C48.0717 276.217 48.2708 276.192 48.6094 276.953C48.9579 277.737 49.1196 277.73 49.6463 276.913C50.1736 276.096 50.3347 276.09 50.6832 276.874C51.0044 277.596 51.2063 277.607 51.5933 276.923C52.2028 275.848 53.6498 276.556 53.7035 277.955C53.725 278.515 54.6081 280.531 55.6662 282.434C57.2054 285.204 57.4097 286.017 56.688 286.515C56.0142 286.979 56.0048 287.13 56.6507 287.113C57.1265 287.101 57.5331 287.557 57.555 288.127C57.5768 288.698 58.0821 289.146 58.6779 289.123C59.4708 289.092 59.6283 288.668 59.2646 287.543C58.8751 286.339 58.9336 286.223 59.533 287.013C59.9544 287.568 60.3254 288.597 60.3586 289.298C60.391 289.999 60.9663 291.535 61.6372 292.71C64.4641 297.664 64.752 298.582 63.4959 298.63C63.1158 298.644 62.7861 298.171 62.7634 297.579C62.7406 296.986 62.4514 296.683 62.1207 296.905C61.4796 297.336 59.1844 294.513 59.1354 293.234C59.1192 292.813 58.6215 292.02 58.0294 291.472C57.4372 290.923 56.9284 289.841 56.8988 289.068C56.8663 288.222 56.5029 287.807 55.9901 288.027C55.5194 288.228 54.7395 288.001 54.2566 287.522C53.5586 286.83 53.6203 286.579 54.5598 286.294C55.3926 286.04 55.2623 285.93 54.1168 285.917C53.1182 285.906 52.3348 285.372 52.0796 284.53C51.8513 283.777 51.3381 283.174 50.9392 283.189C50.5397 283.205 50.3982 283.017 50.6249 282.773C51.1308 282.226 49.7402 280.895 48.0837 280.339C46.6965 279.874 46.4797 278.662 47.5029 277.091ZM46.6996 239.739C47.0798 239.724 47.3723 239.227 47.3495 238.635C47.3268 238.042 47.0045 237.761 46.6333 238.011C46.2622 238.26 45.9697 238.757 45.9834 239.115C45.9971 239.473 46.3194 239.753 46.6996 239.739ZM46.5682 225.483C47.2185 225.704 47.9004 225.724 48.0832 225.527C48.266 225.329 47.8832 224.987 47.233 224.765C46.5827 224.544 45.9008 224.524 45.718 224.722C45.5352 224.919 45.918 225.261 46.5682 225.483ZM43.1515 139.7C43.8632 139.9 46.3812 143.947 46.4973 145.078C46.643 146.495 44.9947 145.394 44.2933 143.605C43.8521 142.48 43.2619 141.568 42.9827 141.579C42.7027 141.589 42.4557 141.123 42.4334 140.542C42.4111 139.961 42.7344 139.582 43.1515 139.7ZM44.0422 123.846C45.2084 125.318 45.396 126.256 44.5313 126.289C43.8338 126.316 42.2714 123.412 42.7072 122.899C42.8742 122.703 43.4748 123.129 44.0422 123.846ZM41.9864 62.698C42.3666 62.6834 42.6896 62.9826 42.7042 63.3627C42.7188 63.743 42.4196 64.0659 42.0395 64.0805C41.6593 64.0951 41.3363 63.796 41.3217 63.4158C41.3071 63.0356 41.6062 62.7126 41.9864 62.698ZM43.2019 69.354C43.8775 69.0643 44.0717 69.3808 43.8855 70.4651C43.6256 71.9718 43.6311 71.9723 44.7522 70.5531C45.7544 69.2844 45.8369 69.2688 45.4908 70.4084C45.2763 71.1137 45.1118 71.9882 45.1257 72.3504C45.1407 72.7416 44.5768 72.73 43.7401 72.3225C42.1119 71.5301 41.8241 69.944 43.2019 69.354ZM42.8102 66.1278C43.1904 66.1132 43.5134 66.4123 43.528 66.7925C43.5426 67.1727 43.2435 67.4957 42.8633 67.5103C42.4831 67.5248 42.1601 67.2257 42.1455 66.8455C42.1309 66.4653 42.4301 66.1424 42.8102 66.1278ZM52.3981 280.018C52.7873 280.238 53.0938 280.108 53.0792 279.727C53.0646 279.347 52.7342 278.856 52.345 278.636C51.9558 278.415 51.6493 278.546 51.6639 278.926C51.6785 279.306 52.0089 279.798 52.3981 280.018ZM51.3243 252.022C51.7045 252.008 52.0208 252.133 52.0273 252.301C52.0337 252.469 51.7353 252.809 51.3641 253.059C50.9929 253.309 50.6766 253.183 50.6612 252.781C50.6457 252.378 50.9442 252.037 51.3243 252.022ZM50.5025 230.593C50.9287 231.201 51.2036 231.276 51.1916 230.781C51.1797 230.328 50.8519 229.777 50.4627 229.556C49.5838 229.059 49.593 229.298 50.5025 230.593ZM45.9942 115.157C46.7166 115.129 47.6296 118.628 47.1303 119.51C46.9404 119.845 46.501 119.709 46.1543 119.205C45.3266 118.003 45.2152 115.187 45.9942 115.157ZM44.1937 57.0752C44.764 57.0533 45.2425 57.3465 45.2571 57.7267C45.2717 58.1069 44.817 58.4358 44.2468 58.4577C43.6765 58.4796 43.1979 58.1864 43.1834 57.8062C43.1688 57.426 43.6234 57.097 44.1937 57.0752ZM46.5533 110.982C47.3172 110.953 49.1719 115.65 48.6282 116.237C48.4187 116.462 47.9443 115.914 47.5735 115.019C47.2021 114.124 46.705 112.932 46.4688 112.37C46.2319 111.808 46.0106 111.271 45.9772 111.177C45.9439 111.083 46.2029 110.995 46.5533 110.982ZM45.0487 59.6038C46.146 59.8033 46.8326 63.8967 45.7757 63.9372C45.2351 63.958 44.9973 63.5337 45.2057 62.9207C45.403 62.342 45.2475 61.8807 44.8597 61.8955C44.4726 61.9104 44.2153 61.3747 44.2873 60.706C44.3593 60.0373 44.7023 59.5409 45.0487 59.6038ZM53.9504 284.105C54.3277 283.851 54.4466 283.361 54.2139 283.016C53.5848 282.08 53.1769 282.274 53.2234 283.489C53.2462 284.081 53.5732 284.358 53.9504 284.105ZM52.4471 234.672C53.0191 235.616 53.4497 235.906 53.4206 235.327C53.3925 234.757 52.8897 233.704 52.3029 232.988C50.981 231.372 51.0687 232.398 52.4471 234.672ZM60.002 374.891C61.0571 375.758 61.1273 375.73 60.6582 374.636C60.37 373.962 60.1088 372.892 60.079 372.258C60.031 371.261 59.9385 371.249 59.3936 372.168C58.5672 373.561 58.6082 373.746 60.002 374.891ZM61.0644 404.828C61.3027 405.049 61.3504 405.644 61.1698 406.151C60.9704 406.711 60.8003 406.553 60.7362 405.749C60.6786 405.022 60.8261 404.607 61.0644 404.828ZM57.2885 293.002C57.8281 293.733 58.4624 294.946 58.6975 295.699C58.9327 296.451 59.344 297.681 59.6117 298.433C59.8793 299.184 59.276 298.272 58.2706 296.407C56.259 292.674 55.7552 290.929 57.2885 293.002ZM66.2317 525.59C66.3748 525.584 66.9404 526.108 67.4878 526.753C68.3891 527.817 68.3658 527.842 67.2365 527.024C66.0502 526.165 65.6628 525.612 66.2317 525.59ZM64.8476 460.223C65.2188 459.974 65.5172 459.633 65.5108 459.465C65.5043 459.297 65.188 459.172 64.8078 459.186C64.4276 459.201 64.1292 459.543 64.1446 459.945C64.1601 460.347 64.4764 460.473 64.8476 460.223ZM49.5902 62.4064C50.0164 63.0138 50.2914 63.0891 50.2793 62.5939C50.2675 62.1409 49.9397 61.5899 49.5505 61.3695C48.6716 60.8722 48.6808 61.1114 49.5902 62.4064ZM60.9675 341.295C61.3631 341.518 61.712 342.367 61.7433 343.182C61.7822 344.196 62.0154 344.429 62.484 343.923C62.9534 343.416 62.8362 342.599 62.1109 341.324C61.5296 340.301 60.8722 339.784 60.6512 340.176C60.4294 340.567 60.572 341.07 60.9675 341.295ZM59.2947 280.962C60.0519 282.963 60.9149 284.165 61.5545 284.108C62.261 284.047 62.3114 283.917 61.712 283.702C61.2297 283.528 60.813 282.826 60.7867 282.141C60.7215 280.441 58.7573 276.337 58.3763 277.105C58.2072 277.446 58.6206 279.181 59.2947 280.962ZM58.5815 260.743C60.4285 263.829 60.5103 265.078 58.6948 262.47C57.9204 261.357 57.2591 259.981 57.2255 259.411C57.1919 258.841 57.8019 259.441 58.5815 260.743ZM55.5042 198.557C55.8946 199.113 56.2151 200.035 56.2156 200.607C56.2169 201.291 55.9974 201.182 55.5705 200.285C54.6813 198.416 54.6394 197.325 55.5042 198.557ZM52.857 127.655C53.4158 127.281 54.9706 130.491 55.0342 132.15C55.0626 132.892 55.3617 133.489 55.6984 133.476C56.035 133.463 56.8696 134.521 57.5518 135.828C59.0737 138.741 59.7093 138.869 58.9939 136.119C58.3264 133.552 58.8753 133.46 60.32 135.895L61.4242 137.756L61.361 135.385C61.2747 132.141 59.6908 128.479 58.3901 128.517C57.5347 128.54 57.501 128.421 58.2241 127.923C58.887 127.467 58.6556 127.228 57.3598 127.032C56.3871 126.884 55.2767 127.103 54.8918 127.518C54.4032 128.046 54.1836 128.023 54.1614 127.443C54.1439 126.987 54.3743 126.604 54.6736 126.593C54.9729 126.581 55.2407 125.948 55.269 125.185C55.3316 123.479 54.2175 123.383 53.8805 125.065C53.6782 126.072 53.4909 125.989 52.8099 124.587C52.0298 122.983 51.9969 123.028 52.2163 125.408C52.3449 126.793 52.6329 127.805 52.857 127.655ZM52.1352 116.435C52.3159 115.929 52.2681 115.334 52.0298 115.113C51.7915 114.892 51.644 115.306 51.7017 116.034C51.7657 116.838 51.9359 116.995 52.1352 116.435ZM69.6058 530.497C71.2855 530.306 72.1591 531.443 71.16 532.522C70.6169 533.109 70.4113 533.09 70.3868 532.451C70.3685 531.972 70.0754 531.767 69.7359 531.995C69.3964 532.224 68.9465 532.026 68.7353 531.555C68.5248 531.085 68.3269 530.69 68.2966 530.677C68.2664 530.664 68.8552 530.583 69.6058 530.497ZM70.1313 517.919C71.4708 519.253 72.9895 520.494 73.5067 520.678C74.0885 520.884 73.9288 521.052 73.0882 521.119C72.3407 521.177 70.8257 520.248 69.7227 519.052C66.8676 515.961 67.2105 515.011 70.1313 517.919ZM68.245 512.706C68.6342 512.926 68.962 513.477 68.9738 513.93C68.9859 514.425 68.7109 514.35 68.2847 513.742C67.3753 512.448 67.3661 512.208 68.245 512.706ZM70.8176 535.092C71.6956 535.766 71.898 535.755 71.8704 535.035C71.8517 534.545 72.0056 534.3 72.2124 534.492C72.4184 534.683 72.4067 535.372 72.1852 536.022C71.8082 537.13 71.6969 537.134 70.4359 536.078C68.8631 534.76 69.2114 533.86 70.8176 535.092ZM58.5555 249.163C58.7938 249.384 58.8416 249.98 58.6609 250.486C58.4616 251.046 58.2915 250.888 58.2274 250.084C58.1698 249.357 58.3172 248.943 58.5555 249.163ZM53.5424 90.4392C54.2221 90.362 54.9231 89.8698 55.1017 89.3458C55.3021 88.7574 55.9534 88.5385 56.8063 88.7738C58.0867 89.1269 58.1251 88.9911 57.3353 86.8975C55.9673 83.2685 55.4599 83.2886 53.8391 87.0371C52.4453 90.2626 52.4183 90.5675 53.5424 90.4392ZM60.8409 265.503C61.2211 265.488 61.5448 265.806 61.5602 266.208C61.5756 266.61 61.2698 266.76 60.8806 266.54C60.4914 266.319 60.1678 266.002 60.1613 265.834C60.1549 265.666 60.4607 265.517 60.8409 265.503ZM54.5577 101.675C54.9378 101.661 55.2608 101.96 55.2754 102.34C55.29 102.72 54.9909 103.043 54.6107 103.058C54.2305 103.072 53.9075 102.773 53.8929 102.393C53.8783 102.013 54.1775 101.69 54.5577 101.675ZM54.9308 93.3538C55.311 93.3392 55.634 93.6383 55.6485 94.0185C55.6631 94.3987 55.364 94.7217 54.9838 94.7363C54.6036 94.7509 54.2806 94.4517 54.266 94.0715C54.2514 93.6914 54.5506 93.3683 54.9308 93.3538ZM70.7602 447.424C71.2431 447.597 70.86 447.769 69.9095 447.805C68.959 447.841 68.5645 447.699 69.0321 447.49C69.5003 447.279 70.2779 447.25 70.7602 447.424ZM66.8099 385.037C67.1901 385.022 67.5138 385.34 67.5292 385.742C67.5446 386.144 67.2388 386.294 66.8496 386.073C66.4604 385.853 66.1368 385.536 66.1303 385.368C66.1239 385.2 66.4297 385.051 66.8099 385.037ZM55.3437 86.0691C55.7329 86.2895 56.0632 86.7808 56.0778 87.161C56.0924 87.5412 55.7859 87.672 55.3967 87.4516C55.0075 87.2311 54.6771 86.7398 54.6625 86.3597C54.648 85.9795 54.9545 85.8486 55.3437 86.0691ZM73.6581 528.399C74.0792 528.637 74.276 529.094 74.0951 529.414C73.9143 529.734 74.5601 530.474 75.5316 531.058C77.4201 532.194 77.9058 533.449 76.4783 533.504C75.6364 533.536 73.9257 531.585 72.9563 529.486C72.3773 528.233 72.642 527.824 73.6581 528.399ZM66.3081 353.904C66.6883 353.889 67.0046 354.014 67.0111 354.182C67.0175 354.35 66.7191 354.691 66.3479 354.941C65.9767 355.19 65.6604 355.065 65.6449 354.662C65.6295 354.26 65.9279 353.918 66.3081 353.904ZM63.3255 268.176C63.8737 268.155 64.5257 268.442 64.7753 268.813C65.0249 269.184 65.0804 269.494 64.8993 269.501C64.7175 269.508 64.0846 269.721 63.4921 269.975C62.7851 270.277 62.4 270.055 62.372 269.325C62.3486 268.714 62.7774 268.197 63.3255 268.176ZM75.966 542.545C76.3462 542.53 76.2022 542.838 75.646 543.228C75.0899 543.618 74.3238 543.949 73.9436 543.964C73.5634 543.979 73.7074 543.671 74.2635 543.281C74.8197 542.891 75.5858 542.559 75.966 542.545ZM73.3649 521.855C73.703 521.842 74.7388 522.442 75.6659 523.188L77.3524 524.544L75.606 524.135C74.6455 523.91 73.6176 523.388 73.322 522.975C72.6242 521.999 72.6287 521.883 73.3649 521.855ZM66.4158 302.562C67.3663 302.526 67.7495 302.354 67.2665 302.181C66.7843 302.007 66.0066 302.036 65.5384 302.247C65.0709 302.457 65.4654 302.599 66.4158 302.562ZM68.4614 355.898C68.8416 355.883 69.1646 356.182 69.1792 356.563C69.1938 356.943 68.8946 357.266 68.5144 357.28C68.1342 357.295 67.8113 356.996 67.7967 356.616C67.7821 356.235 68.0812 355.912 68.4614 355.898ZM66.0356 292.648C66.4248 292.869 66.7306 292.719 66.7152 292.317C66.6997 291.914 66.376 291.597 65.9958 291.611C65.6157 291.626 65.3098 291.775 65.3163 291.943C65.3227 292.111 65.6464 292.428 66.0356 292.648ZM61.9131 185.158C62.2933 185.143 62.617 185.461 62.6324 185.864C62.6478 186.266 62.342 186.415 61.9528 186.195C61.5636 185.974 61.24 185.657 61.2335 185.489C61.2271 185.321 61.5329 185.173 61.9131 185.158ZM76.0077 526.541C75.7794 526.201 76.0443 525.906 76.5966 525.885C77.1489 525.863 77.7806 526.268 78.0018 526.783C78.2808 527.435 77.8424 527.736 76.5563 527.776C75.5406 527.807 75.0948 527.681 75.566 527.496C76.0372 527.309 76.2361 526.88 76.0077 526.541ZM74.243 447.982C74.7259 448.155 74.3427 448.327 73.3923 448.364C72.4418 448.4 72.0473 448.258 72.5148 448.048C72.9831 447.838 73.7607 447.808 74.243 447.982ZM64.3349 188.575C65.7966 188.566 65.8023 188.589 64.4915 189.213C62.6206 190.103 61.9438 190.129 62.4178 189.292C62.6382 188.903 63.5009 188.581 64.3349 188.575ZM56.8513 35.1293C57.2775 35.7367 57.5525 35.812 57.5404 35.3169C57.5286 34.8638 57.2008 34.3129 56.8116 34.0924C55.9327 33.5952 55.9419 33.8344 56.8513 35.1293ZM71.541 396.485C72.6651 397.526 73.5171 397.467 73.4743 396.352C73.4555 395.863 72.8181 395.487 72.0577 395.516C71.2973 395.546 70.6762 395.596 70.6774 395.628C70.6787 395.661 71.0673 396.047 71.541 396.485ZM61.4837 139.109C61.8461 139.314 62.3254 139.158 62.5497 138.763C62.7734 138.367 62.4716 138.062 61.8792 138.085C60.6647 138.131 60.5022 138.553 61.4837 139.109ZM57.336 29.9139C57.7365 30.1408 57.842 29.8591 57.5827 29.253C57.0771 28.0734 56.573 27.8732 56.6112 28.8673C56.6249 29.2253 56.951 29.696 57.336 29.9139ZM77.8975 534.316C78.4509 534.108 78.7198 534.62 78.6676 535.786C78.588 537.593 78.1585 537.999 77.2347 537.143C76.4976 536.46 76.9134 534.686 77.8975 534.316ZM63.4679 181.637C63.6358 181.631 63.9768 181.929 64.2264 182.3C64.476 182.671 64.3504 182.988 63.9481 183.003C63.5458 183.019 63.2041 182.72 63.1895 182.34C63.175 181.96 63.2999 181.643 63.4679 181.637ZM62.6786 141.529C63.5866 142.226 63.6866 142.179 63.2859 141.244C63.0221 140.629 62.529 140.137 62.1896 140.15C61.3007 140.184 61.4411 140.579 62.6786 141.529ZM70.043 305.676C71.0924 306.271 71.4954 305.658 70.9274 304.332C70.6644 303.719 70.1779 303.399 69.8452 303.623C69.0279 304.173 69.1224 305.155 70.043 305.676ZM69.8355 302.54C70.1936 302.527 70.6364 302.25 70.8199 301.926C71.0034 301.601 70.701 301.353 70.1473 301.374C69.5936 301.396 69.1508 301.672 69.163 301.989C69.1751 302.306 69.4774 302.554 69.8355 302.54ZM80.2542 535.135C81.0532 535.588 81.1596 537.478 80.3882 537.508C79.4149 537.545 78.9371 536.784 79.2874 535.756C79.4703 535.217 79.9054 534.937 80.2542 535.135ZM79.4524 528.307C79.1926 528.067 79.343 527.856 79.7861 527.839C80.2299 527.822 80.6147 528.378 80.6414 529.075C80.6682 529.773 80.2283 530.361 79.6642 530.382C78.9564 530.409 78.8375 530.161 79.2812 529.583C79.6353 529.122 79.7122 528.548 79.4524 528.307ZM79.6178 448.234C79.9979 448.22 80.3143 448.345 80.3207 448.513C80.3271 448.681 80.0287 449.022 79.6575 449.271C79.2863 449.521 78.97 449.395 78.9546 448.993C78.9391 448.591 79.2376 448.249 79.6178 448.234ZM84.3411 531.68C85.0108 532.3 85.0249 532.669 84.4047 533.339C83.7845 534.008 83.5929 533.831 83.5434 532.541C83.4939 531.25 83.6714 531.059 84.3411 531.68ZM82.6751 502.807C82.8244 502.801 83.1505 503.271 83.3999 503.853C83.6592 504.459 83.5537 504.741 83.1532 504.514C82.4802 504.133 82.1152 502.828 82.6751 502.807Z" fill="white"/>
</svg>
