<svg width="52" height="18" viewBox="0 0 52 18" fill="none" xmlns="http://www.w3.org/2000/svg">
<g opacity="0.5">
<path d="M33.6685 0.504883C29.5459 0.504883 26.65 2.6966 26.6245 5.8305C26.5984 8.15217 28.6954 9.44672 30.2727 10.2183C31.8999 11.0072 32.4435 11.5141 32.4381 12.2198C32.422 13.3015 31.136 13.7943 29.9411 13.7943C28.2752 13.7943 27.3871 13.5511 26.022 12.9507L25.4807 12.6934L24.8977 16.3054C25.8723 16.7549 27.6722 17.1444 29.5434 17.1647C33.9182 17.1647 36.7646 14.9982 36.7984 11.6529C36.8157 9.81152 35.7025 8.4179 33.2958 7.26727C31.8429 6.51916 30.9445 6.0231 30.958 5.26506C30.9591 4.59527 31.7118 3.87743 33.3458 3.87743C34.7105 3.85446 35.6919 4.1677 36.4646 4.49763L36.8363 4.68307L37.4033 1.18412C36.5798 0.85884 35.2803 0.504975 33.6683 0.504975L33.6685 0.504883ZM20.7267 0.786383L18.1192 16.9261H22.2852L24.8941 0.786199H20.7272L20.7267 0.786383ZM14.6234 0.802043L10.544 11.8018L10.1091 9.56669C9.09318 6.82595 6.89393 3.95102 4.33276 2.78587L8.06441 16.9107L12.4758 16.9086L19.0358 0.802165H14.6234V0.802043ZM44.8725 0.803088C43.8743 0.803088 43.1263 1.0876 42.6857 2.14269L36.4993 16.9314H40.8763C40.8763 16.9314 41.592 14.9408 41.7538 14.505C42.2315 14.505 46.4826 14.5142 47.0892 14.5142C47.2181 15.077 47.5966 16.9312 47.5966 16.9312H51.4667L48.0922 0.803097H44.8726L44.8725 0.803088ZM45.1669 5.15435L45.4447 6.54573C45.4447 6.54573 46.2455 10.3967 46.4125 11.2032H42.9529C43.2991 10.2771 44.6131 6.69186 44.6131 6.69186C44.5875 6.73571 44.9549 5.75832 45.1669 5.15429L45.1669 5.15435Z" fill="white"/>
<path d="M6.76061 0.793006H0.0391545L0 1.07074C5.22581 2.40723 8.67348 5.68925 10.109 9.57034L8.6483 2.15244C8.39722 1.13229 7.66585 0.828995 6.7606 0.792969" fill="#E3E3E3"/>
</g>
</svg>
