<svg width="60" height="20" viewBox="0 0 60 20" fill="none" xmlns="http://www.w3.org/2000/svg">
<path d="M39.3376 0.325195C34.5515 0.325195 31.1896 2.86963 31.16 6.50788C31.1297 9.20318 33.5642 10.7061 35.3953 11.6019C37.2844 12.5176 37.9154 13.1061 37.9092 13.9254C37.8904 15.1812 36.3975 15.7534 35.0103 15.7534C33.0764 15.7534 32.0453 15.471 30.4605 14.774L29.8321 14.4753L29.1552 18.6686C30.2868 19.1904 32.3763 19.6425 34.5486 19.6661C39.6274 19.6661 42.932 17.1509 42.9712 13.2673C42.9912 11.1296 41.699 9.51168 38.9049 8.17587C37.2182 7.30736 36.1753 6.73147 36.1908 5.85144C36.1921 5.07386 37.066 4.24049 38.963 4.24049C40.5472 4.21383 41.6866 4.57747 42.5837 4.96051L43.0152 5.17579L43.6734 1.11375C42.7174 0.736116 41.2088 0.325302 39.3374 0.325302L39.3376 0.325195ZM24.313 0.651998L21.2859 19.3891H26.1223L29.1511 0.651785H24.3136L24.313 0.651998ZM17.2275 0.670179L12.4916 13.4401L11.9867 10.8453C10.8073 7.66353 8.2541 4.32593 5.28076 2.97327L9.61295 19.3712L14.7343 19.3688L22.3501 0.67032H17.2275V0.670179ZM52.3447 0.671391C51.1859 0.671391 50.3175 1.00169 49.806 2.22658L42.624 19.3953H47.7054C47.7054 19.3953 48.5362 17.0843 48.7241 16.5784C49.2786 16.5784 54.2139 16.589 54.9181 16.589C55.0678 17.2424 55.5072 19.3951 55.5072 19.3951H60.0001L56.0825 0.671402H52.3448L52.3447 0.671391ZM52.6865 5.72291L53.0089 7.33821C53.0089 7.33821 53.9386 11.8089 54.1326 12.7452H50.1162C50.518 11.6701 52.0435 7.50786 52.0435 7.50786C52.0138 7.55877 52.4404 6.42408 52.6864 5.72285L52.6865 5.72291Z" fill="#0023A0"/>
<path d="M8.09934 0.660199H0.296188L0.250732 0.982627C6.31755 2.53421 10.3201 6.34442 11.9866 10.8501L10.2908 2.23841C9.99934 1.05409 9.15027 0.70198 8.09934 0.660156" fill="#FFAB00"/>
</svg>
