<svg width="83" height="869" viewBox="0 0 83 869" fill="none" xmlns="http://www.w3.org/2000/svg">
<path fill-rule="evenodd" clip-rule="evenodd" d="M4.66676 97.0381C4.917 97.7921 5.74134 98.9393 6.5001 99.5884C7.25889 100.237 7.43941 100.751 6.90118 100.732C6.21961 100.706 6.13703 101.844 6.62911 104.484C7.01717 106.568 7.1278 108.757 6.87575 109.349C6.6228 109.941 6.87331 110.956 7.43069 111.607C8.22615 112.534 8.15905 112.615 7.12068 111.984C5.97902 111.289 5.95977 111.395 6.97691 112.749C7.62661 113.613 7.85644 114.309 7.4868 114.295C7.11716 114.281 7.24673 114.831 7.77484 115.517C8.30204 116.203 8.51858 116.965 8.255 117.209C7.99138 117.453 10.0264 122.366 12.7769 128.126C15.5273 133.886 18.5404 140.256 19.4722 142.283C21.2891 146.234 32.4289 160.904 35.2335 163.041C36.8545 164.277 36.7936 164.41 33.8625 166.02C32.1744 166.947 28.7381 169.72 26.2251 172.182C23.7121 174.644 21.6051 176.453 21.5421 176.203C21.4791 175.952 19.6827 177.246 17.5495 179.078C12.9448 183.033 10.4918 187.393 9.75879 192.921C9.4637 195.144 8.91592 197.267 8.542 197.639C7.66305 198.51 8.63214 209.094 10.1654 215.373C10.8202 218.056 12.4586 222.759 13.8062 225.824C15.1538 228.889 16.2367 231.934 16.2126 232.589C16.1883 233.246 16.5986 233.798 17.1233 233.817C17.648 233.837 17.8698 234.164 17.6147 234.544C17.0348 235.409 21.0968 246.236 23.7579 250.92C24.8506 252.843 25.7935 254.863 25.8529 255.407C25.9131 255.952 26.9797 257.581 28.2245 259.027C29.4693 260.474 30.4701 262.125 30.4489 262.698C30.4278 263.27 32.3771 266.372 34.7816 269.591L39.1518 275.445L35.9034 278.164C34.1176 279.66 31.8885 281.378 30.9508 281.982C30.013 282.587 29.8649 282.808 30.6221 282.474C31.8133 281.948 31.8215 282.069 30.6857 283.367C29.9646 284.193 29.1974 284.679 28.9812 284.446C28.4767 283.903 24.3747 286.22 20.6001 289.183C16.9901 292.016 15.9283 294.394 15.9131 299.676C15.9065 301.91 15.5571 304.185 15.1361 304.732C14.6771 305.328 14.937 305.969 15.7831 306.33C16.5599 306.662 16.9461 307.304 16.6413 307.759C16.3365 308.213 16.4731 308.843 16.9444 309.159C17.4157 309.476 17.5487 310.325 17.2394 311.05C16.931 311.773 17.0409 312.881 17.4844 313.513C18.2718 314.633 20.964 322.289 21.3473 324.499C21.7633 326.903 25.9312 336.086 28.3505 339.932C29.755 342.164 30.7308 344.247 30.5196 344.562C30.3085 344.877 28.5999 345.356 26.7221 345.626C24.3678 345.964 22.1602 347.246 19.6103 349.754C17.5756 351.754 15.9761 353.683 16.0559 354.041C16.1347 354.398 15.5394 354.409 14.7315 354.064C13.8081 353.67 13.4718 353.805 13.8253 354.427C14.4229 355.479 9.43367 357.45 8.55757 356.507C8.0922 356.005 7.64126 357.608 7.81444 359.153C7.85366 359.51 7.34055 359.567 6.67306 359.283C5.89448 358.951 5.20022 359.661 4.73385 361.266C4.33462 362.641 3.59748 364 3.09679 364.284C2.59608 364.569 2.05122 365.365 1.88587 366.054C1.71962 366.743 1.26144 367.979 0.867309 368.801C-1.15033 373.007 3.48852 391.813 8.74944 400.757C10.3142 403.417 12.2694 406.8 13.0952 408.275C16.3449 414.082 34.7955 436.335 32.8535 432.106C32.505 431.349 33.4208 432.097 34.8866 433.767C36.3534 435.438 37.8562 436.916 38.2276 437.05C38.5991 437.185 38.7858 437.606 38.6436 437.988C38.5004 438.369 39.0037 438.944 39.7609 439.267C40.5182 439.591 42.4989 441.278 44.1609 443.016C45.8238 444.754 47.7855 446.199 48.5202 446.226C51.0572 446.32 49.3076 448.521 44.7162 451.013C42.1829 452.387 39.5543 454.017 38.8762 454.634C38.1971 455.25 37.2645 455.741 36.8047 455.724C36.344 455.707 36.0527 456.141 36.1562 456.687C36.2606 457.234 35.517 458.106 34.5048 458.625C31.4995 460.167 24.4405 464.598 23.1835 465.733C22.5411 466.312 22.0002 467.22 21.9806 467.752C21.961 468.283 21.4716 468.7 20.8928 468.679C20.3149 468.658 20.0986 468.917 20.4129 469.255C20.7273 469.594 20.5116 470.398 19.9353 471.043C19.1444 471.928 19.1909 472.231 20.1237 472.275C21.1501 472.325 21.1405 472.464 20.0638 473.09C19.3423 473.51 18.7567 475.167 18.7424 476.828C18.7259 478.815 18.4764 479.388 17.9966 478.543C17.5473 477.752 17.0569 479.788 16.6949 483.947C16.3762 487.618 16.3905 491.047 16.727 491.569C17.0643 492.09 17.469 493.527 17.6275 494.762C17.9317 497.135 18.1813 497.981 20.7081 505.201C22.7482 511.03 27.6833 520.679 29.4172 522.23C30.1557 522.89 30.7402 523.957 30.7164 524.601C30.6927 525.246 32.5285 527.802 34.795 530.284C37.0624 532.765 38.1275 534.164 37.1629 533.392C35.4311 532.006 35.429 532.014 37.0342 534.043C37.9278 535.173 39.0133 535.896 39.4467 535.649C39.8801 535.403 40.0089 535.731 39.7331 536.379C39.4555 537.028 41.0846 539.436 43.3663 541.75C45.6419 544.058 46.5403 544.691 45.3637 543.158L43.2249 540.371L45.62 542.645C46.9371 543.895 47.8058 545.113 47.5497 545.351C47.2935 545.588 47.7292 546.552 48.5179 547.492C49.8722 549.103 49.8312 549.187 47.7883 548.987C43.9734 548.613 27.7725 555.454 27.6982 557.47C27.682 557.908 26.1191 558.989 24.2242 559.871C18.7174 562.434 14.8226 566.404 14.2921 569.992C13.9503 572.308 14.1122 572.935 14.8964 572.331C15.6908 571.721 15.8494 572.952 15.5109 577.086C15.0382 582.852 16.0947 588.571 17.6444 588.629C18.1304 588.647 18.2585 589.064 17.9289 589.556C17.5984 590.049 16.8594 590.16 16.2867 589.802C15.7131 589.444 16.064 590.162 17.0657 591.396C18.0665 592.63 19.7561 595.601 20.8186 597.999C21.8812 600.397 23.02 602.369 23.3491 602.381C23.6781 602.393 24.9296 604.368 26.1292 606.772C28.0703 610.658 32.016 615.709 35.4767 618.735C37.4785 620.486 45.4132 629.73 46.1838 631.209C46.6315 632.068 46.1039 631.881 44.7866 630.713L42.6693 628.836L44.7634 631.389C45.9159 632.794 47.2943 633.971 47.8265 634.007C49.4341 634.114 53.5796 638.495 55.5476 642.166C56.5654 644.064 58.0059 645.639 58.7497 645.666C59.4935 645.694 60.1963 646.612 60.3103 647.705C60.4465 649.005 60.9749 649.538 61.8334 649.245C62.5566 648.997 63.1901 649.348 63.2401 650.023C63.291 650.699 63.4117 651.661 63.5088 652.161C63.6059 652.661 63.7229 653.478 63.7695 653.976C63.8161 654.475 64.2699 654.288 64.7778 653.562C65.5737 652.424 65.6954 652.453 65.6595 653.767C65.6358 654.606 65.0974 655.595 64.4634 655.966C63.3166 656.636 62.8204 656.773 60.9896 656.921C60.4626 656.964 60.2663 657.413 60.5546 657.92C60.8428 658.427 60.3423 658.878 59.4425 658.919C58.5426 658.962 57.3973 659.076 56.8972 659.173C56.3971 659.27 55.5788 659.429 55.0786 659.527C54.5785 659.625 53.8672 659.645 53.4971 659.572C53.1278 659.5 52.8099 659.846 52.7916 660.342C52.7733 660.838 52.1804 661.222 51.4754 661.196C50.7695 661.17 48.2422 662.527 45.8581 664.21C43.475 665.895 41.3198 667.051 41.0688 666.782C40.8179 666.511 39.1015 667.324 37.2548 668.587C32.2174 672.032 25.9131 677.96 26.553 678.649C26.863 678.983 26.4548 679.232 25.6452 679.202C22.5475 679.087 17.7742 684.258 15.5899 690.094C13.4728 695.749 13.3126 702.219 15.2861 702.292C15.7567 702.309 15.8962 702.688 15.5981 703.133C15.2991 703.579 15.5557 704.503 16.1679 705.185C16.7792 705.869 17.2585 707.24 17.2327 708.232C17.2055 709.288 17.7032 709.94 18.435 709.805C19.463 709.615 19.4692 709.815 18.4673 710.935C17.4758 712.044 17.4653 712.303 18.4128 712.338C19.052 712.361 19.3113 712.625 18.9888 712.925C18.384 713.487 23.6394 725.319 25.3788 727.31C25.9158 727.926 26.8764 729.538 27.5134 730.894C28.1504 732.25 29.9746 734.755 31.5673 736.461C33.161 738.166 34.4651 739.89 34.4657 740.291C34.4672 740.691 38.8678 745.645 44.2447 751.298C49.6225 756.952 54.4119 762.013 54.8888 762.546C65.1835 774.038 67.934 777.322 68.1399 778.373C68.2759 779.066 68.7569 779.782 69.2097 779.964C69.6624 780.147 70.0179 780.692 70.0001 781.175C69.9822 781.659 69.6046 781.812 69.1615 781.515C68.7184 781.218 68.2088 781.277 68.0282 781.646C67.8485 782.015 65.6318 783.345 63.1028 784.602C60.5737 785.86 58.5789 787.271 58.67 787.737C58.7611 788.205 58.1419 789.108 57.2941 789.745C56.2096 790.56 55.9662 790.577 56.4715 789.801C57.5058 788.216 55.7303 788.381 54.2774 790.005C53.6041 790.758 51.9895 791.895 50.6885 792.533C48.5804 793.566 44.4021 797.217 38.5158 803.168C34.2265 807.504 33.6301 814.47 36.9875 821.002C37.8703 822.719 38.3478 824.115 38.0485 824.104C37.7501 824.093 38.8188 825.859 40.4252 828.029C42.0315 830.198 44.2938 833.528 45.4523 835.43C46.6108 837.331 47.9675 838.905 48.4677 838.927C48.9688 838.949 49.8641 839.812 50.4579 840.847C51.0517 841.881 52.0034 842.463 52.5723 842.139C53.1542 841.809 53.3432 841.946 53.0041 842.451C52.2073 843.641 54.6964 845.986 58.7388 847.852C60.5336 848.681 62.4249 850.223 62.9403 851.279C63.4557 852.334 64.1051 852.987 64.3827 852.73C64.6603 852.472 66.2894 853.291 68.0042 854.551C69.7182 855.811 71.4197 856.672 71.7849 856.465C72.15 856.257 72.3685 856.747 72.271 857.553C72.1735 858.361 72.6953 859.219 73.4311 859.461C74.6201 859.853 74.6228 859.779 73.4556 858.797C72.3392 857.858 72.3872 857.781 73.7741 858.289C74.6711 858.617 75.7783 858.899 76.2336 858.916C76.6889 858.933 77.0454 859.376 77.026 859.901C77.0066 860.426 76.5326 860.549 75.9732 860.175C75.3231 859.738 75.1871 859.899 75.5975 860.62C75.9493 861.24 76.8135 861.551 77.5166 861.31C78.2206 861.069 78.7803 861.289 78.7616 861.799C78.7427 862.309 79.1423 862.49 79.6495 862.201C80.1566 861.913 80.5561 862.097 80.5372 862.609C80.5183 863.122 81.6773 864.204 83.1117 865.014C86.2803 866.804 86.9824 866.885 86.2895 865.38C85.9986 864.749 86.2739 864.896 86.9012 865.708C87.5285 866.519 88.6125 867.014 89.3099 866.808C90.0446 866.591 90.313 866.829 89.9471 867.375C89.5697 867.937 90.0524 868.289 91.1427 868.247C92.148 868.208 92.99 867.654 93.0135 867.016C93.0371 866.378 93.48 865.871 93.9984 865.891C94.5168 865.91 93.923 864.829 92.6787 863.489C90.2223 860.845 90.4824 859.18 92.9849 861.528C94.908 863.332 97.2908 862.882 95.6913 861.016C95.1097 860.339 94.323 859.957 93.9432 860.169C93.5626 860.38 93.2678 860.123 93.2872 859.598C93.3066 859.073 93.7525 858.659 94.2772 858.679C94.8019 858.698 94.992 858.292 94.6995 857.777C94.4062 857.262 93.7808 857.059 93.3087 857.328C92.8366 857.595 92.4671 857.358 92.4877 856.8C92.5228 855.849 93.2118 855.964 97.871 857.703C98.6529 857.994 98.4811 857.561 97.4582 856.658L95.7095 855.116L97.49 855.795C98.4693 856.168 99.4811 856.811 99.7386 857.221C99.997 857.631 101.132 857.369 102.263 856.638L104.319 855.308L102.333 853.541L100.347 851.774L102.356 852.358C103.97 852.827 104.38 852.563 104.437 851.017C104.498 849.373 104.867 849.191 106.966 849.778C108.317 850.154 109.134 850.129 108.781 849.719C108.428 849.309 108.667 848.347 109.312 847.58C110.315 846.386 110.277 846.335 109.043 847.225C107.903 848.047 107.062 847.955 104.997 846.786C103.563 845.973 102.188 845.313 101.939 845.319C101.691 845.325 101.546 844.556 101.618 843.61C101.689 842.665 101.406 842.086 100.988 842.323C100.57 842.561 100.196 843.441 100.158 844.279C100.118 845.147 99.8171 845.404 99.4592 844.877C98.8666 844.005 97.7422 843.529 94.9569 842.972C94.3018 842.841 93.4717 842.217 93.1122 841.585C92.5451 840.587 90.9521 839.915 88.3305 839.57C87.9307 839.517 87.8693 839.078 88.1941 838.593C88.519 838.109 88.1517 837.689 87.379 837.66C86.6064 837.632 85.9894 837.178 86.0087 836.654C86.0281 836.129 85.6724 835.91 85.2187 836.168C84.7641 836.426 84.1782 836.009 83.9158 835.243C83.5833 834.27 84.6696 834.632 87.501 836.435C91.4032 838.919 97.1702 840.409 96.1869 838.679C95.9257 838.22 95.1845 838.025 94.539 838.246C93.8944 838.467 91.193 837.398 88.5365 835.872C85.2541 833.985 83.4022 833.38 82.7535 833.982C82.1057 834.584 81.6387 834.393 81.294 833.387C81.0022 832.535 81.1527 832.151 81.6487 832.484C82.1368 832.81 82.2992 832.446 82.0246 831.642C81.5895 830.37 79.9244 829.718 77.8367 830.001C77.4247 830.057 77.3203 829.756 77.605 829.333C78.139 828.535 76.5608 826.852 70.9948 822.285C69.202 820.814 67.8396 819.202 67.9673 818.701C68.0942 818.2 67.266 817.597 66.1272 817.362C64.6615 817.058 64.2348 817.27 64.6651 818.087C65.0001 818.721 64.938 818.911 64.5285 818.51C63.3436 817.348 63.3513 814.839 64.5455 813.376C65.1487 812.637 65.276 812.32 64.8288 812.671C64.3816 813.023 63.3883 812.783 62.6213 812.138C61.3691 811.086 61.3521 811.155 62.4527 812.817C63.2078 813.956 62.8319 813.769 61.4749 812.329C60.0215 810.787 59.619 809.778 60.2906 809.365C60.9095 808.985 60.6524 808.711 59.6358 808.664C58.5209 808.614 58.1518 808.143 58.5313 807.256C58.8832 806.429 58.5767 805.903 57.7229 805.872C56.9647 805.844 56.6253 805.402 56.9682 804.891C57.3112 804.379 58.2545 804.115 59.0646 804.301C59.8747 804.488 61.2106 804.053 62.0344 803.332C62.8581 802.612 64.9301 801.262 66.6391 800.332C73.6399 796.523 75.2691 795.454 78.1032 792.805C83.8199 787.462 89.7008 782.88 90.1792 783.395C90.4458 783.682 90.6812 783.419 90.7036 782.811C90.7263 782.196 91.2025 782.012 91.7752 782.396C92.4844 782.872 92.6299 782.572 92.2412 781.437C91.7971 780.138 91.9238 780.007 92.8354 780.821C93.684 781.58 94.5951 781.573 96.2425 780.794C97.4793 780.209 98.8884 779.699 99.3737 779.66C100.5 779.571 101.245 777.686 100.169 777.646C99.7276 777.63 98.5561 778.183 97.5664 778.875C96.5776 779.568 95.4381 780.135 95.0364 780.136C93.8554 780.139 95.229 774.865 97.079 772.29C99.0803 769.506 99.5778 767.694 98.3517 767.648C97.8712 767.631 97.7475 767.213 98.0771 766.721C98.4077 766.229 99.0419 766.07 99.4876 766.369C99.9326 766.667 100.08 766.275 99.8141 765.498C99.5476 764.72 98.9593 764.294 98.5047 764.553C98.051 764.811 97.7036 764.365 97.7332 763.563C97.7628 762.761 97.468 762.286 97.077 762.508C96.687 762.73 95.0331 760.747 93.4028 758.101C91.7725 755.455 90.0379 753.14 89.5483 752.954C86.9441 751.967 86.4925 751.604 86.975 750.884C87.2654 750.45 86.6919 750.065 85.7002 750.029C84.7085 749.992 83.625 749.483 83.2927 748.897C82.8841 748.179 83.0896 748.091 83.9257 748.625C85.2716 749.486 80.3855 743.621 77.0418 740.36C72.0424 735.487 59.344 718.918 60.3762 718.616C60.9931 718.435 61.2715 717.888 60.9935 717.399C60.6747 716.837 60.0673 716.835 59.3425 717.393C58.4653 718.068 58.31 717.654 58.6834 715.633C59.0806 713.482 58.7543 712.781 56.9283 711.867C55.6954 711.249 54.9032 710.234 55.169 709.611C55.4348 708.988 55.2276 708.193 54.7087 707.845C54.1167 707.448 53.8483 707.993 53.9885 709.307C54.1112 710.459 55.0779 711.834 56.1354 712.364C58.1777 713.385 58.535 714.297 57.1924 715.06C56.7415 715.316 55.3157 714.028 54.0227 712.197C52.2382 709.67 51.4754 709.154 50.8553 710.058C50.3058 710.858 50.0471 710.895 50.0638 710.173C50.0784 709.583 50.5076 708.862 51.0194 708.571C51.5975 708.242 51.4687 707.527 50.6759 706.673C49.9761 705.92 49.6618 704.699 49.9771 703.96C50.2923 703.221 50.1312 702.719 49.6192 702.844C49.1063 702.97 48.6661 702.763 48.6404 702.385C48.6146 702.006 47.99 700.415 47.2524 698.848C46.5139 697.283 46.3067 696.266 46.7913 696.591C47.3278 696.951 47.6083 696.029 47.5084 694.234C47.3224 690.906 46.4439 688.095 45.5785 688.06C45.2594 688.048 44.9573 686.791 44.907 685.267C44.8349 683.087 45.14 682.573 46.3431 682.851C47.2231 683.054 48.0248 684.323 48.2325 685.84C48.8457 690.312 50.6512 689.773 50.3074 685.22L50.0049 681.209L59.2614 678.703C64.3534 677.326 68.2926 675.799 68.0153 675.312C67.739 674.825 68.1455 674.45 68.9181 674.479C69.6908 674.507 70.3456 673.937 70.3724 673.21C70.3992 672.484 71.2605 671.48 72.2856 670.978C73.3106 670.477 73.9262 669.673 73.6524 669.192C73.3786 668.709 73.5848 668.332 74.1095 668.351C74.6342 668.37 75.0277 668.08 74.9828 667.706C74.7492 665.769 75.3357 664.896 76.5284 665.405C77.2616 665.718 77.8777 665.538 77.8974 665.004C77.917 664.471 78.5384 664.293 79.2779 664.608C80.0173 664.924 81.1783 664.754 81.8575 664.232C82.5367 663.709 83.413 663.594 83.8051 663.977C84.1973 664.359 84.2607 664.182 83.9452 663.582C83.3202 662.391 87.6338 657.86 88.5012 658.794C88.7948 659.109 88.7687 658.592 88.4452 657.645C88.0965 656.624 88.1996 656.153 88.6983 656.488C89.1608 656.797 89.5685 656.27 89.6037 655.315C89.639 654.359 89.3495 653.566 88.9601 653.552C87.8034 653.509 88.2095 651.948 89.7491 650.518C90.5381 649.785 91.1777 648.966 91.1703 648.7C91.1136 646.812 91.3354 646.38 92.0975 646.89C92.5864 647.218 92.7666 646.884 92.5075 646.128C92.2174 645.28 91.2357 644.899 89.8479 645.098C88.6382 645.271 87.6616 645.043 87.6783 644.591C87.695 644.139 87.0518 643.488 86.2502 643.146C85.0299 642.625 84.9691 642.755 85.8797 643.938C86.6042 644.88 86.6359 645.341 85.9733 645.316C85.427 645.296 84.7536 644.217 84.4783 642.919C84.1014 641.144 83.7646 640.851 83.1225 641.74C82.565 642.512 82.4907 642.102 82.9077 640.562C83.2997 639.115 83.1253 637.92 82.4584 637.473C81.699 636.963 81.5771 637.134 82.0575 638.036C82.4644 638.802 82.4215 639.01 81.952 638.548C81.5165 638.118 81.1587 637.292 81.1575 636.713C81.1563 636.134 80.6241 635.755 79.9753 635.87C79.3264 635.986 78.9898 635.567 79.2269 634.939C79.464 634.312 79.0342 633.238 78.2714 632.552C77.1896 631.581 77.1767 631.465 78.2113 632.028C79.0989 632.511 78.9938 632.081 77.8936 630.729C75.9021 628.281 75.5238 628.183 76.1883 630.285C76.4656 631.164 75.8271 630.731 74.7686 629.321C73.7102 627.912 72.3982 627.013 71.8533 627.322C71.3083 627.632 71.1324 627.482 71.462 626.991C71.7916 626.499 70.6397 624.565 68.9013 622.694C67.163 620.823 66.178 619.308 66.7117 619.328C67.2454 619.348 69.3492 621.247 71.3859 623.548C73.4225 625.85 75.2882 627.547 75.5321 627.322C75.7752 627.095 75.0341 625.894 73.8856 624.652C70.6499 621.156 69.4975 619.431 70.4207 619.465C70.885 619.482 72.4778 621.064 73.9617 622.981C75.4455 624.897 77.4289 627.321 78.3707 628.366C79.3117 629.412 80.0737 630.659 80.0642 631.137C80.0546 631.616 81.2066 633.425 82.6241 635.159C84.0416 636.893 85.1803 638.891 85.1541 639.601C85.1199 640.528 85.6829 640.732 87.1514 640.325C88.9802 639.818 89.0589 639.913 87.894 641.216C86.7481 642.497 86.7902 642.604 88.2421 642.108C89.3777 641.719 89.6775 641.865 89.2017 642.574C88.7861 643.194 89.0762 643.625 89.9291 643.657C91.0579 643.698 90.8876 642.955 89.0939 640.015C87.8544 637.983 86.4393 636.306 85.9489 636.288C85.4576 636.27 85.5875 635.661 86.2372 634.934C87.2833 633.765 87.5582 633.8 88.6432 635.249C89.7316 636.702 89.7551 636.628 88.8598 634.59C88.3051 633.328 86.5093 630.52 84.8687 628.349C82.8218 625.64 82.3117 624.417 83.2439 624.452C83.9904 624.479 85.2499 625.577 86.0428 626.891C86.8358 628.204 87.7009 629.078 87.9664 628.832C88.2309 628.586 85.8479 624.908 82.6698 620.659C75.7217 611.367 74.836 610.368 76.1981 613.359C77.2027 615.565 77.1375 615.547 74.5195 612.901C73.0208 611.387 71.9134 609.69 72.0587 609.129C72.204 608.567 71.1471 606.947 69.7098 605.528C68.2726 604.108 67.6937 603.282 68.4234 603.693C69.5979 604.354 69.6037 604.245 68.4737 602.745C67.2413 601.109 67.1799 601.107 66.6687 602.731C65.9036 605.162 64.0449 605.112 64.6051 602.675C64.8945 601.414 64.4652 600.155 63.4654 599.335C62.0914 598.209 62.0165 598.208 62.9421 599.326C63.5367 600.044 64.0001 601.236 63.9729 601.974C63.9364 602.964 63.4697 602.791 62.1917 601.313C61.2393 600.213 60.4765 598.865 60.4966 598.319C60.5168 597.773 60.0537 597.599 59.4682 597.931C58.7453 598.342 58.6668 598.144 59.2229 597.315C59.6738 596.642 60.1186 595.4 60.2121 594.554C60.3499 593.315 60.0443 593.181 58.6432 593.866C57.4149 594.466 56.5271 594.38 55.6269 593.575C54.9252 592.947 54.5688 592.232 54.8343 591.984C55.1007 591.737 54.5246 590.934 53.5533 590.198C52.5819 589.464 52.0058 588.536 52.2733 588.138C52.5399 587.74 51.7592 586.705 50.539 585.839C49.3179 584.973 48.5726 583.885 48.8831 583.422C49.4688 582.548 49.3401 582.486 45.9535 582.007C44.0028 581.73 43.9698 581.818 45.2273 583.9C45.9768 585.142 46.1349 586.069 45.5949 586.049C45.072 586.03 44.404 585.293 44.1105 584.414C43.8162 583.535 42.9614 582.283 42.2098 581.634C41.0191 580.604 41.064 580.539 42.5554 581.126C43.9106 581.66 44.1566 581.476 43.7361 580.248C43.2815 578.917 43.4863 578.845 45.1784 579.743C46.9511 580.684 46.9973 580.656 45.6337 579.465C44.7993 578.738 44.4126 577.867 44.7744 577.531C45.1361 577.195 44.7568 577.151 43.9302 577.434C42.9501 577.768 42.104 577.283 41.4955 576.037C40.8734 574.766 40.874 574.139 41.4952 574.161C42.0082 574.18 42.4133 574.602 42.395 575.097C42.3767 575.593 42.7918 576.015 43.3165 576.034C43.8412 576.054 44.0517 575.683 43.7838 575.211C43.5151 574.739 43.7178 574.113 44.2333 573.82C44.7487 573.528 45.1589 573.616 45.1441 574.017C45.1302 574.418 50.2939 574.866 56.6178 575.014C69.8954 575.321 71.3682 575.236 70.7731 574.188C70.5332 573.766 70.9694 573.443 71.7421 573.472C72.5147 573.5 73.1626 573.118 73.1809 572.622C73.1991 572.126 73.8046 571.742 74.5259 571.769C75.3102 571.798 76.1214 570.561 76.5434 568.692C76.9327 566.973 77.6033 565.802 78.035 566.092C78.4658 566.38 78.8349 566.187 78.8543 565.662C78.8737 565.138 79.1911 564.806 79.5586 564.924C79.9262 565.043 81.2627 564.617 82.5276 563.978C83.7925 563.339 85.0277 562.892 85.2725 562.985C85.5174 563.078 85.7545 562.647 85.7998 562.029C85.8453 561.409 86.3295 561.008 86.8755 561.137C87.4205 561.265 88.3832 560.792 89.0149 560.087C89.7183 559.301 89.7994 558.791 89.2252 558.77C88.7095 558.751 88.0667 559.143 87.7955 559.642C87.5252 560.141 87.4289 560.036 87.5829 559.409C87.736 558.781 88.8415 558.279 90.0391 558.291C91.2356 558.305 92.1325 557.83 92.0298 557.236C91.928 556.643 92.4768 556.181 93.2494 556.21C94.022 556.238 94.4396 555.882 94.176 555.418C93.9123 554.954 94.1798 554.433 94.7712 554.26C95.3626 554.087 95.9424 553.077 96.0601 552.015C96.1778 550.954 95.9024 550.297 95.4477 550.556C94.9932 550.813 94.7773 550.279 94.968 549.367C95.1783 548.364 94.8402 547.79 94.1125 547.913C93.4503 548.025 93.141 547.771 93.4238 547.349C94.0295 546.445 89.3019 541.323 88.1745 541.662C87.7518 541.79 86.5425 540.506 85.4874 538.809C84.4333 537.113 83.5428 536.291 83.51 536.984C83.4589 538.049 83.3353 538.048 82.7078 536.973C82.3003 536.273 81.4853 535.974 80.897 536.309C80.0984 536.763 80.1099 537.307 80.9423 538.458C81.9465 539.844 81.9015 539.865 80.4894 538.669C79.403 537.75 79.2189 537.063 79.8919 536.438C80.565 535.813 80.1482 534.73 78.5376 532.919C77.2573 531.48 76.6916 530.321 77.2803 530.343C77.869 530.365 78.333 530.856 78.3116 531.434C78.2903 532.012 78.5084 532.267 78.7963 531.999C79.6601 531.197 69.486 520.154 68.4036 520.718C67.8531 521.005 67.7052 520.929 68.0739 520.55C68.9082 519.692 67.397 516.436 66.1429 516.39C65.6353 516.371 65.4918 516.836 65.8241 517.421C66.187 518.059 66.0436 518.226 65.4665 517.839C64.937 517.485 64.6905 516.386 64.9183 515.399C65.147 514.412 65.0057 513.79 64.6055 514.017C64.2053 514.245 62.5498 512.892 60.9265 511.011C59.3041 509.13 58.7656 508.211 59.7307 508.971C61.3634 510.255 61.4011 510.234 60.2739 508.684C59.6071 507.769 58.4891 507.215 57.7897 507.454C57.0473 507.707 56.7768 507.502 57.1399 506.96C57.4828 506.449 57.0329 505.454 56.1399 504.749C55.2478 504.044 54.4952 503.129 54.468 502.717C54.3296 500.596 50.6905 493.596 48.9137 492.034C47.7954 491.05 47.4785 490.536 48.2102 490.89C49.2727 491.406 49.2618 491.286 48.153 490.29C47.3901 489.604 46.9763 488.487 47.2335 487.807C47.5456 486.981 47.3069 486.794 46.5167 487.242C45.7762 487.663 45.5678 487.564 45.9613 486.978C46.7543 485.795 45.8517 482.999 44.8586 483.563C44.452 483.794 44.3804 483.116 44.7003 482.056C45.0665 480.842 44.9246 480.332 44.3169 480.677C43.7876 480.978 43.4106 480.723 43.4793 480.11C43.5479 479.498 43.3274 477.45 42.9881 475.56C42.4288 472.442 42.2547 472.268 41.1109 473.685C39.9511 475.121 39.8965 475.085 40.435 473.237C40.7575 472.132 41.3799 471.24 41.818 471.257C42.2553 471.273 42.5235 470.977 42.4137 470.601C42.1611 469.738 42.9917 469.494 45.8361 469.599C47.7519 469.67 48.0926 470.123 48.1099 472.617C48.1292 475.444 48.1581 475.419 48.9083 471.97C49.4693 469.39 49.7177 469.02 49.7949 470.648C49.8546 471.892 50.2425 473.734 50.6576 474.742C51.2583 476.202 51.3629 475.984 51.1702 473.673C50.7984 469.214 51.4822 468.983 66.8715 468.357C67.4936 468.331 68.0291 467.567 68.0627 466.657C68.0962 465.749 68.5573 465.021 69.0883 465.04C69.6184 465.06 69.956 464.158 69.8393 463.037C69.6556 461.288 70.2029 460.891 73.6889 460.244C77.4885 459.539 77.9617 459.119 81.0011 453.743C82.7879 450.582 84.415 448.104 84.6169 448.235C84.8188 448.366 85.29 448.44 85.6634 448.399C86.0369 448.358 87.3562 448.396 88.5943 448.485C89.8324 448.573 90.3497 448.401 89.7441 448.103C89.0108 447.742 88.931 447.068 89.5035 446.085C89.9776 445.274 90.4467 444.207 90.5461 443.714C90.6455 443.221 91.2757 442.951 91.945 443.113C93.6881 443.535 92.0437 436.842 90.1013 435.608C87.2345 433.785 86.2145 434.198 88.1373 436.403C89.5491 438.021 89.6892 438.532 88.6706 438.344C87.3184 438.094 85.0066 435.788 81.5566 431.25L79.8346 428.985L82.8511 431.252C84.8925 432.787 85.9968 433.172 86.2692 432.446C86.4905 431.855 87.0338 431.615 87.4769 431.913C87.9201 432.21 88.2892 432.286 88.2967 432.082C88.3167 431.541 78.0607 422.941 77.3665 422.915C77.0437 422.903 75.337 421.422 73.5743 419.624C71.8117 417.824 69.8635 416.331 69.2434 416.304C68.6242 416.277 68.1313 415.86 68.1492 415.376C68.167 414.893 66.8877 413.768 65.3073 412.877C63.727 411.986 61.1896 409.749 59.6696 407.906C58.1496 406.064 56.2997 403.89 55.5596 403.077C54.8187 402.263 54.2288 401.172 54.2479 400.653C54.2942 399.399 47.9645 394.219 46.7992 394.557C46.2974 394.702 46.1989 394.531 46.5794 394.177C47.7031 393.133 45.6457 391.199 43.8397 391.601C42.6692 391.861 42.0383 391.343 41.7061 389.85C41.4467 388.683 41.2824 387.73 41.3419 387.732C41.4014 387.734 40.6154 385.939 39.595 383.743C38.5746 381.547 37.5763 379.903 37.3753 380.09C36.735 380.684 37.871 384.444 38.7004 384.475C39.1377 384.491 39.481 384.924 39.4621 385.437C39.4389 386.066 38.8426 386.029 37.6354 385.325C36.65 384.749 36.0954 383.902 36.404 383.442C36.7125 382.981 36.5113 382.588 35.9568 382.568C35.4024 382.547 35.2594 382.067 35.6396 381.5C36.0886 380.83 35.8513 380.633 34.9616 380.938C34.1589 381.212 33.6107 380.898 33.6372 380.179C33.6622 379.504 34.0129 379.174 34.4173 379.444C35.6789 380.29 35.3084 377.559 33.9048 375.668C32.6199 373.938 32.6033 373.948 33.4753 375.931C33.985 377.091 34.0171 377.982 33.5483 377.965C33.0885 377.948 32.4919 376.894 32.2219 375.622C31.9519 374.351 31.3578 373.523 30.9004 373.782C30.443 374.043 29.8297 373.833 29.5363 373.318C29.2439 372.802 29.5352 372.394 30.1846 372.411C31.1325 372.434 31.1319 372.281 30.181 371.627C29.3075 371.028 29.6273 370.68 31.3961 370.305C34.0066 369.751 37.4162 372.106 35.1763 372.916C34.2778 373.241 34.2756 373.351 35.1651 373.44C35.784 373.501 36.2529 374.542 36.2083 375.753C36.1636 376.964 36.5852 378.26 37.1446 378.635C37.8124 379.083 37.9528 378.875 37.5526 378.027C37.2177 377.317 38.3274 378.412 40.0185 380.461C41.7088 382.509 43.1162 383.708 43.145 383.123C43.1738 382.539 42.6874 381.505 42.0643 380.826C40.8111 379.461 39.8064 376.937 39.3585 374.029C39.137 372.594 39.872 371.733 42.3404 370.528C45.5672 368.955 45.633 368.958 46.8397 370.729C47.5128 371.718 48.0821 372.019 48.105 371.399C48.1279 370.78 48.5492 370.543 49.0417 370.872C49.5342 371.203 49.7189 371.798 49.4514 372.197C49.1849 372.595 50.2735 373.185 51.8713 373.508C53.469 373.831 57.5616 375.217 60.9651 376.587C66.5622 378.842 70.5561 379.306 67.6603 377.365C67.026 376.94 66.176 376.78 65.7712 377.01C65.3665 377.24 65.0521 376.974 65.0726 376.42C65.0931 375.865 64.6921 375.649 64.1803 375.94C63.6436 376.245 63.7312 375.51 64.39 374.196C65.0157 372.946 65.8925 371.936 66.3388 371.953C66.7842 371.969 66.9201 372.324 66.6401 372.741C66.3583 373.162 67.8371 373.234 69.9663 372.903C72.0756 372.575 74.0547 372.299 74.3648 372.289C75.4576 372.252 81.6882 366.51 81.7253 365.505C81.746 364.945 82.4879 364.094 83.3749 363.615C84.7806 362.854 84.8181 362.621 83.668 361.789C82.5275 360.965 82.5555 360.841 83.8741 360.877C86.2116 360.943 86.8196 359.243 85.1644 357.273C83.7418 355.58 83.7612 355.52 85.5765 355.939C88.4983 356.615 87.8952 354.755 84.7124 353.277C82.8237 352.399 82.3647 351.87 83.3346 351.69C84.5128 351.469 84.398 351.104 82.7296 349.761C81.2497 348.57 80.4781 348.391 79.9871 349.122C79.5352 349.796 79.7125 349.909 80.5119 349.455C81.3612 348.972 81.4897 349.111 80.9461 349.922C80.4025 350.734 80.531 350.872 81.3802 350.39C82.1963 349.926 82.357 350.047 81.8765 350.764C81.3787 351.508 80.8407 351.532 80.0716 350.844C79.4694 350.306 78.7597 350.066 78.4942 350.313C78.2296 350.559 77.474 350.02 76.8168 349.114C75.7282 347.618 75.7592 347.586 77.152 348.764C78.5072 349.911 78.6922 349.839 78.7547 348.146C78.7935 347.094 78.4196 346.218 77.9237 346.2C77.4279 346.181 77.0446 345.558 77.0721 344.814C77.0995 344.07 76.7478 343.448 76.2898 343.431C75.0267 343.384 70.2411 337.954 70.9132 337.33C71.2357 337.03 71.0901 336.889 70.5889 337.018C70.0876 337.146 68.7528 336.694 67.6233 336.013C65.7061 334.856 65.6296 334.896 66.4715 336.62C66.9676 337.635 68.2578 338.782 69.3377 339.17C71.7148 340.022 73.981 342.316 73.1808 343.06C72.4834 343.708 68.0933 341.283 68.596 340.528C68.79 340.238 67.6166 338.936 65.989 337.634C64.3615 336.333 63.0307 334.94 63.032 334.538C63.0324 334.136 63.4028 334.055 63.8539 334.357C64.9454 335.089 66.0284 333.387 65.2942 332.095C64.8805 331.368 64.507 331.385 63.9912 332.154C63.4571 332.952 62.5664 332.672 60.5687 331.077C59.0832 329.892 58.0912 328.589 58.3644 328.182C58.6377 327.774 58.4312 327.425 57.9065 327.405C57.3818 327.386 56.9667 326.965 56.985 326.469C57.046 324.815 58.9846 325.614 59.3949 327.46C59.618 328.462 60.1254 329.293 60.523 329.308C60.9206 329.322 61.98 329.602 62.877 329.931C64.1187 330.385 64.2201 330.305 63.2992 329.596C62.5987 329.056 62.4039 328.195 62.8367 327.549C63.3096 326.844 63.2131 326.644 62.575 327.007C62.0199 327.323 60.7626 326.653 59.7825 325.519C57.385 322.748 57.5662 321.263 60.0285 323.501C61.841 325.147 61.8332 325.09 59.9249 322.762C58.7863 321.373 57.5138 320.431 57.097 320.668C56.6802 320.904 55.853 320.252 55.2592 319.218C54.0249 317.069 52.388 316.61 53.07 318.605C53.3887 319.535 53.0964 319.748 52.0895 319.318C51.1411 318.914 50.861 319.067 51.2628 319.775C51.6604 320.474 51.3898 320.638 50.4806 320.25C49.4248 319.799 49.2199 320.065 49.6291 321.357C50.5217 324.177 50.8179 324.493 51.9533 323.84C54.0018 322.663 55.1979 322.935 54.5719 324.438C54.0193 325.762 54.136 325.779 55.756 324.618C57.4381 323.412 57.4654 323.432 56.1864 324.941C54.9576 326.389 54.7205 326.405 53.8345 325.094C53.2917 324.292 52.5781 323.887 52.2481 324.194C51.9172 324.501 52.0502 325.276 52.543 325.916C53.1641 326.722 53.142 327.249 52.4725 327.629C51.9405 327.931 51.4631 327.95 51.4111 327.671C51.3591 327.391 51.2669 326.856 51.2059 326.481C50.8803 324.488 45.594 317.115 45.5399 318.58C45.524 319.011 45.9984 319.93 46.5931 320.621C47.4597 321.626 47.4528 321.739 46.5595 321.19C45.9451 320.813 44.6471 318.775 43.6751 316.663C42.7022 314.55 41.3543 312.472 40.6794 312.045C40.0046 311.616 39.7596 310.795 40.1347 310.219C40.642 309.44 40.4587 309.439 39.4235 310.215C38.3 311.058 37.7581 310.918 36.6254 309.491C35.8533 308.518 35.6243 307.604 36.1171 307.46C36.609 307.316 37.1107 306.322 37.2314 305.25C37.3522 304.18 37.7914 303.532 38.209 303.811C38.6257 304.091 38.7195 304.9 38.4171 305.609C38.1078 306.335 38.2687 306.671 38.7851 306.378C39.2895 306.09 39.9349 306.533 40.2176 307.361C40.634 308.579 40.9052 308.643 41.6316 307.697C42.2831 306.848 42.3967 307.048 42.0454 308.423C41.7426 309.607 42.1779 310.8 43.2038 311.599C44.1077 312.302 44.8234 313.532 44.7939 314.332C44.7644 315.131 45.3272 315.807 46.0439 315.834C47.0284 315.87 47.1461 315.469 46.5241 314.196C46.0708 313.269 45.8972 312.518 46.137 312.527C46.3768 312.536 45.4184 309.982 44.0065 306.85C40.968 300.114 39.8371 296.044 41.0163 296.088C41.477 296.105 41.8239 296.955 41.7863 297.975C41.7486 298.996 42.117 299.605 42.6048 299.328C43.1415 299.023 43.2111 297.994 42.7804 296.723C42.2407 295.128 42.3853 294.633 43.3806 294.67C44.1037 294.697 44.4651 295.251 44.1864 295.904C43.5213 297.463 44.9112 297.476 46.3001 295.923C47.0778 295.053 49.3077 294.809 54.0201 295.079C60.0101 295.422 60.6222 295.297 60.3882 293.785C60.2126 292.649 60.5303 292.285 61.3826 292.648C62.2065 292.999 62.481 292.731 62.1835 291.863C61.9358 291.137 61.2598 290.742 60.6821 290.984C60.1044 291.227 60.3212 290.955 61.163 290.38C62.5439 289.436 62.567 289.125 61.4024 287.195C60.133 285.093 60.1686 285.058 63.4015 285.178C66.4208 285.289 66.6175 285.146 65.7873 283.447C65.0923 282.024 65.1509 281.661 66.0394 281.877C66.6755 282.031 67.4497 282.777 67.7594 283.533C68.1403 284.464 68.3701 284.158 68.4715 282.584C68.6033 280.53 68.9779 280.285 71.7045 280.477C73.4009 280.596 74.6046 280.368 74.3782 279.971C74.1527 279.574 74.4656 279.266 75.0733 279.289C75.6809 279.311 75.9363 279.069 75.6402 278.751C75.345 278.432 75.643 277.67 76.304 277.056C77.7567 275.707 78.415 268.9 77.1719 268.067C76.6847 267.74 76.5321 267.104 76.835 266.653C77.1369 266.202 76.4864 265.799 75.3883 265.759C73.422 265.686 73.4164 265.716 74.997 267.776C75.879 268.925 75.0715 268.3 73.2021 266.385C71.3318 264.471 70.1194 262.61 70.5074 262.249C70.8953 261.889 71.4797 262.029 71.805 262.559C72.1312 263.089 73.1429 263.831 74.0526 264.205C75.3678 264.748 75.5968 264.561 75.1649 263.299C74.7623 262.122 75.1896 262.286 76.8189 263.933C78.0268 265.155 78.8052 266.47 78.5473 266.854C78.2903 267.238 78.6242 267.902 79.2909 268.33C79.9576 268.758 80.711 269.724 80.9649 270.478C81.2985 271.468 81.4635 271.35 81.5585 270.049C81.7166 267.892 79.2373 263.593 76.7483 261.709C75.1692 260.514 74.8808 260.525 74.3402 261.793C73.7818 263.102 73.5678 263.082 72.021 261.574C71.0833 260.661 70.5676 259.539 70.8753 259.08C71.1829 258.621 70.6173 257.628 69.6188 256.873C68.5851 256.09 68.0445 254.936 68.3627 254.19C69.0328 252.618 68.3774 252.519 65.7008 253.787C64.5973 254.311 64.007 254.428 64.3885 254.047C65.2994 253.143 63.4372 250.738 62.3178 251.374C61.8171 251.658 61.9238 252.51 62.5706 253.404C63.5559 254.764 63.5157 254.802 62.2321 253.719C61.3522 252.978 60.5533 252.828 60.2094 253.342C59.896 253.809 60.1427 254.414 60.7564 254.689C61.5549 255.045 61.5655 255.196 60.7956 255.218C59.0567 255.27 58.6776 253.701 60.1541 252.565C61.8154 251.287 60.4666 247.618 58.6855 248.571C58.0776 248.896 58.4108 248.284 59.4263 247.21C61.1511 245.385 61.3434 245.362 62.3578 246.863C63.1189 247.988 63.1505 248.795 62.4649 249.563C61.1937 250.985 63.5547 250.806 65.4651 249.337C66.2028 248.769 67.0837 248.604 67.4232 248.969C67.7627 249.335 67.7871 248.893 67.4775 247.988C67.1206 246.944 66.2954 246.48 65.2204 246.72C64.2883 246.926 63.3128 246.72 63.0517 246.26C62.7906 245.801 62.9709 245.439 63.4533 245.457C64.7146 245.504 62.8042 240.222 60.6507 237.709C59.6676 236.561 58.2149 234.116 57.4233 232.276C56.6327 230.437 55.6108 228.918 55.1537 228.901C54.6975 228.884 54.5467 228.346 54.8204 227.706C55.0932 227.065 54.4027 225.081 53.285 223.296C52.1673 221.511 50.5677 218.328 49.7299 216.223C48.8931 214.117 47.927 212.384 47.5853 212.372C46.9731 212.349 48.0639 216.526 50.0849 221.943C51.2252 225 51.4017 225.625 51.5138 227.014C51.5566 227.541 51.9297 227.781 52.3446 227.545C52.7586 227.31 53.7589 228.339 54.5678 229.831C55.3767 231.323 55.7852 232.535 55.475 232.524C55.1658 232.513 55.7339 233.752 56.7384 235.279C57.7428 236.806 58.311 238.045 58.0017 238.034C57.6925 238.022 58.5403 239.071 59.8856 240.364C61.2309 241.658 61.6974 242.47 60.9231 242.169C60.0357 241.826 59.4943 242.138 59.462 243.014C59.4337 243.78 59.7983 244.42 60.2725 244.437C60.7467 244.455 60.6071 245.059 59.9621 245.78C58.5252 247.386 56.5836 247.524 57.8703 245.928C59.3897 244.043 58.8509 242.742 54.5354 237.878C51.0702 233.972 50.5453 232.931 51.5001 231.863C52.1357 231.152 52.4045 230.301 52.0981 229.97C51.7907 229.64 51.5214 229.867 51.499 230.474C51.4766 231.082 51.0582 231.312 50.5702 230.984C50.0821 230.657 49.9046 229.375 50.1769 228.137C50.587 226.272 50.4449 226.059 49.3523 226.899C48.3237 227.691 47.7402 227.6 46.7061 226.487C45.9768 225.701 45.4016 224.454 45.4289 223.715C45.5177 221.31 44.5164 219.477 43.4373 220.071C42.8568 220.39 42.9723 219.976 43.6942 219.152C44.8234 217.86 44.8001 217.147 43.5211 214.007C42.704 212.002 41.7701 210.352 41.4437 210.34C40.8216 210.317 37.7698 199.294 36.9221 194.008C36.5802 191.873 36.7246 191.115 37.3889 191.56C38.0505 192.004 38.1696 191.417 37.7705 189.683C36.6337 184.745 37.7471 183.563 42.9645 184.168C44.0297 184.292 45.1835 183.974 45.5275 183.46C45.8705 182.947 46.6353 182.551 47.2256 182.58C47.8707 182.613 47.7459 182.963 46.9142 183.458C45.7678 184.141 45.8388 184.294 47.3326 184.353C50.8033 184.488 55.9387 183.547 55.9673 182.771C55.9832 182.34 55.2878 181.933 54.4209 181.866C53.0832 181.763 53.1218 181.645 54.6754 181.086C55.6818 180.723 56.7858 180.602 57.1282 180.817C57.4706 181.032 58.5113 180.105 59.4403 178.758C61.4185 175.89 62.6608 174.958 63.6361 175.611C64.0229 175.87 64.38 175.146 64.4295 174.001C64.4834 172.76 64.7729 172.352 65.1466 172.99C65.5967 173.757 66.362 173.618 67.8597 172.494C70.153 170.773 70.649 169.026 68.8942 168.85C68.2762 168.789 68.9028 168.371 70.288 167.922C71.6732 167.473 72.5909 166.727 72.3272 166.263C72.0636 165.8 73.6649 165.487 75.8845 165.569C82.5271 165.814 84.7672 164.288 80.9963 162.087C79.9658 161.486 79.3397 161.377 79.6059 161.845C79.8721 162.313 78.709 162.615 77.0209 162.517L73.9535 162.338L76.3506 160.422C78.9487 158.346 81.225 158.898 82.8081 161.991C83.2561 162.866 83.9252 163.301 84.2936 162.959C84.6628 162.616 84.4246 161.634 83.7656 160.777C83.1057 159.92 82.5745 158.976 82.5854 158.68C82.5963 158.385 82.367 158.213 82.0759 158.298C81.1222 158.578 58.6144 133.294 59.1312 132.523C59.4083 132.109 59.0317 131.232 58.2949 130.573C56.1748 128.677 47.6393 114.869 47.6927 113.421C47.7193 112.701 47.1437 111.857 46.4131 111.546C45.6826 111.234 45.3223 110.624 45.6136 110.19C45.9041 109.757 45.6885 109.385 45.134 109.364C44.5796 109.344 44.3707 108.963 44.6688 108.518C44.9678 108.072 44.674 107.128 44.0158 106.42C42.6205 104.918 41.7839 102.216 41.4496 98.1379C41.3191 96.537 40.9265 93.7943 40.5785 92.0436C39.4132 86.1912 39.5038 86.1089 46.4395 86.6563C49.8961 86.9292 54.0522 86.9624 55.674 86.7298C58.2071 86.3674 58.6373 85.9364 58.7209 83.6726C58.7936 81.7 59.1532 81.1806 60.1513 81.6056C61.0765 82.0008 61.5059 81.5933 61.5545 80.2752C61.5931 79.2303 62.235 78.3476 62.9811 78.3129C65.5024 78.1965 65.8244 78.0819 67.2961 76.7793C68.1043 76.0644 70.0376 74.5351 71.5924 73.38C74.2183 71.4303 74.907 69.0353 72.4665 70.3401C71.8679 70.6593 72.1183 70.1359 73.0231 69.1753C73.9279 68.2157 74.6858 66.931 74.7083 66.3206C74.7308 65.7112 75.1853 65.504 75.7183 65.8613C76.3086 66.2569 76.2647 65.6594 75.6042 64.3305C75.0093 63.1313 74.4861 61.3571 74.4433 60.3886C74.4005 59.4192 72.318 56.6007 69.8166 54.1241C67.3152 51.6476 65.5488 49.6315 65.8923 49.6442C67.6864 49.7104 63.8965 46.725 60.8874 45.7004C57.733 44.627 57.4447 44.2688 57.893 41.9787C58.1656 40.585 57.9653 39.162 57.4491 38.8153C56.8976 38.4465 56.7566 38.6218 57.1075 39.2396C57.4873 39.9073 57.2314 40.091 56.4075 39.7392C55.4129 39.3152 55.3156 38.5524 55.9942 36.4812C56.7534 34.1574 56.6213 33.6985 55.0535 33.2263C53.6481 32.8034 53.5111 32.504 54.4596 31.9269C55.4523 31.3244 55.391 30.9294 54.1496 29.9032C52.7891 28.7787 52.7714 28.5009 54.0006 27.555C56.2706 25.8088 61.6097 27.471 62.5376 30.2136C62.9642 31.4734 63.7293 32.2689 64.2374 31.9799C64.7455 31.6916 65.1688 31.2523 65.178 31.0043C65.1871 30.7564 64.8608 30.7435 64.4532 30.9749C64.0457 31.2063 63.3059 30.1896 62.8105 28.7142C62.2696 27.1027 62.2513 25.839 62.7658 25.5465C63.2361 25.2795 63.4019 24.6744 63.1332 24.2023C62.8653 23.7302 63.0731 23.3596 63.596 23.3789C64.1649 23.3999 64.4 22.2142 64.1818 20.4195C63.8475 17.6619 64.0772 17.3353 67.0917 16.2793C71.5294 14.7241 73.1067 12.9316 70.2522 12.6864C68.3983 12.5268 68.3569 12.4521 69.9373 12.1186C72.272 11.6261 73.3912 9.99278 72.0336 9.05793C71.3355 8.5763 71.5488 8.34762 72.668 8.37993C74.0225 8.41904 74.1564 8.16757 73.3449 7.11295C72.5368 6.06303 72.7085 5.69295 74.1961 5.28109C75.2213 4.99661 76.4252 5.00762 76.8701 5.30664C78.0242 6.07958 80.6704 5.02341 80.099 4.01741C79.8362 3.55544 79.2354 3.39603 78.7633 3.66482C77.962 4.12002 77.556 2.79061 77.9506 1.0023C78.0459 0.572482 77.3868 0.476826 76.4861 0.789347C75.5853 1.10278 69.4821 1.18635 62.9239 0.975956C56.3658 0.764712 51.1955 0.937786 51.4355 1.36013C51.6754 1.78241 50.514 2.69834 48.8542 3.39634C47.1954 4.09347 44.5904 5.42734 43.0664 6.35964C41.5424 7.292 39.7796 8.28682 39.148 8.57043C38.5173 8.85413 37.9797 9.65132 37.9542 10.3419C37.9287 11.0325 37.4778 11.5819 36.9531 11.5625C36.4284 11.5432 36.3051 11.0691 36.6796 10.5097C37.1123 9.8657 36.956 9.72367 36.2524 10.1238C35.4031 10.6062 35.3791 11.0612 36.1519 12.0647C36.9091 13.0487 36.901 13.3662 36.1185 13.3373C35.5451 13.3161 33.8207 14.4911 32.2864 15.9494C30.6397 17.5145 29.0509 18.3207 28.4076 17.9178C27.8085 17.5436 27.585 17.5571 27.9109 17.9483C28.2377 18.3386 27.4639 19.4927 26.1922 20.512C21.0021 24.6719 24.1985 40.2445 33.5199 56.2164C35.3557 59.3608 35.8812 61.193 35.4127 62.807C34.875 64.6559 35.0321 64.9506 36.3185 64.5106C37.1816 64.2156 37.6311 64.3414 37.3282 64.7934C37.0282 65.2418 36.0798 65.5986 35.2207 65.5877C31.6628 65.5404 29.3939 66.1085 27.6687 67.4794C26.6634 68.2773 25.44 68.9156 24.9505 68.8976C24.46 68.8795 24.0439 69.2703 24.0256 69.7662C24.0073 70.262 23.3928 70.6456 22.6607 70.6186C21.9287 70.5916 20.6558 71.5197 19.832 72.6809C19.0083 73.8422 16.6615 75.8121 14.6167 77.0602C12.571 78.3073 10.3795 80.4003 9.74618 81.7104C9.11285 83.0204 7.88753 85.0822 7.02409 86.2917C5.30207 88.7009 3.94959 94.8702 4.66676 97.0381ZM9.78759 201.291C10.0759 201.602 10.0796 202.381 9.79508 203.021C9.48094 203.73 9.27516 203.509 9.27063 202.457C9.26693 201.505 9.49931 200.981 9.78759 201.291ZM19.7759 201.195C20.0044 201.827 20.5102 202.163 20.9012 201.941C21.2922 201.719 21.3627 202.622 21.0583 203.947C20.5593 206.118 20.4416 206.177 19.875 204.553C19.5288 203.561 19.2715 202.141 19.3035 201.398C19.3426 200.483 19.4958 200.417 19.7759 201.195ZM21.6742 206.902C22.1701 206.92 22.5692 207.114 22.5611 207.333C22.553 207.552 22.1315 207.966 21.6243 208.254C21.1172 208.542 20.7181 208.348 20.7374 207.823C20.7568 207.299 21.1784 206.884 21.6742 206.902ZM17.608 351.196C17.8027 351.204 18.2271 350.589 18.5512 349.83C18.8882 349.039 18.7501 348.672 18.2282 348.969C17.3513 349.466 16.8777 351.17 17.608 351.196ZM16.1168 568.053C16.4051 568.363 16.4089 569.143 16.1243 569.783C15.8102 570.492 15.6044 570.27 15.5999 569.218C15.5962 568.267 15.8286 567.743 16.1168 568.053ZM30.4932 187.824C31.0151 187.527 31.1532 187.894 30.8162 188.685C30.1591 190.225 29.5021 190.487 29.5499 189.19C29.5672 188.723 29.9916 188.109 30.4932 187.824ZM35.9799 85.5545C38.1851 85.6359 38.6278 86.0674 38.8808 88.387C39.0536 89.9669 38.6771 91.5103 37.9895 92.0393C37.3353 92.5433 36.8562 94.323 36.9263 95.9949C36.9965 97.6667 36.6966 98.7949 36.2596 98.5026C35.8236 98.2102 35.6952 97.2124 35.974 96.2856C36.2538 95.3589 36.126 94.5877 35.6906 94.5716C34.8738 94.5415 33.4407 89.8294 33.4001 87.0392C33.3833 85.8803 34.0714 85.4841 35.9799 85.5545ZM31.1055 195.965C31.6127 195.677 32.0034 196.098 31.9738 196.9C31.9442 197.702 31.5235 198.093 31.039 197.768C30.5544 197.443 30.1637 197.023 30.1707 196.833C30.1777 196.644 30.5984 196.253 31.1055 195.965ZM34.3668 195.634C36.4866 204.76 36.5932 206.349 34.793 201.969C34.0682 200.205 33.5309 198.03 33.6 197.137C33.6691 196.244 33.2307 195.302 32.6255 195.044C31.9189 194.743 31.7119 193.38 32.0474 191.234C32.5318 188.139 32.7013 188.461 34.3668 195.634ZM37.3723 91.2482C37.6458 90.6372 37.6832 89.623 37.4555 88.9943C37.2286 88.3649 37.0052 88.8649 36.9595 90.1045C36.9138 91.3441 37.0997 91.8584 37.3723 91.2482ZM30.8479 409.512C33.0299 411.713 34.7926 414.124 34.765 414.87C34.7375 415.616 34.9693 415.989 35.2806 415.7C35.5918 415.412 36.7205 416.191 37.7896 417.433C38.8577 418.676 40.0406 419.405 40.4182 419.055C40.795 418.704 40.9523 418.87 40.7657 419.423C40.5801 419.976 41.8015 421.741 43.4801 423.346C45.232 425.02 45.9766 426.248 45.2289 426.229C44.5119 426.211 42.7659 425.036 41.3485 423.618C39.9311 422.199 39.043 421.557 39.3735 422.191C40.4698 424.287 39.0688 423.355 35.0629 419.323C32.8859 417.133 30.9534 414.335 30.7676 413.107C30.5809 411.878 29.4577 409.827 28.2698 408.549C24.5206 404.511 26.6997 405.325 30.8479 409.512ZM37.6051 100.134C37.7381 100.345 38.4114 101.353 39.1024 102.371C40.2643 104.084 40.2438 104.126 38.8264 102.928C37.9833 102.215 37.31 101.208 37.3291 100.691C37.3481 100.173 37.4721 99.9222 37.6051 100.134ZM33.9055 302.145C34.8567 302.18 35.1931 303.925 34.3411 304.409C33.8257 304.701 33.4276 304.308 33.4561 303.536C33.4846 302.763 33.6865 302.137 33.9055 302.145ZM27.0687 574.532C27.5217 575.293 27.8699 576.525 27.8425 577.269C27.7981 578.471 27.7017 578.467 26.9689 577.237C26.5158 576.475 26.1676 575.243 26.195 574.5C26.2394 573.298 26.3359 573.301 27.0687 574.532ZM32.1662 420.345C32.3374 420.351 33.2161 421.298 34.1198 422.448L35.7624 424.54L33.7973 422.748C31.951 421.064 31.4449 420.318 32.1662 420.345ZM37.7496 309.509C38.4534 310.692 38.5845 310.665 38.6459 309.316C38.6852 308.449 38.312 307.724 37.8161 307.706C36.7162 307.665 36.7125 307.767 37.7496 309.509ZM41.6873 203.126C42.2761 204.101 42.3869 203.569 42.0612 201.335C41.4916 197.42 41.0056 196.668 40.9169 199.562C40.8808 200.761 41.227 202.365 41.6873 203.126ZM46.863 121.667C47.5308 122.655 47.8787 123.648 47.6357 123.873C47.1215 124.352 45.6061 121.968 45.6314 120.721C45.6414 120.254 46.1953 120.68 46.863 121.667ZM26.9558 691.663C27.1836 692.292 27.1461 693.306 26.8726 693.917C26.6 694.527 26.4141 694.013 26.4598 692.774C26.5056 691.534 26.7289 691.034 26.9558 691.663ZM48.1748 124.824C48.6706 124.842 49.0605 125.287 49.0411 125.812C49.0217 126.337 48.6094 126.501 48.1249 126.176C47.6403 125.851 47.2505 125.407 47.2586 125.188C47.2666 124.969 47.6789 124.806 48.1748 124.824ZM35.099 507.485C35.7205 507.132 35.9052 507.265 35.5431 507.805C35.202 508.313 35.5781 509.009 36.3789 509.351C37.1788 509.692 37.5739 510.214 37.2552 510.509C36.9374 510.804 36.077 510.511 35.3447 509.855C33.7471 508.427 33.7297 508.263 35.099 507.485ZM40.0238 367.887C40.7905 368.713 40.7519 371.009 39.972 370.98C39.551 370.964 39.2954 370.16 39.4042 369.192C39.513 368.225 39.792 367.638 40.0238 367.887ZM41.8273 317.784C42.251 317.8 43.6847 319.681 45.0124 321.964C46.341 324.248 47.7766 326.129 48.2021 326.145C48.6285 326.16 48.7053 325.694 48.373 325.108C47.9974 324.449 48.1545 324.303 48.7843 324.726C50.2389 325.701 49.961 327.728 48.2941 328.299C47.4804 328.576 47.1245 328.412 47.4589 327.913C47.7799 327.434 47.4097 327.018 46.6371 326.99C45.8645 326.961 45.2528 326.363 45.2787 325.66C45.3046 324.958 44.9882 324.236 44.5751 324.054C44.0012 323.803 42.0393 320.333 41.1437 317.985C41.096 317.859 41.4035 317.769 41.8273 317.784ZM44.5042 233.925C44.699 233.932 45.0769 234.576 45.3442 235.357C45.6221 236.171 45.4573 236.527 44.9586 236.192C44.1208 235.631 43.774 233.898 44.5042 233.925ZM45.7199 218.863C46.3591 218.274 46.6627 217.557 46.3953 217.27C46.1278 216.982 45.6054 217.463 45.2336 218.34C44.6976 219.607 44.7965 219.714 45.7199 218.863ZM45.7699 215.916C46.2946 215.935 46.489 215.536 46.2008 215.029C45.9125 214.522 45.4984 214.1 45.2793 214.092C45.0602 214.084 44.8667 214.483 44.8484 214.979C44.8302 215.475 45.2452 215.897 45.7699 215.916ZM39.4382 425.921C40.3673 427.358 41.054 427.734 41.5069 427.059C42.0036 426.318 42.4437 426.381 43.1458 427.293C43.9064 428.283 43.6405 428.516 41.863 428.418C39.7395 428.3 37.9884 426.578 38.0289 424.648C38.0395 424.166 38.6738 424.739 39.4382 425.921ZM48.9847 136.59C49.1713 136.597 49.8555 137.333 50.5042 138.226C51.5721 139.697 51.5393 139.727 50.1508 138.554C48.6923 137.32 48.2427 136.563 48.9847 136.59ZM50.9481 128.372C52.5787 130.128 53.8226 129.717 52.4908 127.861C51.8271 126.938 52.8751 128.042 54.8179 130.315C58.1524 134.216 59.2552 136.969 57.4557 136.902C57.0139 136.886 56.9236 137.352 57.2559 137.938C57.634 138.603 57.4736 138.742 56.8296 138.31C56.2622 137.93 56.0071 137.308 56.2622 136.927C56.5173 136.546 55.7708 135.269 54.6038 134.089C53.4367 132.908 52.7543 131.536 53.0867 131.04C53.4536 130.492 53.0936 130.342 52.1701 130.658C51.1762 130.998 50.6656 130.719 50.6975 129.854C50.7244 129.126 50.2731 128.512 49.6943 128.491C49.1164 128.47 48.9301 128.185 49.2815 127.859C49.633 127.533 50.3828 127.764 50.9481 128.372ZM44.3099 302.98C45.4253 303.727 45.4693 302.534 44.3931 300.726C43.6833 299.533 43.5598 299.553 43.4987 300.866C43.4606 301.704 43.8254 302.655 44.3099 302.98ZM36.818 577.29C37.7697 578.168 38.2435 579.443 37.9192 580.256C37.6068 581.041 37.7006 581.386 38.1282 581.026C39.3815 579.968 43.101 584.248 41.9994 585.479C41.3072 586.254 41.8638 586.51 44.176 586.48C45.8849 586.458 47.1923 586.82 47.0813 587.284C46.9703 587.748 47.3803 588.332 47.9921 588.583C49.4578 589.182 48.4495 585.975 46.8399 584.921C46.1973 584.5 45.7025 583.669 45.7407 583.075C45.778 582.481 46.8383 583.251 48.0961 584.787C49.3539 586.323 50.8231 587.46 51.3593 587.316C51.8964 587.171 51.3877 587.99 50.2277 589.138C49.0687 590.285 48.1038 591.65 48.0845 592.171C48.0226 593.851 51.5928 598.042 52.5979 597.471C53.1871 597.137 52.7465 596.233 51.4816 595.185C50.3323 594.231 49.8994 593.461 50.5192 593.473C51.1398 593.485 51.6627 593.064 51.6821 592.54C51.7014 592.015 51.307 591.818 50.8053 592.103C50.2834 592.4 50.1444 592.033 50.4803 591.247C51.3104 589.302 52.5071 590.413 53.2579 593.824C53.6104 595.427 54.279 596.758 54.7431 596.782C56.3892 596.87 57.5812 598.23 57.9137 600.401C58.1728 602.089 57.9368 602.467 56.9022 602.025C55.881 601.59 55.6863 601.877 56.0994 603.206C56.6206 604.886 56.5908 604.888 55.4332 603.278C54.7659 602.352 53.8804 601.568 53.4636 601.536C53.0467 601.504 52.8169 601.128 52.9518 600.701C53.1797 599.98 49.9968 597.6 48.6408 597.478C48.3114 597.448 47.7171 597.042 47.3199 596.576C46.9011 596.083 47.0616 596.016 47.7022 596.417C49.5773 597.59 48.9795 595.614 46.599 592.772C44.8938 590.735 44.4686 590.517 44.8792 591.89C45.2964 593.283 45.1852 593.458 44.4078 592.629C42.979 591.103 44.3493 589.199 45.8865 590.573C46.6233 591.232 47.2512 591.294 47.6199 590.744C47.9381 590.269 47.6968 589.541 47.0829 589.125C45.9969 588.39 45.4095 588.185 42.1663 587.413C41.2285 587.19 40.6228 586.208 40.6558 584.97C40.6924 583.637 39.9734 582.596 38.6386 582.046C37.3687 581.522 36.7724 580.704 37.0996 579.936C37.394 579.246 37.0601 578.437 36.3579 578.137C35.6558 577.838 35.096 577.178 35.1147 576.671C35.1334 576.165 35.8995 576.443 36.818 577.29ZM42.842 389.012C43.2912 389.782 43.7996 389.924 44.1636 389.382C44.4894 388.895 44.1577 388.244 43.4271 387.932C41.8922 387.277 41.8631 387.332 42.842 389.012ZM45.9966 306.202C46.4914 307.034 46.8415 307.159 46.8744 306.514C46.9034 305.923 46.5311 305.175 46.0465 304.85C44.9523 304.117 44.9408 304.429 45.9966 306.202ZM46.0976 301.188C46.5363 301.483 46.7139 300.904 46.4909 299.902C46.0177 297.776 45.4154 297.488 45.3465 299.354C45.3201 300.069 45.658 300.894 46.0976 301.188ZM50.9576 156.524C51.1442 156.531 51.8284 157.267 52.4771 158.16C53.5449 159.631 53.5122 159.661 52.1237 158.488C50.6652 157.254 50.2156 156.496 50.9576 156.524ZM38.4873 518.981C38.6739 518.988 39.3581 519.724 40.0068 520.617C41.0747 522.088 41.0419 522.118 39.6534 520.945C38.1949 519.711 37.7453 518.954 38.4873 518.981ZM42.1542 418.005C42.3092 418.011 43.5796 419.377 44.9761 421.043L47.5159 424.071L44.6835 421.315C42.0438 418.746 41.4573 417.979 42.1542 418.005ZM33.6028 690.786C34.1247 690.49 34.2628 690.857 33.9258 691.648C33.2687 693.187 32.6117 693.449 32.6595 692.153C32.6768 691.686 33.1012 691.071 33.6028 690.786ZM48.0442 309.26C48.9691 309.663 49.9467 309.788 50.2159 309.539C51.0684 308.746 49.7473 307.974 48.0226 308.255C46.4422 308.513 46.4431 308.561 48.0442 309.26ZM47.8103 300.722C47.9787 301.296 48.5692 301.783 49.1227 301.804C49.8611 301.831 49.8701 301.561 49.1555 300.792C48.6198 300.215 48.3997 299.233 48.6656 298.608C48.9323 297.984 48.7507 297.206 48.2626 296.879C47.416 296.311 47.1593 298.498 47.8103 300.722ZM53.2594 141.262C53.41 141.267 54.8754 142.827 56.517 144.727C58.1576 146.629 58.7108 147.564 57.7457 146.806C55.0408 144.682 52.2425 141.224 53.2594 141.262ZM54.2029 132.72C54.6874 133.045 55.0998 132.88 55.1191 132.356C55.1385 131.831 54.7486 131.386 54.2528 131.368C53.7569 131.349 53.3447 131.513 53.3366 131.732C53.3285 131.951 53.7184 132.395 54.2029 132.72ZM34.5867 694.558C35.0228 694.85 35.145 695.307 34.858 695.573C34.571 695.84 34.8165 696.722 35.4031 697.534C36.3213 698.806 36.2773 698.849 35.0829 697.846C33.6434 696.636 33.1886 693.62 34.5867 694.558ZM43.0124 506.149C44.3619 508.135 45.3218 509.914 45.1452 510.102C44.5841 510.7 41.9905 507.959 41.289 506.026C40.0114 502.506 40.5625 502.546 43.0124 506.149ZM48.3242 311.431C48.7005 312.074 49.474 312.25 50.1766 311.851C51.071 311.343 50.9015 311.02 49.5221 310.604C48.4979 310.296 47.6644 310.108 47.6687 310.185C47.674 310.263 47.9684 310.824 48.3242 311.431ZM33.7337 720.125C34.4901 720.153 39.6725 727.848 39.8515 729.21C39.9613 730.052 40.4713 730.666 40.9828 730.577C41.4944 730.488 41.7532 731.106 41.5577 731.952C41.3631 732.798 41.1663 733.654 41.1211 733.854C40.953 734.591 37.3645 730.601 36.5899 728.817C35.8027 727.004 35.8127 727.003 37.1268 728.774C38.4504 730.558 38.4648 730.558 38.4918 728.824C38.5074 727.861 37.3712 725.624 35.9668 723.853C33.4833 720.72 33.1134 720.102 33.7337 720.125ZM42.324 523.95C43.2016 524.805 44.2672 525.212 44.6921 524.854C45.1178 524.496 45.1842 524.656 44.8415 525.207C44.4989 525.759 44.8042 526.733 45.5199 527.374C46.2357 528.014 46.8339 528.195 46.8493 527.776C46.8648 527.356 47.5472 528.043 48.3657 529.3C49.1842 530.558 49.7415 531.897 49.6038 532.276C49.4662 532.654 50.3563 533.388 51.5821 533.906C54.071 534.959 54.6693 536.093 52.2208 535.117C49.8275 534.164 48.4381 532.771 49.0171 531.906C49.3047 531.476 49.1575 531.111 48.6896 531.093C48.2217 531.076 46.2323 529.28 44.2696 527.103C40.6279 523.063 39.443 521.142 42.324 523.95ZM44.9792 431.651C45.4751 431.669 45.8742 431.863 45.8661 432.082C45.858 432.301 45.4365 432.715 44.9293 433.003C44.4222 433.291 44.0231 433.097 44.0425 432.572C44.0618 432.048 44.4834 431.633 44.9792 431.651ZM49.093 318.465C49.544 318.768 50.1549 318.653 50.4511 318.212C50.7472 317.77 50.3917 317.154 49.6611 316.842C48.2213 316.227 47.7521 317.567 49.093 318.465ZM51.7077 246.423C55.7163 251.065 60.1926 258.006 59.4512 258.427C58.944 258.715 58.6598 258.419 58.8202 257.766C58.9805 257.115 58.5707 256.674 57.9093 256.786C57.2471 256.898 56.9779 256.583 57.3113 256.087C57.6438 255.59 57.5248 255.169 57.0461 255.151C56.5683 255.134 54.991 253.178 53.5421 250.805C50.9864 246.618 50.1485 244.616 51.7077 246.423ZM43.6874 519.173C44.6731 520.45 45.805 521.508 46.2034 521.523C46.6028 521.537 47.1923 521.833 47.5144 522.18C47.8374 522.527 47.4782 522.696 46.7169 522.555C44.9532 522.23 41.7427 519.129 41.8292 517.836C41.8663 517.294 42.7018 517.895 43.6874 519.173ZM50.7123 332.566C51.8081 333.843 52.9788 335.71 53.3145 336.715C53.677 337.804 52.8723 337.225 51.326 335.288C48.299 331.494 47.7668 329.134 50.7123 332.566ZM47.6214 428.356C46.6266 427.057 46.7147 427.043 48.4552 428.218C49.8382 429.151 50.0789 429.721 49.2854 430.185C48.6718 430.544 47.7642 430.798 47.2695 430.748C46.7748 430.698 46.9016 430.466 47.5521 430.233C48.5174 429.886 48.53 429.543 47.6214 428.356ZM62.9831 47.6735C64.0824 48.1474 64.8462 49.0251 64.6787 49.6256C64.2508 51.1662 67.0638 54.2762 68.301 53.6294C68.8662 53.3343 69.0467 53.3843 68.7022 53.7408C67.9917 54.4766 70.931 57.9551 72.3068 58.0059C72.8026 58.0242 73.1883 58.58 73.164 59.2409C73.1396 59.9026 72.5291 60.4218 71.8069 60.3951C71.0848 60.3685 70.7159 60.0163 70.9863 59.6128C71.2567 59.2093 70.083 57.9861 68.3783 56.8931C66.6735 55.8011 65.0576 54.1102 64.7875 53.136C64.5039 52.1118 63.8393 51.6042 63.2123 51.9341C62.6157 52.247 62.43 52.1923 62.7988 51.8132C63.1675 51.4341 62.906 50.2526 62.2185 49.189C60.6017 46.691 60.6192 46.6564 62.9831 47.6735ZM45.5546 511.117C46.5382 511.153 49.413 515.768 48.4422 515.751C48.0588 515.745 48.311 516.128 49.004 516.602C49.696 517.077 50.3372 518.147 50.4283 518.981C50.5195 519.814 50.4599 520.353 50.2967 520.177C50.1334 520.001 50.0781 519.592 50.1722 519.269C50.2672 518.944 49.2793 517.776 47.9776 516.671C46.4282 515.358 45.8232 514.164 46.2264 513.217C46.6385 512.251 46.4853 511.974 45.7651 512.384C45.1713 512.721 44.7021 512.567 44.7215 512.042C44.7409 511.517 45.1155 511.1 45.5546 511.117ZM53.2892 306.376C53.7204 307.582 54.3078 308.35 54.5938 308.085C54.8799 307.818 54.5322 306.427 53.8215 304.99C52.3915 302.102 52.064 302.954 53.2892 306.376ZM62.6691 58.4348C63.3141 59.0111 64.1162 59.2944 64.4515 59.0621C64.7869 58.8307 64.8473 58.9052 64.5863 59.2277C64.3252 59.5504 64.7844 60.684 65.6073 61.748C66.4302 62.8112 65.8354 62.4417 64.2852 60.9265C61.5579 58.2593 60.2928 56.3105 62.6691 58.4348ZM39.9838 732.208C41.3723 733.381 41.405 733.351 40.3372 731.879C39.6885 730.986 39.0043 730.25 38.8176 730.243C38.0757 730.216 38.5253 730.974 39.9838 732.208ZM63.8888 151.584C66.0394 153.857 67.792 155.905 67.7834 156.136C67.7642 156.656 63.6016 152.664 61.5352 150.143C58.6696 146.649 59.9718 147.446 63.8888 151.584ZM41.4969 700.3C42.0326 700.876 42.996 701.168 43.6387 700.949C44.2806 700.729 45.0555 700.988 45.3599 701.524C45.6972 702.118 45.3713 702.267 44.5242 701.905C43.5164 701.475 43.2727 701.717 43.6361 702.781C43.9124 703.588 44.5097 704.038 44.9643 703.78C45.4179 703.522 45.7728 703.764 45.7524 704.319C45.7319 704.873 46.1578 705.075 46.699 704.768C47.2892 704.432 47.5438 704.871 47.3356 705.867C47.1449 706.778 47.4613 707.452 48.0386 707.365C48.616 707.278 48.965 707.878 48.8137 708.698C48.6615 709.519 49.4292 711.614 50.5179 713.354C51.6074 715.094 52.2199 716.967 51.8783 717.517C51.5375 718.066 51.6058 718.223 52.0315 717.865C52.9912 717.056 56.1453 719.998 55.4422 721.047C54.5823 722.331 53.0049 721.825 53.5909 720.453C53.9476 719.615 53.7014 719.315 52.8859 719.593C51.4796 720.075 49.5085 716.83 50.553 715.754C50.9218 715.375 50.6788 715.354 50.0113 715.706C48.4699 716.522 46.2297 713.453 46.91 711.455C47.2148 710.56 46.4619 709.19 44.9718 707.931C43.6314 706.798 43.0669 706.17 43.7161 706.535C44.3662 706.899 43.9305 705.593 42.748 703.632C40.3881 699.717 40.0034 698.692 41.4969 700.3ZM49.4274 482.371C49.8804 483.132 50.266 483.349 50.2843 482.854C50.3026 482.358 49.947 481.329 49.4939 480.568C49.0408 479.806 48.6552 479.589 48.6369 480.085C48.6186 480.58 48.9743 481.609 49.4274 482.371ZM51.1815 510.974C52.6529 512.959 54.2523 514.485 54.7342 514.367C55.2171 514.248 55.3441 514.549 55.0183 515.036C54.2893 516.124 50.9661 514.071 51.0216 512.566C51.0424 512.003 50.4695 511.014 49.7485 510.369C49.0275 509.724 48.4528 508.784 48.4714 508.281C48.4899 507.778 49.7091 508.99 51.1815 510.974ZM49.7766 489.887C51.1853 490.83 52.0076 488.215 51.0561 485.817C50.2937 483.896 50.2639 483.92 50.6185 486.176C50.8474 487.631 50.5633 488.727 49.9062 488.919C49.135 489.145 49.0974 489.431 49.7766 489.887ZM55.105 334.604C55.2217 334.818 56.4811 336.456 57.9047 338.243L60.4931 341.494L57.6608 338.738C56.1034 337.223 54.8431 335.584 54.861 335.099C54.879 334.613 54.9883 334.39 55.105 334.604ZM51.3249 481.32C52.0783 486.056 56.9922 496.378 58.8009 497.026C59.7971 497.384 59.7507 497.1 58.6097 495.872C57.7779 494.976 57.3417 493.88 57.6407 493.434C57.9388 492.989 57.7533 492.608 57.2286 492.589C56.7039 492.57 56.3329 492.252 56.4052 491.882C56.7176 490.291 56.2949 489.098 54.7368 487.161C53.8235 486.026 52.8661 483.493 52.609 481.532C52.3518 479.571 51.779 477.724 51.3368 477.427C50.8945 477.131 50.572 477.015 50.6213 477.17C50.6697 477.326 50.9864 479.193 51.3249 481.32ZM50.5901 581.886C53.2317 586.019 53.4161 586.135 54.5762 584.422C55.3171 583.326 55.3915 582.852 54.7663 583.208C54.1946 583.533 52.4144 582.232 50.7454 580.27C47.0534 575.927 47.0172 576.298 50.5901 581.886ZM57.0624 333.694C57.2517 333.701 58.4424 335.268 59.7072 337.177L62.0086 340.647L59.3541 337.424C56.7395 334.248 56.3835 333.669 57.0624 333.694ZM68.3645 42.5131C68.8592 43.3448 69.2094 43.4697 69.2422 42.8245C69.2712 42.2343 68.8989 41.4856 68.4144 41.1609C67.3202 40.4281 67.3086 40.74 68.3645 42.5131ZM45.5694 709.277C46.054 709.602 46.4354 710.273 46.4171 710.769C46.3989 711.265 45.9874 711.405 45.5029 711.08C45.0183 710.755 44.6369 710.084 44.6552 709.588C44.6734 709.092 45.0849 708.952 45.5694 709.277ZM46.2347 691.246C46.7192 691.571 47.0915 692.32 47.0625 692.91C47.0297 693.555 46.6795 693.43 46.1848 692.598C45.129 690.825 45.1405 690.513 46.2347 691.246ZM55.6248 524.192C57.2252 525.862 58.2954 527.588 58.0012 528.025C57.3725 528.965 60.165 532.557 61.1074 532.021C61.4623 531.82 61.7288 532.306 61.6995 533.101C61.6651 534.032 60.4486 533.165 58.283 530.665C56.4343 528.53 55.1643 526.419 55.4615 525.975C55.9649 525.225 54.645 523.832 53.1015 523.483C52.7326 523.4 52.2046 523.273 51.9302 523.201C51.6557 523.128 51.7189 522.639 52.0723 522.112C52.4736 521.513 53.8036 522.291 55.6248 524.192ZM50.4724 638.073C51.1602 639.055 51.9406 639.657 52.2061 639.41C52.4716 639.163 51.9024 638.195 50.9403 637.258C48.8933 635.263 48.7187 635.567 50.4724 638.073ZM52.942 579.898C53.8587 581.185 54.7702 581.732 55.1228 581.205C55.4562 580.708 54.7432 579.601 53.537 578.746C50.9347 576.9 50.8822 577.003 52.942 579.898ZM55.1464 498.374C55.6451 498.708 55.8099 498.352 55.532 497.539C54.9901 495.955 54.3543 495.645 54.3064 496.942C54.2892 497.409 54.6672 498.053 55.1464 498.374ZM47.0966 738.674C47.5392 738.69 48.1322 739.379 48.415 740.204C48.8445 741.459 48.7099 741.51 47.5974 740.515C46.0811 739.159 45.9372 738.631 47.0966 738.674ZM64.4849 256.329C64.704 256.337 65.1181 256.758 65.4064 257.265C65.6946 257.773 65.5002 258.172 64.9755 258.152C64.4508 258.133 64.0357 257.711 64.054 257.216C64.0723 256.72 64.2658 256.321 64.4849 256.329ZM53.2337 599.421C53.7341 599.756 53.9403 600.334 53.692 600.704C53.4445 601.075 53.8252 601.399 54.5392 601.425C55.3416 601.455 55.5591 601.089 55.1072 600.468C54.706 599.916 54.2165 598.868 54.0186 598.14C53.7715 597.226 53.4539 597.125 52.9924 597.814C52.6246 598.363 52.7333 599.086 53.2337 599.421ZM66.0401 252.324C66.5246 252.648 66.9444 252.281 66.9729 251.508C67.0014 250.736 66.6191 250.088 66.1232 250.07C65.6274 250.051 65.2076 250.418 65.1904 250.885C65.1732 251.352 65.5555 251.999 66.0401 252.324ZM57.7745 501.872C58.4598 501.281 59.1406 500.152 59.2862 499.362C59.4318 498.573 59.2672 498.189 58.9204 498.512C58.5735 498.834 58.2731 499.369 58.2537 499.698C58.2334 500.029 57.8376 500.895 57.3729 501.622C56.6888 502.695 56.7647 502.742 57.7745 501.872ZM61.0374 412.382C61.5333 412.401 61.9231 412.846 61.9037 413.37C61.8844 413.895 61.4721 414.059 60.9875 413.735C60.503 413.41 60.1131 412.966 60.1212 412.747C60.1293 412.527 60.5416 412.364 61.0374 412.382ZM51.952 744.27C52.6966 744.935 53.0945 745.675 52.8374 745.914C52.5804 746.153 51.7618 745.804 51.0172 745.138C50.2726 744.472 49.8746 743.733 50.1317 743.494C50.3888 743.255 51.2074 743.604 51.952 744.27ZM56.7549 591.362C57.506 592.169 58.375 592.84 58.6861 592.851C58.998 592.863 58.7843 592.367 58.2112 591.75C56.881 590.318 56.9039 588.864 58.244 589.761C58.8598 590.175 59.0309 590.039 58.6782 589.419C58.3586 588.855 57.4923 588.601 56.7545 588.854C55.0794 589.427 55.08 589.558 56.7549 591.362ZM63.1948 412.462C63.3896 412.469 63.7675 413.113 64.0348 413.894C64.3127 414.708 64.1479 415.064 63.6492 414.729C62.8114 414.168 62.4646 412.435 63.1948 412.462ZM69.2217 258.876C69.6237 258.648 69.9829 259.239 70.0191 260.189C70.0554 261.139 69.6963 262.137 69.2214 262.407C68.7465 262.677 68.3882 262.086 68.4248 261.094C68.4614 260.103 68.8205 259.105 69.2217 258.876ZM57.8139 606.09C58.4664 606.511 60.2862 608.451 61.8574 610.399C63.5727 612.528 64.968 613.564 65.3502 612.993C65.7295 612.427 66.4465 612.986 67.1272 614.379C68.9034 618.015 66.9343 619.143 63.5387 616.433C62.0505 615.246 61.0399 614.082 61.2923 613.847C61.5456 613.612 62.7834 614.442 64.0446 615.69C68.0998 619.706 65.0586 614.805 60.5824 610.112C56.4783 605.808 55.7602 604.766 57.8139 606.09ZM60.0494 566.104C60.7573 566.418 60.5357 566.624 59.4838 566.629C58.5322 566.633 58.0081 566.4 58.3185 566.112C58.6288 565.824 59.4081 565.82 60.0494 566.104ZM63.7821 433.247C64.2248 433.264 64.8177 433.953 65.1006 434.777C65.53 436.033 65.3954 436.084 64.2829 435.089C62.7666 433.733 62.6227 433.205 63.7821 433.247ZM76.3523 155.239C77.471 156.751 78.1765 158.183 77.9194 158.421C77.6624 158.66 76.5362 157.619 75.4175 156.107C74.2978 154.596 73.5932 153.164 73.8503 152.925C74.1074 152.686 75.2326 153.728 76.3523 155.239ZM55.2164 706.075C56.5013 707.805 56.5179 707.795 55.6459 705.812C55.1461 704.676 54.5487 703.74 54.3188 703.732C53.6291 703.706 53.8111 704.182 55.2164 706.075ZM61.073 545.995C61.794 546.64 62.3679 547.601 62.3483 548.131C62.3288 548.66 61.7459 548.285 61.0539 547.295C59.4262 544.971 59.4335 544.529 61.073 545.995ZM58.9735 600.084C59.1646 600.091 59.9476 601.136 60.7142 602.405C61.4808 603.675 61.7544 604.701 61.3234 604.685C60.8916 604.669 60.1319 603.727 59.6348 602.591C58.5459 600.101 58.5372 600.068 58.9735 600.084ZM65.1952 436.911C65.9408 436.938 66.2981 438.705 65.6342 439.082C65.2036 439.327 64.8722 438.936 64.8988 438.214C64.9255 437.492 65.0591 436.906 65.1952 436.911ZM67.7939 376.069C68.2784 376.394 68.6907 376.229 68.7101 375.705C68.7295 375.18 68.3396 374.735 67.8438 374.717C67.3479 374.698 66.9356 374.862 66.9276 375.081C66.9195 375.3 67.3093 375.744 67.7939 376.069ZM81.5815 2.37576C82.0773 2.39405 82.498 2.00335 82.5163 1.50747C82.5346 1.0116 82.1439 0.590958 81.648 0.572663C81.1522 0.554368 80.7315 0.945069 80.7132 1.44095C80.6949 1.93683 81.0856 2.35746 81.5815 2.37576ZM65.5633 511.912L68.1888 515.112L66.2254 511.879C65.1462 510.102 64.1663 508.474 64.0477 508.263C63.93 508.052 63.6316 508.066 63.3857 508.295C63.1389 508.524 64.1188 510.151 65.5633 511.912ZM61.473 606.136C62.1583 606.427 62.9128 607.56 63.1506 608.651C63.5526 610.503 63.4703 610.481 61.917 608.318C59.9113 605.523 59.899 605.464 61.473 606.136ZM68.5836 436.657C69.3844 436.999 69.7883 437.653 69.4816 438.11C69.1491 438.606 68.4177 438.488 67.6705 437.82C66.1297 436.442 66.6194 435.819 68.5836 436.657ZM60.5112 630.835C60.6825 630.842 61.5612 631.788 62.4648 632.939L64.1074 635.031L62.1423 633.238C60.296 631.554 59.7899 630.809 60.5112 630.835ZM72.5643 344.648C73.0488 344.973 73.4637 344.741 73.4861 344.133C73.5085 343.525 73.7613 343.281 74.0478 343.589C74.8275 344.429 73.4182 346.143 72.4703 345.508C72.0192 345.206 71.6575 344.756 71.6667 344.508C71.6758 344.26 72.0798 344.323 72.5643 344.648ZM74.4492 441.203C76.1894 442.78 76.6735 443.654 75.7882 443.621C74.3376 443.567 70.5813 439.795 71.3067 439.12C71.5367 438.907 72.9511 439.844 74.4492 441.203ZM62.955 721.319C64.3435 722.492 64.3762 722.462 63.3084 720.991C62.1855 719.445 61.4629 718.941 61.4355 719.683C61.4286 719.87 62.1119 720.606 62.955 721.319ZM70.9564 521.019C72.757 522.841 73.043 522.919 72.8931 521.55C72.7966 520.667 71.8506 519.586 70.7906 519.149C68.339 518.138 68.3611 518.395 70.9564 521.019ZM64.6045 755.546C65.9511 757.098 67.4979 758.385 68.0425 758.405C68.5879 758.425 69.0158 758.917 68.9943 759.497C68.9729 760.078 69.4386 761.233 70.0282 762.062C70.6186 762.893 70.2419 762.606 69.1922 761.426C67.1318 759.109 65.7946 758.525 66.8245 760.391C67.2611 761.184 67.0008 761.142 65.9898 760.259C65.1808 759.552 64.726 758.665 64.9782 758.288C65.2313 757.912 64.4383 756.895 63.2181 756.029C61.997 755.163 61.2584 754.065 61.5775 753.589C61.8965 753.115 63.2589 753.995 64.6045 755.546ZM81.3585 277.572C82.5982 277.618 83.1133 277.432 82.5022 277.16C81.8921 276.886 80.8779 276.849 80.2484 277.077C79.6198 277.303 80.1189 277.527 81.3585 277.572ZM70.3001 816.109C74.4848 820.307 78.8969 824.485 80.1048 825.393L82.3008 827.043L80.1511 824.138C78.9687 822.541 77.2581 820.993 76.35 820.697C75.3268 820.365 74.9738 819.753 75.421 819.085C75.8509 818.444 75.7587 818.226 75.1934 818.547C74.6724 818.843 73.5231 818.015 72.6397 816.705C71.7564 815.396 70.1348 813.933 69.0349 813.452C67.935 812.972 67.0498 812.201 67.0668 811.74C67.1027 810.767 70.485 811.611 71.1352 812.755C71.3759 813.18 72.1852 813.316 72.9349 813.06C74.0376 812.683 73.9115 812.211 72.2702 810.573C71.1557 809.46 69.9971 807.829 69.6956 806.948C69.28 805.733 68.5611 805.471 66.7177 805.861C65.1308 806.198 64.5004 806.058 64.9016 805.46C65.2398 804.955 64.9187 804.288 64.1881 803.976C62.6861 803.336 62.3064 804.719 63.7239 805.669C64.3626 806.097 64.3459 806.624 63.6698 807.381C62.94 808.196 64.6275 810.417 70.3001 816.109ZM75.0803 545.609C75.5762 545.627 75.966 546.072 75.9466 546.597C75.9273 547.122 75.5149 547.286 75.0304 546.961C74.5459 546.636 74.156 546.192 74.1641 545.973C74.1722 545.754 74.5844 545.591 75.0803 545.609ZM84.6616 277.21C84.9241 276.628 85.7127 276.395 86.4149 276.695C88.4422 277.56 88.0862 273.972 85.9407 271.93L84.0612 270.141L85.5655 272.679C86.915 274.957 86.9201 275.212 85.6137 275.164C84.8005 275.134 84.1636 275.808 84.1707 276.69C84.1775 277.559 84.3981 277.794 84.6616 277.21ZM66.466 807.641C66.8695 807.912 67.2258 807.603 67.2569 806.954C67.3304 805.452 68.9748 808.033 68.9381 809.591C68.9197 810.359 66.4253 810.556 65.7076 809.847C65.2146 809.359 65.9295 807.282 66.466 807.641ZM68.2764 762.928C68.4477 762.934 69.3265 763.88 70.2301 765.031L71.8727 767.123L69.9076 765.33C68.0612 763.646 67.5552 762.901 68.2764 762.928ZM80.376 451.012C80.8719 451.031 81.271 451.224 81.2629 451.443C81.2548 451.662 80.8333 452.077 80.3262 452.365C79.819 452.653 79.4199 452.459 79.4393 451.934C79.4586 451.409 79.8802 450.994 80.376 451.012ZM83.3515 428.553C83.5381 428.56 84.2224 429.296 84.871 430.189C85.9389 431.66 85.9062 431.69 84.5177 430.517C83.0592 429.283 82.6095 428.525 83.3515 428.553ZM78.5037 617.985C78.8745 618.015 79.917 619.171 80.8194 620.554L82.459 623.069L80.1334 620.795C77.6884 618.404 77.3956 617.899 78.5037 617.985ZM74.3312 771.276C74.526 771.283 74.9039 771.927 75.1712 772.708C75.4491 773.522 75.2843 773.878 74.7856 773.543C73.9478 772.983 73.601 771.249 74.3312 771.276ZM79.8893 624.328C79.9938 624.332 80.5085 624.893 81.0332 625.574C81.7456 626.5 81.6857 626.802 80.7986 626.769C80.1449 626.745 79.6303 626.185 79.6547 625.523C79.6791 624.862 79.7847 624.324 79.8893 624.328ZM77.6116 758.39C79.6131 759.809 80.1678 760.848 79.5115 761.949C79.3797 762.171 80.0584 763.031 81.0209 763.86C82.7253 765.329 82.7186 765.34 80.7539 764.295C79.6444 763.705 78.9509 762.904 79.2117 762.514C79.4734 762.125 78.7196 760.828 77.5378 759.632C74.7946 756.857 74.821 756.41 77.6116 758.39ZM83.7014 541.413C83.888 541.42 84.5722 542.157 85.2209 543.049C86.2888 544.52 86.256 544.551 84.8675 543.377C83.409 542.143 82.9594 541.386 83.7014 541.413ZM75.622 816.328C77.1365 817.829 77.9043 817.452 76.9065 815.697C76.5199 815.016 75.7853 814.594 75.2736 814.76C74.7363 814.934 74.8826 815.595 75.622 816.328ZM78.0927 745.594C78.8378 745.732 79.9297 746.405 80.5202 747.09C81.3902 748.1 81.3432 748.176 80.2706 747.492C79.543 747.027 78.645 746.579 78.2761 746.496C76.9394 746.195 76.7116 746.08 76.7251 745.715C76.7326 745.511 77.3485 745.457 78.0927 745.594ZM82.6917 628.043C83.6734 628.079 87.0532 633.125 86.5746 633.84C85.8743 634.883 82.1587 631.062 82.2213 629.363C82.2484 628.628 82.46 628.034 82.6917 628.043ZM85.9823 536.187C86.3813 536.261 87.0142 536.285 87.3878 536.239C87.7614 536.194 88.0542 536.53 88.0374 536.985C88.0206 537.44 88.258 538.567 88.5653 539.487C89.0766 541.018 88.9792 541.041 87.4273 539.745C85.8526 538.429 85.8168 538.446 86.9277 539.974C87.585 540.879 88.3321 541.427 88.5864 541.191C88.8407 540.954 90.1798 541.63 91.5615 542.694C92.9442 543.757 94.085 544.352 94.0975 544.015C94.1099 543.678 94.9313 544.392 95.9231 545.601L97.7252 547.799L96.0173 545.027C93.2311 540.507 86.6231 534.015 85.9027 535.09C85.5473 535.62 85.5833 536.114 85.9823 536.187ZM81.1891 740.95C82.5776 742.123 82.6103 742.093 81.5424 740.622C80.8938 739.729 80.2095 738.993 80.0229 738.986C79.281 738.959 79.7306 739.716 81.1891 740.95ZM78.7364 849.439C81.2616 849.532 80.9464 850.271 78.2492 850.582C77.2645 850.695 76.4714 850.465 76.4859 850.072C76.5004 849.678 77.513 849.393 78.7364 849.439ZM85.7297 648.467C86.2143 648.792 86.6341 648.425 86.6626 647.652C86.6911 646.879 87.2851 646.268 87.982 646.293C89.0062 646.331 89.0358 646.753 88.1376 648.488C87.3133 650.079 86.7389 650.38 85.9226 649.65C84.6117 648.477 84.4726 647.625 85.7297 648.467ZM92.6531 448.757C95.6787 448.869 98.2112 444.483 95.9832 442.989C95.3885 442.591 95.2423 443.202 95.5652 444.726C95.9413 446.497 95.7191 447.065 94.667 447.026C93.8989 446.997 93.0049 447.371 92.68 447.855C92.3552 448.34 92.343 448.746 92.6531 448.757ZM82.6242 768.559C83.3621 768.306 84.1427 768.41 84.3589 768.79C84.5742 769.169 83.9658 769.51 83.0057 769.547C80.9291 769.626 80.7627 769.195 82.6242 768.559ZM83.7683 771.071C84.3731 770.976 84.4685 771.081 83.979 771.307C83.4895 771.532 83.3149 772.374 83.5894 773.178C83.9317 774.179 83.7498 774.412 83.0124 773.918C81.7384 773.064 82.201 771.318 83.7683 771.071ZM89.4081 632.404C90.0758 633.392 90.8133 634.005 91.047 633.766C91.2806 633.527 90.7416 632.523 89.8492 631.534C87.9289 629.408 87.6951 629.87 89.4081 632.404ZM82.6134 850.551C82.8809 850.838 82.5772 851.556 81.938 852.145C81.0147 852.996 80.9157 852.888 81.4518 851.621C81.8235 850.745 82.346 850.263 82.6134 850.551ZM87.3336 745.691C88.7221 746.864 88.7549 746.834 87.687 745.362C86.5641 743.817 85.8415 743.313 85.8141 744.055C85.8072 744.241 86.4905 744.978 87.3336 745.691ZM91.6265 652.364C92.474 652.271 93.279 651.717 93.4143 651.132C93.5496 650.547 93.4375 650.479 93.1662 650.981C92.894 651.483 92.3364 651.669 91.9267 651.395C91.5171 651.121 90.9349 651.264 90.633 651.714C90.332 652.164 90.779 652.456 91.6265 652.364ZM87.4193 768.718C87.8176 768.492 88.1154 769.059 88.0815 769.978C88.0476 770.896 87.7089 771.44 87.3283 771.185C86.9477 770.929 86.649 770.363 86.6652 769.925C86.6813 769.488 87.0209 768.946 87.4193 768.718ZM91.708 657.716C92.1925 658.04 92.6048 657.876 92.6242 657.351C92.6436 656.827 92.2537 656.382 91.7579 656.363C91.262 656.345 90.8497 656.508 90.8417 656.728C90.8336 656.947 91.2234 657.391 91.708 657.716ZM94.076 635.008C95.2849 636.914 96.6586 638.488 97.1283 638.506C97.5989 638.523 96.7582 636.867 95.2608 634.826C93.7635 632.784 92.3692 631.108 92.1627 631.1C91.6092 631.08 91.6839 631.233 94.076 635.008ZM93.4538 649.132C94.5057 649.128 94.7272 648.922 94.0193 648.608C93.378 648.323 92.5987 648.327 92.2884 648.615C91.978 648.904 92.5021 649.136 93.4538 649.132ZM90.2511 832.368C90.9834 833.023 91.7643 833.39 91.9858 833.185C92.2065 832.98 91.6136 832.287 90.6668 831.646C88.619 830.26 88.373 830.688 90.2511 832.368ZM100.796 552.09C102.185 553.263 102.217 553.233 101.149 551.762C100.027 550.216 99.3039 549.712 99.2766 550.454C99.2697 550.641 99.953 551.377 100.796 552.09ZM99.436 644.008C99.9307 644.839 100.281 644.964 100.314 644.319C100.343 643.729 99.9704 642.98 99.4859 642.655C98.3917 641.922 98.3801 642.234 99.436 644.008ZM100.155 648.999C100.83 650.747 100.87 650.738 101.001 648.805C101.077 647.69 100.734 646.764 100.238 646.746C99.7419 646.727 99.3613 646.815 99.391 646.94C99.4216 647.065 99.7647 647.992 100.155 648.999ZM96.4855 775.946C97.1248 775.356 97.4284 774.639 97.161 774.352C96.8935 774.064 96.3711 774.546 95.9993 775.422C95.4633 776.689 95.5622 776.796 96.4855 775.946ZM99.2332 841.164C99.6376 841.435 99.9891 841.084 100.015 840.383C100.041 839.683 99.7161 839.307 99.2929 839.547C98.8706 839.787 98.5191 840.139 98.5121 840.328C98.5051 840.517 98.8297 840.894 99.2332 841.164ZM101.591 778.075C102.64 778.778 105.729 775.471 105.083 774.335C104.797 773.831 104.959 773.194 105.443 772.919C106.361 772.397 106.158 769.003 105.148 768.003C104.828 767.686 104.729 768.563 104.928 769.954C105.195 771.814 104.831 772.707 103.548 773.334C102.589 773.803 102.028 774.58 102.302 775.061C102.576 775.544 102.37 775.922 101.845 775.902C100.697 775.86 100.521 777.358 101.591 778.075ZM101.888 858.931C102.384 858.95 103.413 858.594 104.174 858.141C104.936 857.688 105.153 857.302 104.657 857.284C104.161 857.266 103.133 857.621 102.371 858.075C101.61 858.528 101.392 858.913 101.888 858.931ZM102.658 844.171C103.292 843.845 104.305 843.912 104.91 844.322C106.571 845.447 108.329 845.614 107.748 844.592C107.466 844.095 107.001 843.907 106.714 844.174C106.427 844.441 105.648 844.172 104.983 843.577C104.063 842.754 103.5 842.767 102.641 843.63C101.753 844.521 101.757 844.637 102.658 844.171ZM103.086 838.691C103.571 839.016 103.983 838.852 104.003 838.327C104.022 837.802 103.632 837.357 103.136 837.339C102.64 837.321 102.228 837.484 102.22 837.703C102.212 837.922 102.602 838.366 103.086 838.691Z" fill="#EEEEEE"/>
</svg>
