<?xml version="1.0" standalone="no"?>
<!DOCTYPE svg PUBLIC "-//W3C//DTD SVG 20010904//EN"
 "http://www.w3.org/TR/2001/REC-SVG-20010904/DTD/svg10.dtd">
<svg version="1.0" xmlns="http://www.w3.org/2000/svg"
 width="700.000000pt" height="700.000000pt" viewBox="0 0 700.000000 700.000000"
 preserveAspectRatio="xMidYMid meet">
<metadata>
Created by potrace 1.14, written by Peter Selinger 2001-2017
</metadata>
<g transform="translate(0.000000,700.000000) scale(0.100000,-0.100000)"
fill="#000000" stroke="none">
<path d="M1255 6993 c-138 -12 -350 -75 -485 -143 -386 -196 -644 -533 -742
-971 l-23 -104 0 -2275 0 -2275 23 -104 c128 -568 527 -968 1095 -1093 l102
-23 2275 0 2275 0 102 23 c566 125 970 529 1095 1095 l23 102 0 2275 0 2275
-23 102 c-125 566 -522 964 -1090 1095 l-97 22 -2245 2 c-1235 0 -2263 -1
-2285 -3z m1293 -1829 c16 -11 22 -25 22 -50 0 -26 -642 -2241 -896 -3092 -20
-68 -29 -85 -50 -92 -33 -13 -575 -13 -608 0 -15 5 -28 20 -32 36 -5 19 49
217 199 728 114 385 265 906 337 1156 228 791 360 1244 372 1273 22 56 27 57
343 57 247 0 294 -2 313 -16z m3480 0 c15 -10 22 -25 22 -47 0 -47 -164 -596
-184 -615 -15 -16 -102 -17 -1024 -22 l-1007 -5 -67 -33 c-87 -42 -177 -138
-208 -219 -13 -34 -24 -89 -27 -133 -5 -89 13 -133 67 -165 34 -19 54 -20 800
-26 854 -6 805 -2 965 -79 94 -45 196 -127 248 -198 244 -332 126 -910 -267
-1308 -187 -188 -382 -293 -671 -360 l-120 -28 -1128 -4 c-1026 -4 -1130 -3
-1152 12 -14 9 -27 26 -30 39 -7 27 160 606 181 627 13 13 154 15 1142 16
l1127 1 58 22 c154 60 256 203 264 371 5 91 -14 134 -73 164 -38 20 -58 21
-774 27 -513 4 -752 10 -790 18 -210 46 -347 128 -447 268 -87 122 -132 291
-118 442 16 174 73 379 146 525 156 312 453 558 809 671 168 53 178 53 1245
54 881 1 993 -1 1013 -15z"/>
</g>
</svg>
